<?xml version="1.0" encoding="UTF-8" standalone="no"?>
<svg width="45px" height="45px" viewBox="0 0 45 45" version="1.1" xmlns="http://www.w3.org/2000/svg" xmlns:xlink="http://www.w3.org/1999/xlink">
    <!-- Generator: sketchtool 50.2 (55047) - http://www.bohemiancoding.com/sketch -->
    <title>F6042DB5-A371-471F-8656-4479DD180602</title>
    <desc>Created with sketchtool.</desc>
    <defs></defs>
    <g id="Pages" stroke="none" stroke-width="1" fill="none" fill-rule="evenodd">
        <g id="Регистрация-4" transform="translate(-832.000000, -650.000000)" fill="#6064F3">
            <g id="Group-5" transform="translate(812.000000, 605.000000)">
                <path d="M62.4548328,67.5010614 C62.4548328,56.4988915 53.5032313,47.54729 42.5010614,47.54729 C31.4967687,47.54729 22.5451672,56.4988915 22.5451672,67.5010614 C22.5451672,78.505354 31.4967687,87.4548328 42.5010614,87.4548328 C53.5032313,87.4548328 62.4548328,78.505354 62.4548328,67.5010614 M65,67.5010614 C65,79.9084862 54.9063635,90.0021227 42.5010614,90.0021227 C30.0936365,90.0021227 20,79.9084862 20,67.5010614 C20,55.0936365 30.0936365,45 42.5010614,45 C54.9063635,45 65,55.0936365 65,67.5010614 M42.5010614,73.9754234 C41.5628096,73.9754234 40.8028681,74.7374876 40.8028681,75.6778622 C40.8028681,76.616114 41.5628096,77.3781782 42.5010614,77.3781782 C43.4393132,77.3781782 44.1971319,76.616114 44.1971319,75.6778622 C44.1971319,74.7374876 43.4393132,73.9754234 42.5010614,73.9754234 M41.2274164,69.8297089 L41.2274164,57.6239445 C41.2274164,56.9191943 41.7984339,56.3502995 42.5010614,56.3502995 C43.2036889,56.3502995 43.7725836,56.9191943 43.7725836,57.6239445 L43.7725836,69.8297089 C43.7725836,70.5323364 43.2036889,71.1012312 42.5010614,71.1012312 C41.7984339,71.1012312 41.2274164,70.5323364 41.2274164,69.8297089" id="Alert"></path>
            </g>
        </g>
    </g>
</svg>