<?xml version="1.0" encoding="UTF-8"?>
<svg width="16px" height="13px" viewBox="0 0 16 13" version="1.1" xmlns="http://www.w3.org/2000/svg" xmlns:xlink="http://www.w3.org/1999/xlink">
    <!-- Generator: sketchtool 50.2 (55047) - http://www.bohemiancoding.com/sketch -->
    <title>82A4F5A1-FD8D-4287-AAD6-F8D3AE8F1669</title>
    <desc>Created with sketchtool.</desc>
    <defs>
        <polygon id="path-1" points="8.7890625e-06 8.98881392e-06 14.9999121 8.98881392e-06 14.9999121 11.8155262 8.7890625e-06 11.8155262"></polygon>
    </defs>
    <g id="Админка---Back-end" stroke="none" stroke-width="1" fill="none" fill-rule="evenodd">
        <g id="Главная-Админка" transform="translate(-1336.000000, -371.000000)">
            <g id="Group-18" transform="translate(290.000000, 288.000000)">
                <g id="icon/plus/round-gray" transform="translate(1040.000000, 74.000000)">
                    <g id="Arrow" transform="translate(15.000000, 15.000000) rotate(-270.000000) translate(-15.000000, -15.000000) ">
                        <g id="Arrow/right/black" transform="translate(15.681818, 15.681818) scale(-1, 1) rotate(-270.000000) translate(-15.681818, -15.681818) translate(8.181818, 9.545455)">
                            <g id="Arrow/left/gray">
                                <mask id="mask-2" fill="white">
                                    <use xlink:href="#path-1"></use>
                                </mask>
                                <g id="Clip-2"></g>
                                <path d="M14.3939883,5.28806829 L2.06867578,5.28806829 L6.20486719,1.05787254 C6.44149805,0.815863703 6.44149805,0.423501975 6.20486719,0.181493142 C5.96823633,-0.0604857289 5.58459375,-0.0604857289 5.34796289,0.181493142 L0.177386719,5.46958241 C0.176625,5.47036144 0.175980469,5.47123036 0.17521875,5.47203935 C0.161976563,5.48573231 0.149291016,5.49999456 0.137337891,5.51491599 C0.131332031,5.52234675 0.126117188,5.53022694 0.120550781,5.53786743 C0.114310547,5.5464068 0.107835938,5.55473644 0.102035156,5.5636054 C0.0961171875,5.57262418 0.0910195313,5.58200251 0.0855996094,5.59126099 C0.0808828125,5.59935092 0.0759023438,5.60726108 0.0715371094,5.61559071 C0.0666152344,5.624999 0.0624550781,5.63467696 0.05803125,5.64429499 C0.0540175781,5.65301414 0.0497402344,5.66161344 0.0461074219,5.67057229 C0.042328125,5.67989069 0.03928125,5.68938887 0.036,5.69882713 C0.0326015625,5.70847512 0.0289980469,5.7179733 0.0260683594,5.72780107 C0.0232558594,5.73729925 0.0212050781,5.74691728 0.0188613281,5.75650535 C0.0164003906,5.76654286 0.0136464844,5.77640059 0.0116835938,5.78661788 C0.009515625,5.79773404 0.0082265625,5.8089401 0.00667382813,5.82014615 C0.00544335938,5.82895519 0.00380273438,5.83761441 0.002953125,5.8465433 C-0.00097265625,5.88726263 -0.00097265625,5.92828158 0.002953125,5.96897095 C0.00380273438,5.9779298 0.00547265625,5.98661899 0.00667382813,5.99545799 C0.0082265625,6.00663408 0.009515625,6.01781017 0.0116835938,6.02889637 C0.0136464844,6.03914362 0.0164296875,6.04909124 0.018890625,6.05912875 C0.021234375,6.06865689 0.0232851563,6.07827492 0.0260683594,6.08771318 C0.0290273438,6.09760087 0.0326601563,6.10715898 0.0360585938,6.11689686 C0.0393398438,6.12624523 0.0423574219,6.13571345 0.046078125,6.144912 C0.0497695313,6.15402066 0.0541054688,6.16270985 0.0581777344,6.17157881 C0.0625429688,6.18104703 0.0666445313,6.19060514 0.0715078125,6.19986361 C0.0759609375,6.20837302 0.0810292969,6.21646296 0.0858632813,6.2247027 C0.0911660156,6.23378141 0.0962050781,6.24300992 0.102005859,6.25187888 C0.107953125,6.26095759 0.114603516,6.26952692 0.121019531,6.278306 C0.126439453,6.28573675 0.131478516,6.29334728 0.137279297,6.30056829 C0.149701172,6.31605902 0.162855469,6.33095048 0.176683594,6.34518277 C0.176947266,6.34542247 0.177152344,6.34569214 0.177386719,6.3459618 L5.34796289,11.6340211 C5.46626367,11.7550405 5.62136133,11.8155352 5.77640039,11.8155352 C5.93146875,11.8155352 6.08653711,11.7550405 6.20486719,11.6340211 C6.44149805,11.3920123 6.44149805,10.9996505 6.20486719,10.7576117 L2.06867578,6.52747592 L14.3939883,6.52747592 C14.7286758,6.52747592 14.9999355,6.2500212 14.9999355,5.90775712 C14.9999355,5.56552302 14.7286758,5.28806829 14.3939883,5.28806829" id="Fill-1" fill="#8A96A0" mask="url(#mask-2)"></path>
                            </g>
                        </g>
                    </g>
                </g>
            </g>
        </g>
    </g>
</svg>