<?xml version="1.0" encoding="UTF-8" standalone="no"?>
<svg viewBox="0 0 17 17" version="1.1" xmlns="http://www.w3.org/2000/svg" xmlns:xlink="http://www.w3.org/1999/xlink">
    <!-- Generator: sketchtool 50.2 (55047) - http://www.bohemiancoding.com/sketch -->
    <title>CCECCA4B-39D8-4F55-B79E-D87E0E17874A</title>
    <desc>Created with sketchtool.</desc>
    <defs></defs>
    <g id="Pages" stroke="none" stroke-width="1" fill="none" fill-rule="evenodd">
        <g id="Создать/Редактировать-урок" transform="translate(-1264.000000, -40.000000)" fill="#C7CDD6" stroke="#C7CDD6" stroke-width="0.9">
            <g id="Group-36-Copy-2" transform="translate(1253.000000, 29.000000)">
                <path d="M26.2590177,18.7474374 L18.747635,26.2588201 C17.9194956,27.0862045 16.8324212,27.4998968 15.7445918,27.4998968 C14.6575173,27.4998968 13.5696879,27.0862045 12.7423034,26.2588201 C11.0860247,24.6025413 11.0860247,21.9082574 12.7415485,20.2527336 L16.9388639,16.0561732 C17.8258864,15.1683957 19.3734577,15.1676408 20.2619901,16.0561732 C20.7066338,16.499307 20.9504706,17.0896489 20.9504706,17.7169814 C20.9504706,18.3450689 20.7066338,18.9354107 20.2619901,19.3785446 L17.0030315,22.6367483 C16.8263818,22.8141528 16.5402699,22.8141528 16.3636203,22.6367483 C16.1862158,22.4600987 16.1862158,22.1732318 16.3636203,21.9965822 L19.6218241,18.7383785 C19.8943476,18.4651 20.0445752,18.1027419 20.0445752,17.7169814 C20.0445752,17.3319759 19.8943476,16.9696177 19.6218241,16.6963393 C19.0760221,16.1505373 18.1248319,16.1512922 17.5790299,16.6963393 L13.3817146,20.8936546 C12.0802449,22.1958792 12.0802449,24.3149195 13.3824695,25.6178991 C14.6854491,26.9216335 16.8052443,26.9208786 18.1074689,25.6178991 L25.6180967,18.1065164 C26.9203213,16.8042918 26.9203213,14.6852515 25.6173418,13.3822719 C24.315872,12.0792924 22.1960768,12.0800473 20.8930973,13.3822719 L19.925299,14.3508251 C19.7486494,14.5282296 19.4617825,14.5282296 19.2851329,14.3508251 C19.1077284,14.1741755 19.1077284,13.8873086 19.284378,13.710659 L20.2521763,12.741351 C21.9092099,11.086582 24.6027389,11.0858271 26.2582627,12.741351 C27.9137866,14.3976297 27.9137866,17.0919136 26.2590177,18.7474374" id="Attach"></path>
            </g>
        </g>
    </g>
</svg>