<?xml version="1.0" encoding="UTF-8"?>
<svg width="29px" height="28px" viewBox="0 0 29 28" version="1.1" xmlns="http://www.w3.org/2000/svg" xmlns:xlink="http://www.w3.org/1999/xlink">
    <!-- Generator: sketchtool 50.2 (55047) - http://www.bohemiancoding.com/sketch -->
    <title>6138153B-CB61-4D40-A3A4-D4B2CFE5533D</title>
    <desc>Created with sketchtool.</desc>
    <defs>
        <polygon id="path-1" points="1.69921875e-05 2.12402344e-05 28.9998301 2.12402344e-05 28.9998301 27.9196509 1.69921875e-05 27.9196509"></polygon>
    </defs>
    <g id="Админка---Work" stroke="none" stroke-width="1" fill="none" fill-rule="evenodd">
        <g id="Добавление-команды" transform="translate(-62.000000, -47.000000)">
            <g id="arrow2/left/gray" transform="translate(62.000000, 47.000000)">
                <g id="Arrow/left/gray">
                    <mask id="mask-2" fill="white">
                        <use xlink:href="#path-1"></use>
                    </mask>
                    <g id="Clip-2"></g>
                    <path d="M27.8283773,12.4955095 L3.99943984,12.4955095 L11.9960766,2.49971362 C12.4535629,1.92785571 12.4535629,1.00071948 11.9960766,0.428861572 C11.5385902,-0.142925537 10.7968813,-0.142925537 10.3393949,0.428861572 L0.342947656,12.9244207 C0.341475,12.9262615 0.340228906,12.9283147 0.33875625,12.9302263 C0.313154688,12.9625823 0.288629297,12.9962834 0.265519922,13.0315422 C0.253908594,13.0491008 0.243826563,13.0677214 0.233064844,13.0857756 C0.221000391,13.1059539 0.208482813,13.1256365 0.197267969,13.1465935 C0.185826563,13.1679045 0.175971094,13.1900652 0.165492578,13.2119426 C0.156373438,13.2310588 0.146744531,13.2497502 0.138305078,13.2694329 C0.128789453,13.2916643 0.120746484,13.314533 0.11219375,13.33726 C0.104433984,13.357863 0.0961644531,13.3781829 0.0891410156,13.3993523 C0.081834375,13.4213713 0.07594375,13.4438152 0.0696,13.4661174 C0.0630296875,13.4889153 0.0560628906,13.5113591 0.0503988281,13.5345818 C0.0449613281,13.5570256 0.0409964844,13.5797527 0.0364652344,13.6024089 C0.0317074219,13.6261272 0.0263832031,13.6494207 0.0225882813,13.6735637 C0.018396875,13.6998308 0.0159046875,13.7263103 0.0129027344,13.7527898 C0.0105238281,13.7736052 0.00735195313,13.7940667 0.005709375,13.8151653 C-0.00188046875,13.9113835 -0.00188046875,14.0083098 0.005709375,14.1044573 C0.00735195313,14.1256267 0.0105804688,14.1461589 0.0129027344,14.1670452 C0.0159046875,14.1934539 0.018396875,14.2198625 0.0225882813,14.2460588 C0.0263832031,14.2702727 0.0317640625,14.2937786 0.036521875,14.3174968 C0.041053125,14.3400115 0.0450179688,14.3627385 0.0503988281,14.3850408 C0.0561195313,14.408405 0.0631429688,14.4309905 0.0697132813,14.4540007 C0.0760570313,14.4760906 0.0818910156,14.4984636 0.089084375,14.5201995 C0.0962210938,14.5417229 0.104603906,14.5622551 0.112476953,14.5832122 C0.120916406,14.6055852 0.128846094,14.6281707 0.138248438,14.6500481 C0.146857813,14.6701555 0.156656641,14.6892717 0.166002344,14.7087419 C0.176254297,14.7301946 0.185996484,14.7520012 0.197211328,14.7729583 C0.208709375,14.7944109 0.221566797,14.8146599 0.233971094,14.8354045 C0.244449609,14.8529631 0.254191797,14.8709465 0.265406641,14.8880095 C0.289422266,14.9246135 0.314853906,14.9598015 0.341588281,14.9934319 C0.342098047,14.9939983 0.342494531,14.9946355 0.342947656,14.9952727 L10.3393949,27.490761 C10.5681098,27.7767253 10.8679652,27.9196721 11.1677074,27.9196721 C11.4675063,27.9196721 11.7673051,27.7767253 11.9960766,27.490761 C12.4535629,26.9189031 12.4535629,25.9917668 11.9960766,25.4198381 L3.99943984,15.4241838 L27.8283773,15.4241838 C28.4754398,15.4241838 28.9998754,14.7685686 28.9998754,13.9598113 C28.9998754,13.1511248 28.4754398,12.4955095 27.8283773,12.4955095" id="Fill-1" fill="#DFDFE6" mask="url(#mask-2)"></path>
                </g>
            </g>
        </g>
    </g>
</svg>