<?xml version="1.0" encoding="UTF-8"?>
<svg width="16px" height="14px" viewBox="0 0 16 14" version="1.1" xmlns="http://www.w3.org/2000/svg" xmlns:xlink="http://www.w3.org/1999/xlink">
    <!-- Generator: sketchtool 50.2 (55047) - http://www.bohemiancoding.com/sketch -->
    <title>CBE293CA-7696-4AFD-9DC5-168B53141DED</title>
    <desc>Created with sketchtool.</desc>
    <defs>
    </defs>
    <g id="Админка---Back-end" stroke="none" stroke-width="1" fill="none" fill-rule="evenodd">
        <g id="Главная-Админка" transform="translate(-30.000000, -272.000000)" fill="#6B6D79">
            <g id="Group-6-Copy-2" transform="translate(0.000000, 249.000000)">
                <path d="M45.0950517,27.4703995 C45.0950517,27.594179 45.0195764,27.7051276 44.904854,27.7504128 L44.6286146,27.8613614 C44.6203123,27.8643804 44.61201,27.8673994 44.6044625,27.8711732 L39.1921317,30.0358036 C38.9211755,29.6312562 38.4607765,29.3655833 37.9377329,29.3655833 C37.4312939,29.3655833 36.9867447,29.6161611 36.7127695,29.9980659 L31.384971,27.8666447 C31.381952,27.8651351 31.378933,27.8643804 31.375914,27.8636256 L31.095146,27.7504128 C30.9804236,27.7051276 30.9049483,27.594179 30.9049483,27.4703995 L30.9049483,24.9631115 C30.9049483,24.3796877 31.3796877,23.9057031 31.9623567,23.9057031 L44.038398,23.9057031 C44.6203123,23.9057031 45.0950517,24.3796877 45.0950517,24.9631115 L45.0950517,27.4703995 Z M44.3380348,34.3794047 C44.3380348,34.9628284 43.8632954,35.4368131 43.2813812,35.4368131 L32.714845,35.4368131 C32.132176,35.4368131 31.6574367,34.9628284 31.6574367,34.3794047 L31.6574367,28.9512241 L36.4297373,30.8599934 C36.4297373,30.8652767 36.4282277,30.8698052 36.4282277,30.8750884 C36.4282277,31.7083353 37.1037313,32.3845936 37.9377329,32.3845936 C38.758149,32.3845936 39.423086,31.7279589 39.4434643,30.9113166 L44.3380348,28.9534884 L44.3380348,34.3794047 Z M44.038398,23 L31.9623567,23 C30.8800415,23 30,23.8807963 30,24.9631115 L30,27.4703995 C30,27.9640077 30.295863,28.4017642 30.7524883,28.5874334 L30.7524883,34.3794047 C30.7524883,35.4617199 31.6325298,36.3425162 32.714845,36.3425162 L43.2813812,36.3425162 C44.3629416,36.3425162 45.2429832,35.4617199 45.2429832,34.3794047 L45.2429832,28.5904524 C45.7033822,28.4047832 46,27.966272 46,27.4703995 L46,24.9631115 C46,23.8807963 45.1199585,23 44.038398,23 Z" id="Briefcase"></path>
            </g>
        </g>
    </g>
</svg>