<?xml version="1.0" encoding="UTF-8"?>
<svg width="52px" height="42px" viewBox="0 0 52 42" version="1.1" xmlns="http://www.w3.org/2000/svg" xmlns:xlink="http://www.w3.org/1999/xlink">
    <!-- Generator: sketchtool 50.2 (55047) - http://www.bohemiancoding.com/sketch -->
    <title>4C99B624-F503-4C5E-B019-4DEE41175836</title>
    <desc>Created with sketchtool.</desc>
    <defs></defs>
    <g id="Админка---Work" stroke="none" stroke-width="1" fill="none" fill-rule="evenodd" opacity="0.102826287">
        <g id="Заполнение-профиля" transform="translate(-502.000000, -241.000000)" fill="#FFFFFF">
            <g id="Group-9" transform="translate(339.000000, 111.000000)">
                <g id="Group-10" transform="translate(40.000000, 99.000000)">
                    <g id="Group-2" transform="translate(97.000000, 0.000000)">
                        <path d="M52.2865263,62.6080268 C48.4622289,62.6080268 45.3506524,59.4940586 45.3506524,55.6721529 C45.3506524,51.8478556 48.4622289,48.7338874 52.2865263,48.7338874 C56.1108236,48.7338874 59.2224002,51.8478556 59.2224002,55.6721529 C59.2224002,59.4940586 56.1108236,62.6080268 52.2865263,62.6080268 Z M52.2865263,45.8662623 C46.8789363,45.8662623 42.4806356,50.264563 42.4806356,55.6721529 C42.4806356,61.0773512 46.8789363,65.4756519 52.2865263,65.4756519 C57.6941162,65.4756519 62.0924169,61.0773512 62.0924169,55.6721529 C62.0924169,50.264563 57.6941162,45.8662623 52.2865263,45.8662623 Z M74.7683244,66.1883727 C74.7683244,68.3289269 73.0271808,70.0676787 70.8866267,70.0676787 L33.6864259,70.0676787 C31.5458717,70.0676787 29.8047282,68.3289269 29.8047282,66.1883727 L29.8047282,45.524252 C29.8047282,43.3860895 31.5458717,41.644946 33.6864259,41.644946 L38.9768235,41.644946 C40.6868752,41.644946 42.2319008,40.5639063 42.8202543,38.9519135 L44.2074291,35.1419663 C44.3796301,34.6612385 44.8436161,34.3383616 45.3554358,34.3383616 L59.2176168,34.3383616 C59.7294365,34.3383616 60.1934225,34.6612385 60.3680152,35.144358 L61.7527983,38.9543052 C62.3411517,40.5639063 63.8861774,41.644946 65.5962291,41.644946 L70.8866267,41.644946 C73.0271808,41.644946 74.7683244,43.3860895 74.7683244,45.524252 L74.7683244,66.1883727 Z M70.8866267,38.7773209 L65.5962291,38.7773209 C65.0868011,38.7773209 64.6252067,38.4520523 64.4482224,37.9713245 L63.065831,34.1637689 C62.4822609,32.5517761 60.9348435,31.4683448 59.2176168,31.4683448 L45.3554358,31.4683448 C43.6382091,31.4683448 42.0907917,32.5517761 41.5096133,34.1613772 L40.1248302,37.9689328 C39.9478458,38.4520523 39.4862515,38.7773209 38.9768235,38.7773209 L33.6864259,38.7773209 C29.9625791,38.7773209 26.9347114,41.8051886 26.9347114,45.524252 L26.9347114,66.1883727 C26.9347114,69.9098278 29.9625791,72.9353038 33.6864259,72.9353038 L70.8866267,72.9353038 C74.6104734,72.9353038 77.6383411,69.9098278 77.6383411,66.1883727 L77.6383411,45.524252 C77.6383411,41.8051886 74.6104734,38.7773209 70.8866267,38.7773209 Z" id="Camera"></path>
                    </g>
                </g>
            </g>
        </g>
    </g>
</svg>