<?xml version="1.0" encoding="UTF-8" standalone="no"?>
<svg viewBox="0 0 28 19" version="1.1" xmlns="http://www.w3.org/2000/svg" xmlns:xlink="http://www.w3.org/1999/xlink">
    <!-- Generator: sketchtool 50.2 (55047) - http://www.bohemiancoding.com/sketch -->
    <title>763BFA2E-51FE-407E-A90A-967B3C8EAFE8</title>
    <desc>Created with sketchtool.</desc>
    <defs></defs>
    <g id="Pages" stroke="none" stroke-width="1" fill="none" fill-rule="evenodd">
        <g id="Уведомления" transform="translate(-336.000000, -249.000000)" fill="#96A2B4">
            <g id="Group-11" transform="translate(280.000000, 187.000000)">
                <path d="M75.9099958,69.4061041 C75.9099958,69.8446153 75.554696,70.1985943 75.1175055,70.1985943 L73.7966885,70.1985943 C73.3594981,70.1985943 73.0055191,69.8446153 73.0055191,69.4061041 C73.0055191,68.9675928 73.3594981,68.6136138 73.7966885,68.6136138 L75.1175055,68.6136138 C75.554696,68.6136138 75.9099958,68.9675928 75.9099958,69.4061041 Z M63.0320298,69.4061041 C63.0320298,69.8446153 62.6780509,70.1985943 62.2395396,70.1985943 L60.9187226,70.1985943 C60.4802113,70.1985943 60.1275532,69.8446153 60.1275532,69.4061041 C60.1275532,68.9675928 60.4802113,68.6136138 60.9187226,68.6136138 L62.2395396,68.6136138 C62.6780509,68.6136138 63.0320298,68.9675928 63.0320298,69.4061041 Z M70.6597481,69.4061041 C70.6597481,70.8642861 69.4776169,72.0477381 68.0181141,72.0477381 C66.5599321,72.0477381 65.37648,70.8642861 65.37648,69.4061041 C65.37648,67.9479221 66.5599321,66.76447 68.0181141,66.76447 C69.4776169,66.76447 70.6597481,67.9479221 70.6597481,69.4061041 Z M82.4163404,78.6518232 C82.4163404,78.9384405 82.1733101,79.18015 81.8866928,79.18015 L62.0744375,79.18015 C61.789141,79.18015 61.5461107,78.9384405 61.5461107,78.6518232 L61.5461107,76.8026794 L77.9242417,76.8026794 C79.0892023,76.8026794 80.0375489,75.8556536 80.0375489,74.6893721 L80.0375489,67.5569602 L81.8866928,67.5569602 C82.1733101,67.5569602 82.4163404,67.7986697 82.4163404,68.085287 L82.4163404,78.6518232 Z M58.1119864,75.2176989 C57.8214067,75.2176989 57.5836596,74.9812727 57.5836596,74.6893721 L57.5836596,64.122836 C57.5836596,63.8309354 57.8214067,63.5945092 58.1119864,63.5945092 L77.9242417,63.5945092 C78.2161423,63.5945092 78.4538893,63.8309354 78.4538893,64.122836 L78.4538893,74.6893721 C78.4538893,74.9812727 78.2161423,75.2176989 77.9242417,75.2176989 L58.1119864,75.2176989 Z M81.8866928,65.9719798 L80.0375489,65.9719798 L80.0375489,64.122836 C80.0375489,62.9565546 79.0892023,62.0095288 77.9242417,62.0095288 L58.1119864,62.0095288 C56.9470258,62.0095288 56,62.9565546 56,64.122836 L56,74.6893721 C56,75.8556536 56.9470258,76.8026794 58.1119864,76.8026794 L59.9624511,76.8026794 L59.9624511,78.6518232 C59.9624511,79.8181046 60.9094769,80.7651304 62.0744375,80.7651304 L81.8866928,80.7651304 C83.0516534,80.7651304 84,79.8181046 84,78.6518232 L84,68.085287 C84,66.9190056 83.0516534,65.9719798 81.8866928,65.9719798 Z" id="Cash"></path>
            </g>
        </g>
    </g>
</svg>