<?xml version="1.0" encoding="UTF-8"?>
<svg width="16px" height="15px" viewBox="0 0 16 15" version="1.1" xmlns="http://www.w3.org/2000/svg" xmlns:xlink="http://www.w3.org/1999/xlink">
    <!-- Generator: sketchtool 50.2 (55047) - http://www.bohemiancoding.com/sketch -->
    <title>913A2956-4E41-41DD-90D9-BEEB5EDC7BB8</title>
    <desc>Created with sketchtool.</desc>
    <defs></defs>
    <g id="-Symbols" stroke="none" stroke-width="1" fill="none" fill-rule="evenodd">
        <g id="Menu" transform="translate(-40.000000, -137.000000)" fill="#96A2B4" stroke="#96A2B4" stroke-width="0.5">
            <g id="Group-33" transform="translate(0.000000, 90.000000)">
                <g id="Group-18" transform="translate(41.000000, 48.000000)">
                    <path d="M3.06922236,9.17406977 C3.18079067,9.17406977 3.29308818,9.12947674 3.37840513,9.04104651 L6.6394083,5.66104651 C6.75389343,5.54238372 6.93911141,5.54238372 7.05286734,5.66104651 L8.17511329,6.82424419 C8.61482369,7.28075581 9.38413459,7.28075581 9.8245742,6.82424419 L12.8179593,3.72087209 L12.8179593,5.17732558 C12.8179593,5.42825581 13.0141153,5.63156977 13.2554821,5.63156977 C13.4968488,5.63156977 13.6922756,5.42825581 13.6922756,5.17732558 L13.6922756,2.62645349 C13.6922756,2.5675 13.6813376,2.50930233 13.6587322,2.45337209 C13.6142507,2.34226744 13.529663,2.25383721 13.4217407,2.20848837 C13.3685088,2.18505814 13.31236,2.17296512 13.2554821,2.17296512 L10.7944164,2.17296512 C10.5530496,2.17296512 10.3568936,2.37627907 10.3568936,2.62645349 C10.3568936,2.87738372 10.5530496,3.07994186 10.7944164,3.07994186 L12.1995937,3.07994186 L9.20620866,6.18255814 C9.09245273,6.30046512 8.90723475,6.30046512 8.79347883,6.18255814 L7.67123288,5.01936047 C7.21620918,4.54773256 6.47606646,4.54773256 6.02177197,5.01936047 L2.76003959,8.40011628 C2.5894057,8.57697674 2.5894057,8.86418605 2.76003959,9.04104651 C2.84535653,9.12947674 2.95765404,9.17406977 3.06922236,9.17406977 M14,12.5465116 C14,12.7974419 13.8045732,13 13.5632064,13 L1.16672743,13 C0.523568936,13 0,12.4580814 0,11.7906977 L0,0.453488372 C0,0.203313953 0.19615605,0 0.437522788,0 C0.678889525,0 0.874316371,0.203313953 0.874316371,0.453488372 L0.874316371,11.7906977 C0.874316371,11.9577326 1.00557321,12.0930233 1.16672743,12.0930233 L13.5632064,12.0930233 C13.8045732,12.0930233 14,12.2963372 14,12.5465116" id="Chart"></path>
                </g>
            </g>
        </g>
    </g>
</svg>