<?xml version="1.0" encoding="UTF-8"?>
<svg width="14px" height="13px" viewBox="0 0 14 13" version="1.1" xmlns="http://www.w3.org/2000/svg" xmlns:xlink="http://www.w3.org/1999/xlink">
    <!-- Generator: sketchtool 50.2 (55047) - http://www.bohemiancoding.com/sketch -->
    <title>0E090BA5-08B9-4B0E-BB67-F24F57CCE57E</title>
    <desc>Created with sketchtool.</desc>
    <defs></defs>
    <g id="Pages" stroke="none" stroke-width="1" fill="none" fill-rule="evenodd">
        <g id="Как-заработать-в-Instagram-[2.0]" transform="translate(-1146.000000, -282.000000)" fill="#C7CDD6" fill-rule="nonzero">
            <g id="Group-38" transform="translate(280.000000, 177.000000)">
                <g id="Group-12" transform="translate(866.000000, 105.000000)">
                    <g id="Group-11">
                        <path d="M1.4,0 L12.6,0 C13.3588,0 14,0.637928571 14,1.39285714 L14,9.05357143 C14,9.8085 13.3588,10.4464286 12.6,10.4464286 L5.93646667,10.4464286 L3.67266667,12.9240893 C3.6274,12.9733036 3.5644,13 3.5,13 C3.47176667,13 3.4433,12.9948929 3.41576667,12.9844464 C3.32593333,12.9498571 3.26666667,12.8637321 3.26666667,12.7678571 L3.26666667,10.4464286 L1.4,10.4464286 C0.6412,10.4464286 0,9.8085 0,9.05357143 L0,1.39285714 C0,0.637928571 0.6412,0 1.4,0 Z" id="Shape"></path>
                    </g>
                </g>
            </g>
        </g>
    </g>
</svg>