<?xml version="1.0" encoding="UTF-8"?>
<svg width="104px" height="41px" viewBox="0 0 104 41" version="1.1" xmlns="http://www.w3.org/2000/svg" xmlns:xlink="http://www.w3.org/1999/xlink">
    <!-- Generator: sketchtool 50.2 (55047) - http://www.bohemiancoding.com/sketch -->
    <title>7BB6EC74-99AE-44B8-A1B0-B8DB97D642D4</title>
    <desc>Created with sketchtool.</desc>
    <defs>
        <linearGradient x1="50%" y1="0%" x2="50%" y2="100%" id="linearGradient-1">
            <stop stop-color="#A282ED" offset="0%"></stop>
            <stop stop-color="#6243D1" offset="100%"></stop>
        </linearGradient>
    </defs>
    <g id="Админка---Work" stroke="none" stroke-width="1" fill="none" fill-rule="evenodd">
        <g id="Заполнение-профиля" transform="translate(-762.000000, -170.000000)">
            <g id="Group-9" transform="translate(339.000000, 111.000000)">
                <g id="Group-19" transform="translate(423.000000, 59.000000)">
                    <g id="Group-15">
                        <g id="Group-64">
                            <path d="M47.4581738,24.6764624 L22.6451352,33.9473436 C22.1489213,34.1326631 21.609433,33.8094441 21.5342436,33.2814651 L19.0169318,15.5878121 C18.9058606,14.8074716 19.3503255,14.054929 20.0836474,13.7809468 L43.3034643,5.10545 C44.2958921,4.7344476 45.3748688,5.38124904 45.5250673,6.43720689 L47.9915316,23.7731206 C48.0470671,24.1632 47.8249249,24.5394713 47.4581738,24.6764624" id="Fill-2" fill="#637280"></path>
                            <path d="M46.5453095,23.3102163 L24.1316469,31.9543131 C23.715187,32.1150411 23.2623232,31.8348557 23.1993446,31.3774721 L21.0071053,15.4722203 C20.9605084,15.1344833 21.1468961,14.8084839 21.4546905,14.6897837 L43.8683531,6.04568685 C44.284813,5.8849589 44.7376768,6.16514426 44.8006554,6.62252792 L46.9928947,22.5277797 C47.0394916,22.8655167 46.8531039,23.1915161 46.5453095,23.3102163" id="Fill-4" fill="#FFFFFF"></path>
                            <path d="M45.9061641,21.1484162 L24.0974355,28.9912297 C24.0116098,29.0221256 23.918101,28.9681487 23.9049835,28.8801865 L22.0014514,16.002081 C21.9918944,15.9370181 22.0303098,15.8743177 22.0938359,15.8514185 L43.9025645,8.0087867 C43.9885776,7.97789088 44.081899,8.03168596 44.0950165,8.11982992 L45.9985486,20.9977537 C46.0081056,21.0628166 45.9696902,21.125517 45.9061641,21.1484162" id="Fill-6" fill="#EBECF1"></path>
                            <path d="M47.4549727,25.4173829 L22.5125376,34.9463028 C22.22065,35.0578166 21.8928656,34.9928136 21.6618936,34.7776312 L12.2750765,26.0272532 C11.8102318,25.5940865 11.9572634,24.807139 12.5450273,24.5826171 L37.4874624,15.0536972 C37.77935,14.9421834 38.1071344,15.0071864 38.3381064,15.2223688 L47.7249235,23.9727468 C48.1897682,24.4059135 48.0427366,25.192861 47.4549727,25.4173829" id="Fill-8" fill="#8A96A0"></path>
                            <path d="M40.6149174,8.07891695e-05 C40.4140148,-0.00411169323 40.24758,0.155393205 40.2433905,0.356441793 C39.7338301,8.06247853 39.6527074,11.9154969 40.0000223,11.9154969 C40.3333408,11.9154969 41.1669117,11.3740315 42.5007351,10.2911005 L54.4278708,10.5426495 C54.6287734,10.546842 54.7952083,10.3873371 54.7993977,10.1860979 L54.9999194,0.667638328 C55.0041088,0.46658974 54.8445293,0.300033848 54.6436268,0.295841366 L40.6149174,8.07891695e-05 Z" id="Fill-10" fill="url(#linearGradient-1)"></path>
                            <path d="M51.4889829,3.99990665 L42.4899395,3.84071223 C42.2135891,3.83571849 41.9943463,3.64368644 42.0001111,3.41155314 C42.0060561,3.17941983 42.2346667,2.99510538 42.5110171,3.00009912 L51.5100605,3.15929354 C51.7864109,3.16428728 52.0056537,3.35631933 51.9998889,3.58845264 C51.9941241,3.82058594 51.7653333,4.00474907 51.4889829,3.99990665" id="Fill-12" fill="#FFFFFF"></path>
                            <path d="M47.5289743,6.99990051 L42.451604,6.89603346 C42.1968803,6.89071108 41.9946291,6.68604137 42.0001088,6.43863135 C42.0054224,6.19122132 42.2163084,5.99493839 42.4710321,6.00009949 L47.5484023,6.10396654 C47.803126,6.10912764 48.0052112,6.31395863 47.9998976,6.56136865 C47.9945839,6.80877868 47.7836979,7.00506161 47.5289743,6.99990051" id="Fill-14" fill="#FFFFFF"></path>
                            <path d="M59.2734675,40.9487094 L49.1657018,34.7509033 C49.0022842,34.6506285 48.9510159,34.4368851 49.0512906,34.2734675 L55.2490967,24.1657018 C55.3493715,24.0022842 55.5631149,23.9510159 55.7265325,24.0512906 L65.8342982,30.2490967 C65.9977158,30.3493715 66.0489841,30.5631149 65.9487094,30.7265325 L59.7509033,40.8342982 C59.6506285,40.9977158 59.4368851,41.0489841 59.2734675,40.9487094" id="Fill-16" fill="#EBECF1"></path>
                            <polygon id="Fill-18" fill="#FFFFFF" points="58.6785632 39 50 34.0585985 55.3214368 26 64 30.9412245"></polygon>
                            <path d="M51.4385598,31.6698197 L54.7037323,31.0114214 C54.9672228,30.9582755 55.2323499,31.0945516 55.3396372,31.3380171 L56.1519298,33.1823225 C56.2503069,33.4058584 56.4832477,33.5412367 56.7289176,33.5177161 L62,33.0122916 L58.2814929,39 L50,33.9861538 L51.4385598,31.6698197 Z" id="Fill-20" fill="#977BF4"></path>
                            <path d="M61.7785883,32.2839478 C61.3457043,32.9901266 60.4220545,33.2115896 59.7160758,32.7784965 C59.0098737,32.3456267 58.7884034,31.4222309 59.2215109,30.7160522 C59.6543949,30.0098734 60.5778212,29.7884104 61.2840234,30.2215035 C61.9902255,30.6543733 62.2114724,31.5777691 61.7785883,32.2839478" id="Fill-22" fill="#8A96A0"></path>
                            <path d="M77.4915672,14.0162542 L75.1216061,16 L73,13.3002779 L75.3697861,11.3167127 C75.9590822,10.8234404 76.8242116,10.9166401 77.3021943,11.5246059 L77.6931915,12.0222131 C78.1709992,12.6301789 78.0808633,13.5229819 77.4915672,14.0162542" id="Fill-24" fill="#977BF4"></path>
                            <path d="M75.5641223,16.0353566 L67.4896755,22 L67.1051878,21.5683616 L67.5529741,21.2375195 L65.8322741,19.3052822 L65.3844877,19.6361244 L65,19.2043 L73.0744468,13.2396566 C73.5796102,12.8664131 74.3212244,12.9368961 74.7308273,13.396988 L75.7368662,14.5267609 C76.1466733,14.9866669 76.0692857,15.662299 75.5641223,16.0353566" id="Fill-26" fill="#977BF4"></path>
                            <path d="M68,21 L66.5,19 L73.7206983,13.4078468 C73.9584163,13.1893735 74.3072417,13.2307643 74.5,13.5 L75.5,14.5 C75.6927583,14.7694309 75.6564116,15.1647914 75.4186935,15.3832648" id="Fill-28" fill="#EBECF1"></path>
                            <path d="M9.02239595,6.64582079 L8.79772646,6.26576566 C8.64297869,6.00428773 8.31250662,5.92162574 8.05931644,6.08143892 L0.257342009,11.0018227 C0.00415182872,11.1614458 -0.0758901249,11.5029254 0.0788576521,11.7644033 L4.2022143,18.7342343 C4.35696207,18.9957123 4.68743414,19.0783743 4.94062432,18.9185611 L12.7427828,13.9981773 C12.9957889,13.8385542 13.0758309,13.4970746 12.9212671,13.2355967 L9.02239595,6.64582079 Z" id="Fill-30" fill="#977BF4"></path>
                            <path d="M7.78,11.478861 C8.21167298,11.9501016 7.98856927,12.5655566 7.28171083,12.8533395 C6.57485238,13.1411224 5.65167297,12.9923861 5.22,12.5209841 C4.78832702,12.0497436 5.01143073,11.4344501 5.71828917,11.1466672 C6.42538986,10.8588842 7.34832703,11.0076205 7.78,11.478861" id="Fill-32" fill="#FFFFFF"></path>
                            <path d="M7.92666977,10.2394421 C8.07054616,10.4750941 7.99621002,10.7827934 7.76055795,10.9266698 C7.52490587,11.0705462 7.21720661,10.99621 7.07333023,10.7605579 C6.92945384,10.5249059 7.00378998,10.2172066 7.23944205,10.0733302 C7.47509413,9.92945384 7.78279339,10.00379 7.92666977,10.2394421" id="Fill-34" fill="#6B4BD6"></path>
                            <path d="M10.8152992,12.5109447 C10.9986521,12.3825565 11.0551785,12.1065014 10.9408736,11.8977167 C10.9335395,11.8843857 10.9276364,11.8735158 10.923701,11.8661324 C10.4697013,11.013766 9.49891477,10.744684 8.75548581,11.2654151 C8.01205686,11.7859411 7.77736513,12.8987755 8.23136482,13.751347 C8.23512132,13.7583202 8.24030886,13.7683697 8.24692746,13.7810855 C8.3560448,13.9943822 8.59699735,14.0641138 8.78106578,13.9353154 L10.8152992,12.5109447 Z" id="Fill-36" fill="#6B4BD6"></path>
                            <path d="M8.75370606,15.0146139 C8.99824912,14.8434236 9.07352032,14.4753138 8.92121099,14.197155 C8.91131618,14.1791243 8.90354169,14.1647402 8.8982409,14.1550158 C8.29289083,13.0182718 6.99861492,12.6596839 6.00719073,13.3537642 C5.01594324,14.0478446 4.7031967,15.5318314 5.30854678,16.6683728 C5.31349418,16.677692 5.3205619,16.6912657 5.32904316,16.7080808 C5.47463816,16.9925201 5.79586595,17.0855098 6.04129247,16.9137118 L8.75370606,15.0146139 Z" id="Fill-38" fill="#FFFFFF"></path>
                            <path d="M1.93974347,11.3290929 L1.19140507,11.9740223 C1.13208417,12.0250272 1.05463424,11.9986342 1.01849094,11.9149213 C0.982232902,11.8312084 1.00093563,11.7219121 1.06025653,11.6709071 L1.80859493,11.0259777 C1.86791583,10.9749728 1.94536576,11.0013658 1.98150906,11.0850787 C2.0177671,11.1686297 1.99906437,11.277926 1.93974347,11.3290929" id="Fill-40" fill="#6B4BD6"></path>
                            <path d="M1.92663002,12.4629551 L1.27951587,12.9710564 C1.20737383,13.0278729 1.1130481,12.9984211 1.0688611,12.9056596 L1.02250984,12.8077961 C0.978322834,12.7150346 1.00122793,12.5937489 1.07336998,12.5369324 L1.72048413,12.0288311 C1.79262617,11.9722465 1.8869519,12.0014664 1.9311389,12.0944598 L1.97749016,12.1920914 C2.02167717,12.2850848 1.99877207,12.4061386 1.92663002,12.4629551" id="Fill-42" fill="#6B4BD6"></path>
                            <g id="Group-10" transform="translate(85.000000, 15.000000)">
                                <path d="M11.8787879,0.718858176 L0.152370917,4.28571429 L0.0249467977,3.90893623 C-0.0626454858,3.65016994 0.0878093633,3.37295871 0.360591367,3.29004605 L11.0989523,0.0236811795 C11.3717343,-0.0594105584 11.6639603,0.0831347505 11.7513638,0.342080123 L11.8787879,0.718858176 Z" id="Fill-44" fill="#977BF4"></path>
                                <path d="M13.6381496,8.48141421 L2.8629942,11.9747627 C2.58908328,12.063437 2.29585085,11.9109861 2.20814631,11.6342378 L0,4.67205559 L11.7669933,0.857142857 L13.9749502,7.81932508 C14.0628441,8.09626488 13.9120605,8.39254833 13.6381496,8.48141421" id="Fill-46" fill="#EBECF1"></path>
                                <path d="M6.78582525,6.78763912 L6.01191828,4.28571429 C4.67661678,4.72970095 3.93960558,6.20865652 4.36101321,7.59367741 C4.36155579,7.59573984 4.36209838,7.59780228 4.36264096,7.59986472 C4.36336441,7.60192716 4.36372613,7.6039896 4.36444958,7.60605203 C4.79851752,8.98676055 6.22804795,9.74573775 7.56353031,9.30175109 C8.90281078,8.85645197 9.64054542,7.36999663 9.21099902,5.98141334 L6.78582525,6.78763912 Z" id="Fill-48" fill="#977BF4"></path>
                                <path d="M9.75757576,5.51273518 C9.30240573,3.93536698 7.78300025,3.06681344 6.36363636,3.57265323 L7.18773368,6.42857143 L9.75757576,5.51273518 Z" id="Fill-50" fill="#6B4BD6"></path>
                            </g>
                            <path d="M7.92400136,3.95692836 C7.8960161,3.97759284 7.86145711,3.99214063 7.82257825,3.99759605 C7.70744422,4.01396232 7.59907174,3.94502562 7.58066532,3.84368702 L7.00274136,1.21516541 C6.98414713,1.11415745 7.06209267,1.01893553 7.17741451,1.00240395 C7.29254854,0.986037682 7.40092102,1.05497438 7.41951526,1.15631298 L7.9972514,3.78466927 C8.00964755,3.85178749 7.97922062,3.91626067 7.92400136,3.95692836" id="Fill-52" fill="#977BF4"></path>
                            <path d="M10.1968096,3.9997694 C10.1610701,3.99809965 10.1251464,3.98696796 10.0929071,3.96563221 C9.99747887,3.90199602 9.97131902,3.77268283 10.0343237,3.67657919 L11.6203112,1.09346936 C11.6831317,0.997736783 11.8113518,0.971020715 11.9069643,1.03447138 C12.0025767,1.09810757 12.0287366,1.22742076 11.9655476,1.32352439 L10.3795602,3.90663422 C10.3379255,3.97008488 10.2673676,4.00310891 10.1968096,3.9997694" id="Fill-54" fill="#977BF4"></path>
                            <path d="M11.0424433,5.90335096 C11.0213509,5.86882963 11.0067082,5.82658642 11.0018273,5.7793467 C10.9871846,5.63967157 11.0621411,5.51089791 11.1693463,5.49182033 L13.7776578,5.00238959 C13.8846887,4.98331201 13.9833523,5.08051682 13.9981693,5.22064617 C14.012812,5.36032131 13.9380298,5.48909496 13.8306503,5.50817254 L11.2223388,5.99760329 C11.1513916,6.01032167 11.0841051,5.97148517 11.0424433,5.90335096" id="Fill-56" fill="#977BF4"></path>
                            <polygon id="Fill-58" fill="#977BF4" points="76.0660061 24 77 27 74 26.3297073"></polygon>
                            <polygon id="Fill-60" fill="#977BF4" points="103.180127 33 101 30.7878552 104 30"></polygon>
                            <polygon id="Fill-62" fill="#977BF4" points="57 15.2481459 60 15 58.6941273 18"></polygon>
                        </g>
                    </g>
                </g>
            </g>
        </g>
    </g>
</svg>