<?xml version="1.0" encoding="UTF-8"?>
<svg width="89px" height="42px" viewBox="0 0 89 42" version="1.1" xmlns="http://www.w3.org/2000/svg" xmlns:xlink="http://www.w3.org/1999/xlink">
    <!-- Generator: sketchtool 50.2 (55047) - http://www.bohemiancoding.com/sketch -->
    <title>DDAD0F80-5D14-4020-9E7E-7D25F1DE8DE7</title>
    <desc>Created with sketchtool.</desc>
    <defs>
        <linearGradient x1="50%" y1="0%" x2="50%" y2="100%" id="linearGradient-1">
            <stop stop-color="#A282ED" offset="0%"></stop>
            <stop stop-color="#6243D1" offset="100%"></stop>
        </linearGradient>
    </defs>
    <g id="Админка---Work" stroke="none" stroke-width="1" fill="none" fill-rule="evenodd">
        <g id="Заполнение-профиля" transform="translate(-762.000000, -348.000000)">
            <g id="Group-9" transform="translate(339.000000, 111.000000)">
                <g id="Group-19" transform="translate(423.000000, 59.000000)">
                    <g id="Group-14" transform="translate(0.000000, 178.000000)">
                        <g id="Illustration">
                            <path d="M69,40 L27,40 L27,13.4079986 C27,11.5257669 28.5259173,10 30.4083344,10 L65.5916656,10 C67.4740827,10 69,11.5257669 69,13.4079986 L69,40 Z" id="Fill-3" fill="#637280"></path>
                            <path d="M68,39 L30,39 L30,13.9782361 C30,12.8857357 30.9133976,12 32.0402908,12 L65.9594875,12 C67.0863807,12 68,12.8857357 68,13.9782361 L68,39 Z" id="Fill-5" fill="#FFFFFF"></path>
                            <path d="M51.2831636,38 L51.2831636,38.4428471 C51.2831636,38.826006 50.9335851,39.1365766 50.502301,39.1365766 L44.4974823,39.1365766 C44.0661982,39.1365766 43.7166196,38.826006 43.7166196,38.4428471 L43.7166196,38 L24,38 L24,39.7848662 C24,40.4560683 24.6122501,41 25.3677558,41 L69.6320274,41 C70.3875332,41 71,40.4560683 71,39.7848662 L71,38 L51.2831636,38 Z" id="Fill-7" fill="#8A96A0"></path>
                            <path d="M25.3677558,42 L69.6320274,42 C70.3875332,42 71,41.1045627 71,40 L24,40 C24,41.1045627 24.6122501,42 25.3677558,42" id="Fill-9" fill="#637280"></path>
                            <path d="M46,28 L34,28 L34,27.5530973 C34,27.2475418 34.2257721,27 34.504456,27 L45.495544,27 C45.7740037,27 46,27.2475418 46,27.5530973 L46,28 Z" id="Fill-11" fill="#977BF4"></path>
                            <path d="M45.495544,36 L34.5046802,36 C34.2259963,36 34,35.7598356 34,35.4639188 L34,28 L46,28 L46,35.4639188 C46,35.7598356 45.7742279,36 45.495544,36" id="Fill-13" fill="#EBECF1"></path>
                            <polygon id="Fill-15" fill="#977BF4" opacity="0.19720818" points="36.2681637 34 36 33.7318557 38.7318363 31 39 31.2683616"></polygon>
                            <polygon id="Fill-17" fill="#977BF4" opacity="0.19720818" points="40.2681637 33 40 32.7318557 42.7318363 30 43 30.2683616"></polygon>
                            <polygon id="Fill-19" fill="#977BF4" opacity="0.19720818" points="40 32.7391948 39.7391948 33 38 31.2608052 38.2608052 31"></polygon>
                            <path d="M37,33.5 C37,33.7761943 36.7761943,34 36.5,34 C36.2240064,34 36,33.7761943 36,33.5 C36,33.2238057 36.2240064,33 36.5,33 C36.7761943,33 37,33.2238057 37,33.5" id="Fill-21" fill="#977BF4"></path>
                            <path d="M39,30.5 C39,30.7761943 38.7761943,31 38.5,31 C38.2240064,31 38,30.7761943 38,30.5 C38,30.2238057 38.2240064,30 38.5,30 C38.7761943,30 39,30.2238057 39,30.5" id="Fill-23" fill="#977BF4"></path>
                            <path d="M41,32.5 C41,32.7761943 40.7761943,33 40.5,33 C40.2240064,33 40,32.7761943 40,32.5 C40,32.2238057 40.2240064,32 40.5,32 C40.7761943,32 41,32.2238057 41,32.5" id="Fill-25" fill="#977BF4"></path>
                            <path d="M44,29.5 C44,29.7761943 43.7761943,30 43.5,30 C43.2240064,30 43,29.7761943 43,29.5 C43,29.2238057 43.2240064,29 43.5,29 C43.7761943,29 44,29.2238057 44,29.5" id="Fill-27" fill="#0099D5"></path>
                            <path d="M63,18 L42,18 L42,17.1032961 C42,16.4940008 42.3940293,16 42.8805124,16 L62.1194876,16 C62.6057506,16 63,16.4940008 63,17.1032961 L63,18 Z" id="Fill-29" fill="#977BF4"></path>
                            <path d="M62.1194969,31 L42.8805031,31 C42.3942453,31 42,30.5810386 42,30.0642962 L42,17 L63,17 L63,30.0642962 C63,30.5810386 62.6057547,31 62.1194969,31" id="Fill-31" fill="#EBECF1"></path>
                            <polygon id="Fill-33" fill="#977BF4" points="44 28 46 28 46 24 44 24"></polygon>
                            <polygon id="Fill-35" fill="#977BF4" points="44 27 46 27 46 24 44 24"></polygon>
                            <polygon id="Fill-36" fill="#977BF4" points="49 28 51 28 51 23 49 23"></polygon>
                            <polygon id="Fill-37" fill="#977BF4" points="49 25 51 25 51 23 49 23"></polygon>
                            <polygon id="Fill-38" fill="#977BF4" points="53 28 55 28 55 21 53 21"></polygon>
                            <polygon id="Fill-39" fill="#977BF4" points="53 25 55 25 55 21 53 21"></polygon>
                            <polygon id="Fill-40" fill="#977BF4" points="58 28 60 28 60 19 58 19"></polygon>
                            <polygon id="Fill-41" fill="#977BF4" points="58 24 60 24 60 19 58 19"></polygon>
                            <path d="M13.964332,34.128517 L11.2954628,34.9887058 C11.1202095,35.0452884 10.9548638,34.8797236 11.0112267,34.7046916 L11.8714207,32.0356186 C12.4119317,30.3588339 13.34346,28.8348445 14.5891671,27.589145 C15.8348743,26.3434455 17.358873,25.411923 19.035668,24.8714153 L21.7045372,24.0112266 C21.8797905,23.9548641 22.0451362,24.1202088 21.9887733,24.295461 L21.1285793,26.9643138 C20.5880683,28.6410984 19.65654,30.165308 18.4108329,31.4107873 C17.1651257,32.6564868 15.641127,33.5880094 13.964332,34.128517" id="Fill-42" fill="#6CC7B9"></path>
                            <path d="M11.8689967,32.4444504 L10.6858528,34.8802514 C10.6082529,35.0399162 10.3917471,35.0399162 10.3141472,34.8802514 L9.1310033,32.4444504 C8.38759216,30.9142044 8,29.219351 8,27.5 C8,25.7804341 8.38759216,24.0857956 9.1310033,22.5555496 L10.3141472,20.1197486 C10.3917471,19.9600838 10.6082529,19.9600838 10.6858528,20.1197486 L11.8689967,22.5555496 C12.6122042,24.0857956 13,25.7804341 13,27.5 C13,29.219351 12.6122042,30.9142044 11.8689967,32.4444504" id="Fill-43" fill="#56ADA0"></path>
                            <path d="M10.128517,33.035668 L10.9887058,35.7045372 C11.0452884,35.8797905 10.8797236,36.0451362 10.7046916,35.9887733 L8.03561856,35.1285793 C6.35883394,34.5880683 4.83484455,33.65654 3.58914504,32.4108329 C2.34344554,31.1651257 1.41192299,29.641127 0.871415341,27.964332 L0.011226589,25.2954628 C-0.0451359195,25.1202095 0.120208783,24.9548638 0.295460958,25.0112267 L2.9643138,25.8714207 C4.64109842,26.4119317 6.16530798,27.34346 7.41078732,28.5891671 C8.65648682,29.8348743 9.58800937,31.358873 10.128517,33.035668" id="Fill-44" fill="#479B8E"></path>
                            <path d="M13.3888333,42 L8.61116669,42 C6.06441827,42 4,39.8948945 4,37.2979526 L4,34 L18,34 L18,37.2979526 C18,39.8948945 15.9355817,42 13.3888333,42" id="Fill-45" fill="#977BF4"></path>
                            <path d="M11,34 L11,42 L13.3888333,42 C15.9355817,42 18,39.8948945 18,37.2979526 L18,34 L11,34 Z" id="Fill-46" fill="#6B4BD6"></path>
                            <path d="M12.3105442,35.2775728 L12.3105442,32.7226615 C12.3105442,32.0287003 12.8028955,31.4659404 13.4102859,31.4659404 L16,31.4659404 L16,30 L13.1994832,30 C11.9847025,30 11,31.1252855 11,32.513208 L11,35.4870263 C11,36.8749487 11.9847025,38 13.1994832,38 L16,38 L16,36.5340596 L13.4102859,36.5340596 C12.8028955,36.5340596 12.3105442,35.971534 12.3105442,35.2775728" id="Fill-47" fill="#D2D4DF"></path>
                            <path d="M24.0990995,42 L16.9009005,42 C15.8511723,42 15,41.1452673 15,40.0911481 L15,30 L26,30 L26,40.0911481 C26,41.1452673 25.1490459,42 24.0990995,42" id="Fill-48" fill="#EBECF1"></path>
                            <polygon id="Fill-49" fill="#FFFFFF" points="23 36 24 36 24 30 23 30"></polygon>
                            <polygon id="Fill-50" fill="#977BF4" points="22 37 24 37 24 34 22 34"></polygon>
                            <path d="M31.7286676,0 C31.8785902,0 32,0.108607974 32,0.242722367 L32,7.94483788 C32,7.9900912 31.9422844,8.01600901 31.9015845,7.98906271 L30.1620678,6.8279036 L21.2713324,6.8279036 C21.1216397,6.8279036 21,6.71929562 21,6.58518123 L21,0.242722367 C21,0.108607974 21.1216397,0 21.2713324,0 L31.7286676,0 Z" id="Fill-51" fill="url(#linearGradient-1)"></path>
                            <path d="M27.6327391,2.00009222 C26.9802742,2.00696532 26.5473555,2.57648469 26.4999394,2.65161479 C26.4525234,2.57648469 26.0198517,2.00696532 25.3673867,2.00009222 C24.0911041,1.98658302 23.4388861,3.45979667 24.6176201,4.77587701 C25.3367639,5.57884481 26.4999394,6 26.4999394,6 C26.4999394,6 27.663115,5.57884481 28.3822588,4.77587701 C29.5612398,3.45979667 28.9087748,1.98658302 27.6327391,2.00009222" id="Fill-52" fill="#FFFFFF"></path>
                            <path d="M81.5,26 C81.2239544,26 81,25.8586513 81,25.6844252 L81,24.3155748 C81,24.1413487 81.2239544,24 81.5,24 C81.7760456,24 82,24.1413487 82,24.3155748 L82,25.6844252 C82,25.8586513 81.7760456,26 81.5,26" id="Fill-53" fill="#977BF4"></path>
                            <path d="M77.8608664,27.9354034 C77.7109557,28.0460154 77.5018508,28.0110334 77.3938092,27.8575562 L75.0630955,24.5428902 C74.9550539,24.3891665 74.989223,24.1750866 75.1391336,24.0644746 C75.2892849,23.9541089 75.4983898,23.9888445 75.6061908,24.1425682 L77.9369045,27.4572342 C78.0449461,27.6107115 78.010777,27.8247913 77.8608664,27.9354034" id="Fill-54" fill="#6B4BD6"></path>
                            <path d="M76.2277119,40.9761308 C76.0453441,40.90481 75.9537054,40.6955089 76.0232871,40.5083499 L77.3392008,38 L78,38.2582468 L76.6840863,40.7665967 C76.6145046,40.9535226 76.4100798,41.0474517 76.2277119,40.9761308" id="Fill-55" fill="#8A96A0"></path>
                            <path d="M86.7792649,40.9761308 C86.9560452,40.90481 87.0448762,40.6955089 86.9774264,40.5083499 L85.640553,38 L85,38.2582468 L86.3368734,40.7665967 C86.4043232,40.9535226 86.6024846,41.0474517 86.7792649,40.9761308" id="Fill-56" fill="#8A96A0"></path>
                            <path d="M74.544048,29 L74.6554181,28.8287724 C75.7336565,27.1698255 77.2617839,25.970571 78.9986582,25.4207473 L79,25.4167807 C78.1548528,23.9336893 76.4177868,23.5561951 75.1628131,24.5646091 C73.9078395,25.5728028 73.6191591,27.5779511 74.5402143,29 L74.544048,29 Z" id="Fill-57" fill="#977BF4"></path>
                            <path d="M86.1391336,27.9354034 C86.2890443,28.0460154 86.4981492,28.0110334 86.6061908,27.8575562 L88.9369045,24.5428902 C89.0449461,24.3891665 89.010777,24.1750866 88.8608664,24.0644746 C88.7107151,23.9541089 88.5016102,23.9888445 88.3938092,24.1425682 L86.0630955,27.4572342 C85.9550539,27.6107115 85.989223,27.8247913 86.1391336,27.9354034" id="Fill-58" fill="#6B4BD6"></path>
                            <path d="M88.455952,29 L88.3445819,28.8287724 C87.2663435,27.1698255 85.7382161,25.970571 84.0013418,25.4207473 L84,25.4167807 C84.8451472,23.9336893 86.5822132,23.5561951 87.8371869,24.5646091 C89.0921605,25.5728028 89.3808409,27.5779511 88.4597857,29 L88.455952,29 Z" id="Fill-59" fill="#977BF4"></path>
                            <path d="M89,32.5 C89,36.6421141 85.6420662,40 81.5001072,40 C77.3579338,40 74,36.6421141 74,32.5 C74,28.3578859 77.3579338,25 81.5001072,25 C85.6420662,25 89,28.3578859 89,32.5" id="Fill-60" fill="#637280"></path>
                            <path d="M89,33 C89,36.8660421 85.8660931,40 82.0001139,40 C78.1341346,40 75,36.8660421 75,33 C75,29.1339579 78.1341346,26 82.0001139,26 C85.8660931,26 89,29.1339579 89,33" id="Fill-61" fill="#EBECF1"></path>
                            <path d="M81.5091753,27.2405192 L81.0015219,32.4154936 C80.9863248,32.5677636 81.0854674,32.7168238 81.2754304,32.827365 C81.6687441,33.0564722 82.3309007,33.0580772 82.7245764,32.82897 C82.9159867,32.7174256 83.0151292,32.5669612 82.998123,32.4132868 L82.4249776,27.2387136 C82.3895179,26.9193277 81.5406548,26.9209326 81.5091753,27.2405192" id="Fill-62" fill="#977BF4"></path>
                            <path d="M77.2623395,34.4834228 L81.3665363,34.998684 C81.5322831,35.0127958 81.6938862,34.9129277 81.8138346,34.7225995 C82.0620187,34.3274694 82.0624549,33.6653008 81.8127442,33.2730654 C81.6910511,33.0823754 81.527049,32.9843165 81.3602117,33.0020467 L77.258632,33.5676038 C76.911436,33.6048734 76.9149254,34.4541137 77.2623395,34.4834228" id="Fill-63" fill="#977BF4"></path>
                        </g>
                    </g>
                </g>
            </g>
        </g>
    </g>
</svg>