<?xml version="1.0" encoding="UTF-8"?>
<svg width="16px" height="18px" viewBox="0 0 16 18" version="1.1" xmlns="http://www.w3.org/2000/svg" xmlns:xlink="http://www.w3.org/1999/xlink">
    <!-- Generator: sketchtool 50.2 (55047) - http://www.bohemiancoding.com/sketch -->
    <title>9FA45F14-DFC2-4F85-B1A6-0391436E4B38</title>
    <desc>Created with sketchtool.</desc>
    <defs></defs>
    <g id="-Symbols" stroke="none" stroke-width="1" fill="none" fill-rule="evenodd">
        <g id="Menu" transform="translate(-40.000000, -184.000000)" fill="#96a2b4" stroke="#96a2b4" stroke-width="0.5">
            <g id="Group-33" transform="translate(0.000000, 90.000000)">
                <g id="Group-21" transform="translate(41.000000, 95.000000)">
                    <path d="M10.4961479,12.2830189 C10.4961479,12.5328302 10.288906,12.7358491 10.0338983,12.7358491 L7.78736518,12.7358491 C7.53235747,12.7358491 7.32588598,12.5328302 7.32588598,12.2830189 C7.32588598,12.0332075 7.53235747,11.8301887 7.78736518,11.8301887 L10.0338983,11.8301887 C10.288906,11.8301887 10.4961479,12.0332075 10.4961479,12.2830189 Z M13.0762712,13.2830189 C13.0762712,14.2815094 12.2465331,15.0943396 11.2265023,15.0943396 L4.91679507,15.0943396 L4.91679507,0.905660377 L11.2265023,0.905660377 C12.2465331,0.905660377 13.0762712,1.71849057 13.0762712,2.71698113 L13.0762712,13.2830189 Z M3.99306626,15.0943396 L1.67334361,15.0943396 L1.67334361,13.8301887 L2.00308166,13.8301887 C2.25808937,13.8301887 2.46456086,13.6271698 2.46456086,13.3773585 C2.46456086,13.1275472 2.25808937,12.9245283 2.00308166,12.9245283 L1.67334361,12.9245283 L1.67334361,11.1411321 L2.00308166,11.1411321 C2.25808937,11.1411321 2.46456086,10.9388679 2.46456086,10.6883019 C2.46456086,10.4384906 2.25808937,10.2362264 2.00308166,10.2362264 L1.67334361,10.2362264 L1.67334361,8.45283019 L2.00308166,8.45283019 C2.25808937,8.45283019 2.46456086,8.24981132 2.46456086,8 C2.46456086,7.75018868 2.25808937,7.54716981 2.00308166,7.54716981 L1.67334361,7.54716981 L1.67334361,5.76377358 L2.00308166,5.76377358 C2.25808937,5.76377358 2.46456086,5.56150943 2.46456086,5.3109434 C2.46456086,5.06113208 2.25808937,4.85886792 2.00308166,4.85886792 L1.67334361,4.85886792 L1.67334361,3.0754717 L2.00308166,3.0754717 C2.25808937,3.0754717 2.46456086,2.87245283 2.46456086,2.62264151 C2.46456086,2.37283019 2.25808937,2.16981132 2.00308166,2.16981132 L1.67334361,2.16981132 L1.67334361,0.905660377 L3.99306626,0.905660377 L3.99306626,15.0943396 Z M11.2265023,0 L1.21109399,0 C0.956086287,0 0.749614792,0.203018868 0.749614792,0.452830189 L0.749614792,2.16981132 L0.462249615,2.16981132 C0.207241911,2.16981132 0,2.37283019 0,2.62264151 C0,2.87245283 0.207241911,3.0754717 0.462249615,3.0754717 L0.749614792,3.0754717 L0.749614792,4.85886792 L0.462249615,4.85886792 C0.207241911,4.85886792 0,5.06113208 0,5.3109434 C0,5.56150943 0.207241911,5.76377358 0.462249615,5.76377358 L0.749614792,5.76377358 L0.749614792,7.54716981 L0.462249615,7.54716981 C0.207241911,7.54716981 0,7.75018868 0,8 C0,8.24981132 0.207241911,8.45283019 0.462249615,8.45283019 L0.749614792,8.45283019 L0.749614792,10.2362264 L0.462249615,10.2362264 C0.207241911,10.2362264 0,10.4384906 0,10.6883019 C0,10.9388679 0.207241911,11.1411321 0.462249615,11.1411321 L0.749614792,11.1411321 L0.749614792,12.9245283 L0.462249615,12.9245283 C0.207241911,12.9245283 0,13.1275472 0,13.3773585 C0,13.6271698 0.207241911,13.8301887 0.462249615,13.8301887 L0.749614792,13.8301887 L0.749614792,15.5471698 C0.749614792,15.7969811 0.956086287,16 1.21109399,16 L11.2265023,16 C12.7565485,16 14,14.7811321 14,13.2830189 L14,2.71698113 C14,1.21886792 12.7565485,0 11.2265023,0 Z" id="File-folder-Copy"></path>
                </g>
            </g>
        </g>
    </g>
</svg>