<?xml version="1.0" encoding="UTF-8"?>
<svg width="17px" height="16px" viewBox="0 0 17 16" version="1.1" xmlns="http://www.w3.org/2000/svg" xmlns:xlink="http://www.w3.org/1999/xlink">
    <!-- Generator: sketchtool 50.2 (55047) - http://www.bohemiancoding.com/sketch -->
    <title>C9C28D93-5CEA-4E45-B272-05216BC2E7A3</title>
    <desc>Created with sketchtool.</desc>
    <defs></defs>
    <g id="-Symbols" stroke="none" stroke-width="1" fill="none" fill-rule="evenodd">
        <g id="Menu" transform="translate(-40.000000, -283.000000)" fill="#96A2B4" stroke="#96A2B4" stroke-width="0.5">
            <g id="Group-33" transform="translate(0.000000, 90.000000)">
                <g id="Group-32" transform="translate(41.000000, 193.000000)">
                    <path d="M9.12311321,14.4425708 C8.86273585,13.4003538 8.34976415,12.2795991 7.02169811,11.8225236 C6.84693396,11.7623821 6.66721698,11.7100236 6.48891509,11.6569575 C5.79198113,11.4524764 5.19056604,11.2755896 4.875,10.6946934 C4.50212264,9.9942217 4.85518868,9.48832547 5.4615566,8.72063679 C5.60023585,8.54516509 5.73820755,8.3696934 5.8620283,8.19139151 C6.44929245,7.33667453 6.63679245,6.42747642 6.40259434,5.55931604 C6.08066038,4.39398585 4.9634434,3.6178066 3.9990566,3.36521226 C3.65518868,3.27464623 3.28726415,3.22158019 2.90801887,3.20106132 C4.10306604,2.05695755 5.71910377,1.34941038 7.50070755,1.34941038 C9.15566038,1.34941038 10.6676887,1.96073113 11.8330189,2.96474057 C11.2683962,3.36662736 10.7915094,3.84563679 10.4433962,4.37629717 C9.78396226,5.37464623 9.68915094,6.60860849 10.1964623,7.59775943 C10.6599057,8.50271226 11.5457547,9.04681604 12.6268868,9.08926887 C12.832783,9.09705189 13.0408019,9.09492925 13.2481132,9.0928066 C13.5268868,9.08926887 13.7915094,9.09068396 14.0504717,9.11544811 C13.6082547,11.7170991 11.6540094,13.8043632 9.12311321,14.4425708 M0.849764151,8.00035377 C0.849764151,6.52441038 1.33867925,5.16308962 2.15518868,4.05860849 C2.72830189,4.01686321 3.2879717,4.0571934 3.78466981,4.18667453 C4.51273585,4.37700472 5.35188679,4.94587264 5.58396226,5.78290094 C5.75235849,6.40908019 5.61084906,7.05790094 5.1629717,7.70884434 C5.0504717,7.87158019 4.92311321,8.0321934 4.79504717,8.1942217 C4.20636792,8.93997642 3.47334906,9.86757075 4.12712264,11.0965802 C4.6125,11.9909198 5.48207547,12.2463443 6.2490566,12.4720519 C6.41603774,12.5208726 6.58372642,12.5704009 6.74646226,12.6255896 C7.52193396,12.8930425 7.99457547,13.4951651 8.28396226,14.6003538 C8.02641509,14.6307783 7.76603774,14.6505896 7.50070755,14.6505896 C3.83278302,14.6505896 0.849764151,11.6675708 0.849764151,8.00035377 M14.1375,8.27134434 C13.8311321,8.24162736 13.5290094,8.24021226 13.2382075,8.24445755 C13.0464623,8.24728774 12.8540094,8.24870283 12.6608491,8.24091981 C11.8832547,8.20978774 11.2761792,7.84398585 10.9514151,7.21002358 C10.5849057,6.4932783 10.6606132,5.58691038 11.153066,4.84398585 C11.4636792,4.36992925 11.9207547,3.93054245 12.4507075,3.57393868 C13.5042453,4.75129717 14.1516509,6.29941038 14.1516509,8.00035377 C14.1516509,8.09162736 14.1417453,8.1807783 14.1375,8.27134434 M15,8.00035377 C15,3.86474057 11.6356132,0.499646226 7.50070755,0.499646226 C5.11556604,0.499646226 2.99150943,1.62252358 1.61745283,3.36308962 C1.6004717,3.3807783 1.58773585,3.39988208 1.57429245,3.42040094 C0.591509434,4.68832547 0,6.27535377 0,8.00035377 C0,12.1352594 3.36509434,15.5003538 7.50070755,15.5003538 C7.94433962,15.5003538 8.37665094,15.4536557 8.79976415,15.3793632 C8.79976415,15.3793632 8.8004717,15.3800708 8.80117925,15.3800708 C8.82877358,15.3800708 8.85707547,15.3772406 8.88537736,15.3715802 C8.89174528,15.3701651 8.89740566,15.3652123 8.90377358,15.3637972 C12.3700472,14.7036557 15,11.6555425 15,8.00035377" id="Globe"></path>
                </g>
            </g>
        </g>
    </g>
</svg>