<?xml version="1.0" encoding="UTF-8"?>
<svg width="74px" height="103px" viewBox="0 0 74 103" version="1.1" xmlns="http://www.w3.org/2000/svg" xmlns:xlink="http://www.w3.org/1999/xlink">
    <!-- Generator: sketchtool 50.2 (55047) - http://www.bohemiancoding.com/sketch -->
    <title>3368CDEC-0A79-485E-BB8E-C1E91E0BA3CD</title>
    <desc>Created with sketchtool.</desc>
    <defs></defs>
    <g id="Админка---Back-end" stroke="none" stroke-width="1" fill="none" fill-rule="evenodd">
        <g id="Главная-Админка" transform="translate(-445.000000, -698.000000)">
            <g id="Group-11" transform="translate(445.000000, 698.000000)">
                <g id="Icon">
                    <path d="M43.694038,32.4469023 C43.5426949,32.039499 43.5164883,31.6001553 43.6121424,31.1764559 C48.347019,10.2496151 34.1869404,0.501920863 33.5147412,0.0195553583 L33.5127757,0 C33.5127757,0 33.5081896,0.00260738111 33.4996724,0.0084739886 C33.4918104,0.00260738111 33.4872243,0 33.4872243,0 L33.4846036,0.0195553583 C29.4618912,2.90853363 19.4051103,13.6059665 23.3865473,31.1758041 C23.4828565,31.6001553 23.4566499,32.0401509 23.3053068,32.4475542 C21.7512557,36.6350083 20.1402053,42.6150368 20,47 C22.0650797,46.7288324 26.047827,45.5098817 27.9654946,44.425863 L39.0338502,44.425863 C40.9515178,45.5098817 44.9349203,46.7288324 47,47 C46.8597947,42.6150368 45.2480891,36.6343564 43.694038,32.4469023" id="Fill-3" fill="#66BDB0"></path>
                    <polygon id="Fill-5" fill="#53A99C" points="28 45 39 45 38.1199153 48 28.8800847 48"></polygon>
                    <path d="M29.2720495,48 C29.2720495,48 29.2720495,58.0511157 19,64.5131033 L19,74.803624 L62,76 L62,67.3846653 L51.0110248,64.9919132 C51.0110248,64.9919132 38.4878155,62.5796974 37.1556419,48 L29.2720495,48 Z" id="Fill-7" fill="#9074ED"></path>
                    <path d="M33,0.00912583388 C32.9924294,0.00325922638 32.9880132,0 32.9880132,0 L32.9854897,0.0202072036 C32.3325245,0.507135625 18.7193051,10.9503488 23.3298069,31.4730455 C23.3298069,31.4730455 23.3815394,31.7090135 23.4092983,31.8283012 C21.8465981,36.0281403 20.1419489,42.3947131 20,47 C21.988547,46.7294842 25.824323,45.5098817 27.6709211,44.4265148 L33,44.4265148 L33,0.00912583388 Z" id="Fill-9" fill="#53A99C"></path>
                    <path d="M41,19.5 C41,23.6422843 37.6421363,27 33.4996695,27 C29.3578637,27 26,23.6422843 26,19.5 C26,15.3577157 29.3578637,12 33.4996695,12 C37.6421363,12 41,15.3577157 41,19.5" id="Fill-11" fill="#428F83"></path>
                    <path d="M39,19.5 C39,22.5377199 36.5377199,25 33.5,25 C30.4622801,25 28,22.5377199 28,19.5 C28,16.4622801 30.4622801,14 33.5,14 C36.5377199,14 39,16.4622801 39,19.5" id="Fill-13" fill="#E5EEEC"></path>
                    <path d="M28.5572669,22 L38,16.7228301 C37.649958,16.0525164 37.1788015,15.4690007 36.6075329,15 L28,19.8103574 C28.0602072,20.5900802 28.2219266,21.3435449 28.5572669,22" id="Fill-15" fill="#FFFFFF"></path>
                    <path d="M68.578956,69.9902325 C68.5822092,69.892558 68.586113,69.7948835 68.586113,69.6965399 C68.586113,64.3411651 64.3641362,60 59.1557952,60 C55.1823614,60 51.7847403,62.5281651 50.3962831,66.1046589 C49.8920402,65.9829003 49.3676277,65.9166689 48.8275998,65.9166689 C45.0467542,65.9166689 41.9816081,69.0703524 41.9816081,72.957933 C40.7447491,71.698199 39.0439867,70.9221547 37.1656006,70.9221547 C36.0413016,70.9221547 34.9814156,71.2024673 34.0458011,71.695523 C32.9650948,69.2703845 30.5850684,67.5851642 27.8205161,67.5851642 C25.6096551,67.5851642 23.6440838,68.6642672 22.3929108,70.3367765 C20.9901397,65.7808611 16.8462391,62.4786588 11.9515047,62.4786588 C5.9031927,62.4786588 1,67.5202708 1,73.7393294 C1,73.850384 1.00455445,73.9601006 1.00780763,74.0698172 C1.14313991,74.0644652 1.27586965,74.0490781 1.41250321,74.0490781 C7.25521425,74.0490781 11.9911935,78.9187562 11.9911935,84.9264096 C11.9911935,84.9504937 11.9879403,84.9739089 11.9879403,84.998662 C16.4473993,84.9832749 20.2776933,82.2269796 21.9712987,78.2832027 C23.1730233,80.3096149 25.343545,81.6630094 27.8205161,81.6630094 C28.9448151,81.6630094 30.0047011,81.3826969 30.9403156,80.8889721 C32.0216726,83.3141106 34.4010483,85 37.1656006,85 C40.9464462,85 44.0109417,81.8463165 44.0109417,77.9587359 C45.2484513,79.2184699 46.9492137,79.9951832 48.8275998,79.9951832 C50.8198471,79.9951832 52.6123493,79.1194573 53.8635222,77.7225775 C55.3606356,78.7682304 57.1661504,79.3823758 59.1109014,79.3917418 C60.262527,81.6114962 62.5364998,83.1227756 65.1540083,83.1227756 C68.9348539,83.1227756 72,79.971768 72,76.0841874 C72,73.4797559 70.6232543,71.2078193 68.578956,69.9902325" id="Fill-19" fill="#EBECF1"></path>
                    <g id="Group-34" transform="translate(0.000000, 61.000000)" fill="#FFFFFF">
                        <path d="M22.6884655,13.6792 C22.6884655,20.0072 17.6492619,25.1372 11.4332619,25.1372 C5.21660708,25.1372 0.17740354,20.0072 0.17740354,13.6792 C0.17740354,7.3512 5.21660708,2.2212 11.4332619,2.2212 C17.6492619,2.2212 22.6884655,7.3512 22.6884655,13.6792" id="Fill-22"></path>
                        <path d="M36.361308,13.6792 C36.361308,17.3938667 33.4032726,20.4058667 29.7536973,20.4058667 C26.104777,20.4058667 23.1467416,17.3938667 23.1467416,13.6792 C23.1467416,9.96453333 26.104777,6.95253333 29.7536973,6.95253333 C33.4032726,6.95253333 36.361308,9.96453333 36.361308,13.6792" id="Fill-24"></path>
                        <path d="M44.2084513,18.2242667 C44.2084513,22.4396 40.8516018,25.8562667 36.711531,25.8562667 C32.5708053,25.8562667 29.2139558,22.4396 29.2139558,18.2242667 C29.2139558,14.0089333 32.5708053,10.5922667 36.711531,10.5922667 C40.8516018,10.5922667 44.2084513,14.0089333 44.2084513,18.2242667" id="Fill-26"></path>
                        <path d="M60.4345558,12.0125333 C60.4345558,16.2278667 57.0777062,19.6445333 52.9376354,19.6445333 C48.7969097,19.6445333 45.4400602,16.2278667 45.4400602,12.0125333 C45.4400602,7.7972 48.7969097,4.38053333 52.9376354,4.38053333 C57.0777062,4.38053333 60.4345558,7.7972 60.4345558,12.0125333" id="Fill-28"></path>
                        <path d="M69.4143575,10.2102667 C69.4143575,15.7542667 64.9998973,20.2489333 59.5533664,20.2489333 C54.1074903,20.2489333 49.6930301,15.7542667 49.6930301,10.2102667 C49.6930301,4.66626667 54.1074903,0.1716 59.5533664,0.1716 C64.9998973,0.1716 69.4143575,4.66626667 69.4143575,10.2102667" id="Fill-30"></path>
                        <path d="M73.8892619,17.8425333 C73.8892619,23.3865333 69.4748018,27.8812 64.0282708,27.8812 C58.5823947,27.8812 54.1679345,23.3865333 54.1679345,17.8425333 C54.1679345,12.2985333 58.5823947,7.80386667 64.0282708,7.80386667 C69.4748018,7.80386667 73.8892619,12.2985333 73.8892619,17.8425333" id="Fill-32"></path>
                    </g>
                </g>
                <text id="03" font-family="GothamPro-Medium, Gotham Pro" font-size="24" font-weight="400" fill="#CBD4DB">
                    <tspan x="20" y="102">03</tspan>
                </text>
            </g>
        </g>
    </g>
</svg>