<?xml version="1.0" encoding="UTF-8"?>
<svg width="13px" height="12px" viewBox="0 0 13 12" version="1.1" xmlns="http://www.w3.org/2000/svg" xmlns:xlink="http://www.w3.org/1999/xlink">
    <!-- Generator: sketchtool 50.2 (55047) - http://www.bohemiancoding.com/sketch -->
    <title>75EF1934-D7B3-481B-B78F-6579C0089064</title>
    <desc>Created with sketchtool.</desc>
    <defs></defs>
    <g id="Pages" stroke="none" stroke-width="1" fill="none" fill-rule="evenodd">
        <g id="heart" transform="translate(-1285.000000, -282.000000)" fill="#C7CDD6" fill-rule="nonzero">
            <g id="Group-38" transform="translate(280.000000, 177.000000)">
                <g id="Group-13" transform="translate(1005.000000, 105.000000)">
                    <g>
                        <path d="M11.9687042,1.17435598 C11.2957535,0.417075423 10.3723679,0 9.36844634,0 C8.61803437,0 7.93080138,0.246149624 7.32579042,0.731554207 C7.02050781,0.976571866 6.74388886,1.2763352 6.5,1.62621343 C6.25621034,1.2764381 5.97949219,0.976571866 5.67411041,0.731554207 C5.06919862,0.246149624 4.38196563,0 3.63155366,0 C2.62763213,0 1.70414735,0.417075423 1.03119659,1.17435598 C0.366279596,1.92278667 0,2.94525434 0,4.0535451 C0,5.19425102 0.409721381,6.23843173 1.28936768,7.33972489 C2.0762787,8.32483791 3.2072525,9.32487223 4.51695253,10.4828663 C4.96416474,10.8783316 5.47108458,11.3265873 5.99744415,11.8040682 C6.1364975,11.930436 6.31492616,12 6.5,12 C6.68497466,12 6.8635025,11.930436 7.00235748,11.804274 C7.52871704,11.3266902 8.03593446,10.8782287 8.48334503,10.4825575 C9.79284668,9.32476933 10.9238205,8.32483791 11.7107315,7.33962199 C12.5903778,6.23843173 13,5.19425102 13,4.0534422 C13,2.94525434 12.6337204,1.92278667 11.9687042,1.17435598 Z" id="Shape"></path>
                    </g>
                </g>
            </g>
        </g>
    </g>
</svg>