<?xml version="1.0" encoding="UTF-8"?>
<svg width="17px" height="16px" viewBox="0 0 17 16" version="1.1" xmlns="http://www.w3.org/2000/svg" xmlns:xlink="http://www.w3.org/1999/xlink">
    <!-- Generator: sketchtool 50.2 (55047) - http://www.bohemiancoding.com/sketch -->
    <title>C4FE8A07-347F-4E5C-8191-B9F1FBBB35E1</title>
    <desc>Created with sketchtool.</desc>
    <defs></defs>
    <g id="-Symbols" stroke="none" stroke-width="1" fill="none" fill-rule="evenodd">
        <g id="Menu" transform="translate(-39.000000, -89.000000)" fill="#96A2B4" stroke="#96A2B4" stroke-width="0.5">
            <g id="Group-33" transform="translate(0.000000, 90.000000)">
                <g id="Group-17" transform="translate(40.000000, 0.000000)">
                    <path d="M7.5,5.42499902 C8.28116892,5.42499902 8.91516109,6.07885169 8.91516109,6.88449159 C8.91516109,7.69086123 8.28116892,8.34398415 7.5,8.34398415 C6.71883108,8.34398415 6.08483891,7.69086123 6.08483891,6.88449159 C6.08483891,6.07885169 6.71883108,5.42499902 7.5,5.42499902 Z M12.2478655,11.8180586 C12.2478655,12.5383182 11.6442993,13.1243045 10.9034624,13.1243045 L3.82765696,13.1243045 C3.08611255,13.1243045 2.48254635,12.5383182 2.48254635,11.8180586 L2.48254635,5.91805992 L7.29975471,0.949947224 C7.41013727,0.836106804 7.58986273,0.836106804 7.70024529,0.949947224 L12.2478655,5.64075633 L12.2478655,11.8180586 Z M8.3002736,0.331122376 C7.87289495,-0.110374125 7.12710505,-0.110374125 6.6997264,0.331122376 L0.124180386,7.11265458 C-0.041393462,7.28341521 -0.041393462,7.5607188 0.124180386,7.73220918 C0.290461814,7.90296981 0.557927261,7.90296981 0.724208689,7.73220918 L1.63415727,6.79375546 L1.63415727,11.8180586 C1.63415727,13.0214102 2.61840181,14 3.82765696,14 L10.9034624,14 C12.1127176,14 13.0962545,13.0214102 13.0962545,11.8180586 L13.0962545,6.51572212 L14.2757913,7.73220918 C14.3585782,7.81758949 14.4675456,7.86064452 14.5758055,7.86064452 C14.6840653,7.86064452 14.7930327,7.81758949 14.8758196,7.73220918 C15.0413935,7.5607188 15.0413935,7.28341521 14.8758196,7.11265458 L8.3002736,0.331122376 Z" id="House"></path>
                </g>
            </g>
        </g>
    </g>
</svg>