<?xml version="1.0" encoding="UTF-8"?>
<svg width="80px" height="98px" viewBox="0 0 80 98" version="1.1" xmlns="http://www.w3.org/2000/svg" xmlns:xlink="http://www.w3.org/1999/xlink">
    <!-- Generator: sketchtool 50.2 (55047) - http://www.bohemiancoding.com/sketch -->
    <title>96401223-A402-4DE4-B318-0B3F5E1A5CBE</title>
    <desc>Created with sketchtool.</desc>
    <defs></defs>
    <g id="Админка---Back-end" stroke="none" stroke-width="1" fill="none" fill-rule="evenodd">
        <g id="Главная-Админка" transform="translate(-444.000000, -328.000000)">
            <g id="Group-18" transform="translate(290.000000, 288.000000)">
                <g id="Icon" transform="translate(154.000000, 40.000000)">
                    <polygon id="Fill-3" fill="#66BDB0" points="18.7095 57.1546 54.1595 45.6476 41.2445 5.8596 31.5445 0.4526 3.2815 9.6266"></polygon>
                    <polygon id="Fill-4" fill="#428F83" points="34.057 8.1926 31.544 0.4526 41.244 5.8596"></polygon>
                    <polygon id="Fill-5" fill="#9074ED" points="24.4143 59.0182 59.2563 72.2512 74.1093 33.1452 69.9343 22.8542 42.1563 12.3042"></polygon>
                    <polygon id="Fill-6" fill="#6F50D7" points="67.0452 30.4625 69.9342 22.8545 74.1092 33.1455"></polygon>
                    <path d="M48.3562,49.4985 L50.8292,42.9885 L51.8152,43.2855 C56.0652,44.5645 60.6152,42.5735 62.5602,38.5845 L63.1792,37.3155 L61.8402,36.9125 C58.0422,35.7685 54.0092,37.2435 51.8052,40.4165 L53.8002,35.1645 L53.1152,34.9045 L51.1202,40.1565 C51.1772,39.6775 51.1962,39.1985 51.1772,38.7245 C51.1492,38.0145 51.0372,37.3145 50.8472,36.6395 C50.7212,36.1895 50.5602,35.7505 50.3672,35.3265 C50.0772,34.6895 49.7142,34.0875 49.2832,33.5315 C48.9962,33.1615 48.6792,32.8125 48.3342,32.4875 C47.6442,31.8395 46.8422,31.2905 45.9422,30.8735 L44.6732,30.2865 L44.2932,31.6475 C44.1812,32.0475 44.0982,32.4505 44.0432,32.8535 C43.9692,33.3895 43.9442,33.9255 43.9662,34.4555 C43.9932,35.1185 44.0942,35.7705 44.2622,36.4035 C44.7322,38.1725 45.7342,39.7815 47.1572,40.9865 C47.2582,41.0725 47.3622,41.1565 47.4682,41.2385 C47.6802,41.4025 47.9002,41.5575 48.1282,41.7035 C48.4702,41.9225 48.8302,42.1205 49.2082,42.2955 L50.1432,42.7285 L47.6712,49.2385 C47.7282,48.7585 47.7462,48.2805 47.7282,47.8065 C47.6992,47.0955 47.5872,46.3965 47.3982,45.7205 C47.2722,45.2705 47.1112,44.8315 46.9182,44.4075 C46.6282,43.7715 46.2642,43.1685 45.8342,42.6135 C45.5472,42.2435 45.2302,41.8935 44.8852,41.5695 C44.1952,40.9205 43.3922,40.3725 42.4922,39.9555 L41.2242,39.3685 L40.8442,40.7285 C40.7322,41.1295 40.6492,41.5325 40.5932,41.9345 C40.5192,42.4715 40.4952,43.0075 40.5172,43.5375 C40.5332,43.9345 40.5762,44.3285 40.6442,44.7165 C41.0052,46.7865 42.0822,48.6905 43.7072,50.0685 C43.8092,50.1545 43.9132,50.2385 44.0192,50.3205 C44.5482,50.7295 45.1302,51.0855 45.7592,51.3765 L46.6942,51.8095 L44.0432,58.7905 L44.7282,59.0505 L47.3792,52.0695 L48.3662,52.3665 C52.6162,53.6465 57.1662,51.6555 59.1102,47.6665 L59.7302,46.3965 L58.3912,45.9935 C54.5922,44.8505 50.5592,46.3245 48.3562,49.4985" id="Fill-7" fill="#6F50D7"></path>
                    <path d="M55.5532,29.5169 C56.6252,29.9239 57.8242,29.3849 58.2312,28.3129 C58.6382,27.2409 58.0992,26.0419 57.0272,25.6349 C55.9552,25.2279 54.7562,25.7669 54.3492,26.8389 C53.9422,27.9109 54.4812,29.1099 55.5532,29.5169" id="Fill-9" fill="#6F50D7"></path>
                    <path d="M55.3322,32.1141 C54.9252,33.1861 55.4642,34.3851 56.5362,34.7921 C57.6082,35.1991 58.8062,34.6601 59.2142,33.5881 C59.6212,32.5161 59.0822,31.3171 58.0102,30.9101 C56.9382,30.5031 55.7392,31.0421 55.3322,32.1141" id="Fill-11" fill="#6F50D7"></path>
                    <path d="M51.3457,32.8208 C52.4177,33.2278 53.6167,32.6888 54.0237,31.6168 C54.4307,30.5448 53.8917,29.3458 52.8197,28.9388 C51.7477,28.5318 50.5487,29.0708 50.1417,30.1428 C49.7347,31.2148 50.2737,32.4138 51.3457,32.8208" id="Fill-13" fill="#6F50D7"></path>
                    <path d="M34.7111,45.1107 L26.7851,37.1907 L3.0141,37.1907 C1.5551,37.1907 0.3721,38.3737 0.3721,39.8327 L0.3721,95.3057 C0.3721,96.7647 1.5551,97.9467 3.0141,97.9467 L76.9861,97.9467 C78.4451,97.9467 79.6281,96.7647 79.6281,95.3057 L79.6281,47.7527 C79.6281,46.2937 78.4451,45.1107 76.9861,45.1107 L34.7111,45.1107 Z" id="Fill-15" fill="#EBECF1"></path>
                    <text id="01" font-family="GothamPro-Medium, Gotham Pro" font-size="24" font-weight="400" fill="#CBD4DB">
                        <tspan x="25" y="77">01</tspan>
                    </text>
                    <path d="M15.5594,21.1654 L18.4814,20.1744 C19.1544,19.9464 19.2414,19.7854 19.0494,19.2214 L18.8184,18.5394 C18.6264,17.9744 18.4604,17.9004 17.7874,18.1284 L14.8654,19.1194 L15.5594,21.1654 Z M20.2474,17.5654 L20.7754,19.1244 C21.1294,20.1664 20.7944,20.8124 19.6944,21.1854 L15.9924,22.4414 L16.6764,24.4574 C16.7194,24.5844 16.6584,24.6924 16.5224,24.7384 L15.3824,25.1254 C15.2354,25.1744 15.1414,25.1194 15.0984,24.9934 L12.9244,18.5834 C12.8814,18.4574 12.9224,18.3564 13.0694,18.3064 L18.1344,16.5874 C19.2354,16.2144 19.8934,16.5234 20.2474,17.5654 Z" id="Fill-17" fill="#439185"></path>
                    <path d="M24.188,20.7145 L26.798,19.8285 C27.675,19.5315 27.914,19.1465 27.663,18.4065 L26.902,16.1655 C26.655,15.4355 26.228,15.2645 25.351,15.5625 L22.741,16.4485 L24.188,20.7145 Z M25.541,14.0745 C26.876,13.6225 27.956,14.1145 28.392,15.3995 L29.311,18.1075 C29.747,19.3935 29.189,20.4405 27.855,20.8935 L23.258,22.4535 C23.112,22.5025 23.017,22.4485 22.974,22.3215 L20.799,15.9115 C20.757,15.7855 20.798,15.6845 20.944,15.6345 L25.541,14.0745 Z" id="Fill-19" fill="#439185"></path>
                    <path d="M31.4819,15.2422 L35.3299,13.9372 C35.4659,13.8902 35.5669,13.9322 35.6129,14.0692 L35.9039,14.9262 C35.9499,15.0622 35.8989,15.1672 35.7629,15.2132 L31.9149,16.5182 L32.7579,19.0022 C32.8009,19.1292 32.7399,19.2362 32.6029,19.2822 L31.4639,19.6692 C31.3179,19.7192 31.2229,19.6642 31.1799,19.5372 L29.0059,13.1282 C28.9629,13.0012 29.0039,12.9002 29.1499,12.8502 L35.1309,10.8222 C35.2669,10.7752 35.3719,10.8272 35.4149,10.9532 L35.7089,11.8202 C35.7519,11.9472 35.6999,12.0512 35.5639,12.0982 L30.9469,13.6642 L31.4819,15.2422 Z" id="Fill-21" fill="#439185"></path>
                </g>
            </g>
        </g>
    </g>
</svg>