<?xml version="1.0" encoding="UTF-8"?>
<svg width="74px" height="37px" viewBox="0 0 74 37" version="1.1" xmlns="http://www.w3.org/2000/svg" xmlns:xlink="http://www.w3.org/1999/xlink">
    <!-- Generator: sketchtool 50.2 (55047) - http://www.bohemiancoding.com/sketch -->
    <title>810EA74E-CB0F-48A2-9D85-E1C82AADF3EC</title>
    <desc>Created with sketchtool.</desc>
    <defs></defs>
    <g id="Админка---Work" stroke="none" stroke-width="1" fill="none" fill-rule="evenodd">
        <g id="Заполнение-профиля" transform="translate(-766.000000, -506.000000)">
            <g id="Group-9" transform="translate(339.000000, 111.000000)">
                <g id="Group-19" transform="translate(423.000000, 59.000000)">
                    <g id="Group-18" transform="translate(0.000000, 336.000000)">
                        <g id="Illustration" transform="translate(4.000000, 0.000000)">
                            <polygon id="Fill-10" fill="#CBD4DB" points="0 37 74 37 74 35 0 35"></polygon>
                            <path d="M36.6326398,0.000115889734 C35.9800135,0.00858166032 35.5472815,0.720722282 35.4998589,0.81452302 C35.4524362,0.720722282 35.0197043,0.00858166032 34.3673602,0.000115889734 C33.0911821,-0.0168156514 32.4388381,1.82465877 33.6176303,3.46972731 C34.3368742,4.47342907 35.4998589,5 35.4998589,5 C35.4998589,5 36.6631258,4.47342907 37.3823697,3.46972731 C38.5611619,1.82465877 37.9088179,-0.0168156514 36.6326398,0.000115889734" id="Fill-12" fill="#FFFFFF"></path>
                            <polygon id="Fill-13" fill="#CBD4DB" points="0 36 34 36 34 11 0 11"></polygon>
                            <polygon id="Fill-14" fill="#EBECF1" points="5 36 30 36 30 18 5 18"></polygon>
                            <polygon id="Fill-15" fill="#7F65D8" points="0 12 5 12 5 5 0 5"></polygon>
                            <polygon id="Fill-16" fill="#9074ED" points="5 12 10 12 10 5 5 5"></polygon>
                            <polygon id="Fill-17" fill="#7F65D8" points="10 12 15 12 15 5 10 5"></polygon>
                            <polygon id="Fill-18" fill="#9074ED" points="14 12 19 12 19 5 14 5"></polygon>
                            <path d="M2.5,15 C1.11927481,15 0,13.8821474 0,12.5031766 L0,12 L5,12 L5,12.5031766 C5,13.8821474 3.88072519,15 2.5,15" id="Fill-19" fill="#6B4BD6"></path>
                            <path d="M7.5,15 C6.11927481,15 5,13.8821474 5,12.5031766 L5,12 L10,12 L10,12.5031766 C10,13.8821474 8.88072519,15 7.5,15" id="Fill-20" fill="#7F65D8"></path>
                            <path d="M12.5,15 C11.1192748,15 10,13.8821474 10,12.5031766 L10,12 L15,12 L15,12.5031766 C15,13.8821474 13.8807252,15 12.5,15" id="Fill-21" fill="#6B4BD6"></path>
                            <path d="M16.5,15 C15.1192748,15 14,13.8821474 14,12.5031766 L14,12 L19,12 L19,12.5031766 C19,13.8821474 17.8807252,15 16.5,15" id="Fill-22" fill="#7F65D8"></path>
                            <polygon id="Fill-23" fill="#7F65D8" points="20 12 25 12 25 5 20 5"></polygon>
                            <polygon id="Fill-24" fill="#9074ED" points="24 12 29 12 29 5 24 5"></polygon>
                            <polygon id="Fill-25" fill="#7F65D8" points="29 12 34 12 34 5 29 5"></polygon>
                            <path d="M22.5,15 C21.1192748,15 20,13.8821474 20,12.5031766 L20,12 L25,12 L25,12.5031766 C25,13.8821474 23.8807252,15 22.5,15" id="Fill-26" fill="#6B4BD6"></path>
                            <path d="M26.5,15 C25.1192748,15 24,13.8821474 24,12.5031766 L24,12 L29,12 L29,12.5031766 C29,13.8821474 27.8807252,15 26.5,15" id="Fill-27" fill="#7F65D8"></path>
                            <path d="M31.5,15 C30.1192748,15 29,13.8821474 29,12.5031766 L29,12 L34,12 L34,12.5031766 C34,13.8821474 32.8807252,15 31.5,15" id="Fill-28" fill="#6B4BD6"></path>
                            <polygon id="Fill-29" fill="#CBD4DB" points="12 36 13 36 13 18 12 18"></polygon>
                            <polygon id="Fill-30" fill="#CBD4DB" points="21 36 22 36 22 18 21 18"></polygon>
                            <polygon id="Fill-31" fill="#FFFFFF" points="5 26.2621533 13 22 13 23.7378467 5 28"></polygon>
                            <polygon id="Fill-32" fill="#FFFFFF" points="5 28.9063525 13 25 13 26.0933742 5 30"></polygon>
                            <polygon id="Fill-33" fill="#FFFFFF" points="13 26.2621533 21 22 21 23.7378467 13 28"></polygon>
                            <polygon id="Fill-34" fill="#FFFFFF" points="13 28.9063525 21 25 21 26.0933742 13 30"></polygon>
                            <polygon id="Fill-35" fill="#FFFFFF" points="22 26.2621533 30 22 30 23.7378467 22 28"></polygon>
                            <polygon id="Fill-36" fill="#FFFFFF" points="22 28.9063525 30 25 30 26.0933742 22 30"></polygon>
                            <g id="Group-16" transform="translate(39.000000, 12.000000)">
                                <path d="M19.5089727,12.908298 L1.55806364,12.908298 C0.745063636,12.908298 0.0861545455,12.280138 0.0861545455,11.505078 L0.0861545455,1.599078 C0.0861545455,0.824018 0.745063636,0.195858 1.55806364,0.195858 L19.5089727,0.195858 C20.3217,0.195858 20.9808818,0.824018 20.9808818,1.599078 L20.9808818,11.505078 C20.9808818,12.280138 20.3217,12.908298 19.5089727,12.908298" id="Fill-37" fill="#CBD4DB"></path>
                                <polygon id="Fill-38" fill="#F9F9F9" points="2.625 7.58446 18.4420909 7.58446 18.4420909 4.47356 2.625 4.47356"></polygon>
                                <polygon id="Fill-41" fill="#F9F9F9" points="2.62472727 3.02328 5.86281818 3.02328 5.86281818 2.42268 2.62472727 2.42268"></polygon>
                                <polygon id="Fill-42" fill="#F9F9F9" points="6.81790909 3.02328 10.056 3.02328 10.056 2.42268 6.81790909 2.42268"></polygon>
                                <polygon id="Fill-43" fill="#F9F9F9" points="11.0108182 3.02328 14.2489091 3.02328 14.2489091 2.42268 11.0108182 2.42268"></polygon>
                                <polygon id="Fill-44" fill="#F9F9F9" points="15.204 3.02328 18.4420909 3.02328 18.4420909 2.42268 15.204 2.42268"></polygon>
                            </g>
                            <g id="Group-17" transform="translate(49.000000, 17.000000)">
                                <path d="M19.5162273,12.80071 L1.56531818,12.80071 C0.752318182,12.80071 0.0934090909,12.17255 0.0934090909,11.39749 L0.0934090909,1.49149 C0.0934090909,0.71643 0.752318182,0.08827 1.56531818,0.08827 L19.5162273,0.08827 C20.3289545,0.08827 20.9881364,0.71643 20.9881364,1.49149 L20.9881364,11.39749 C20.9881364,12.17255 20.3289545,12.80071 19.5162273,12.80071" id="Fill-39" fill="#EBECF1"></path>
                                <polygon id="Fill-40" fill="#CBD4DB" points="2.41254545 8.35614 8.40872727 8.35614 8.40872727 7.75554 2.41254545 7.75554"></polygon>
                                <polygon id="Fill-45" fill="#CBD4DB" points="2.41281818 10.07162 5.14581818 10.07162 5.14581818 9.47102 2.41281818 9.47102"></polygon>
                                <path d="M15.7206273,8.91358 C15.7206273,10.27728 14.5609909,11.38254 13.1308091,11.38254 C11.7003545,11.38254 10.5407182,10.27728 10.5407182,8.91358 C10.5407182,7.54988 11.7003545,6.44462 13.1308091,6.44462 C14.5609909,6.44462 15.7206273,7.54988 15.7206273,8.91358" id="Fill-46" fill="#FFFFFF"></path>
                                <path d="M18.9405545,8.91358 C18.9405545,10.27728 17.7809182,11.38254 16.3507364,11.38254 C14.9202818,11.38254 13.7606455,10.27728 13.7606455,8.91358 C13.7606455,7.54988 14.9202818,6.44462 16.3507364,6.44462 C17.7809182,6.44462 18.9405545,7.54988 18.9405545,8.91358" id="Fill-47" fill="#9074ED"></path>
                                <polygon id="Fill-48" fill="#FFFFFF" points="0.0935454545 4.92648 20.988 4.92648 20.988 2.70946 0.0935454545 2.70946"></polygon>
                            </g>
                        </g>
                    </g>
                </g>
            </g>
        </g>
    </g>
</svg>