<?xml version="1.0" encoding="UTF-8" standalone="no"?>
<svg viewBox="0 0 15 15" version="1.1" xmlns="http://www.w3.org/2000/svg" xmlns:xlink="http://www.w3.org/1999/xlink">
    <!-- Generator: sketchtool 50.2 (55047) - http://www.bohemiancoding.com/sketch -->
    <title>7BACB16D-2950-4553-9DB7-2E7D39879C0D</title>
    <desc>Created with sketchtool.</desc>
    <defs></defs>
    <g id="Pages" stroke="none" stroke-width="1" fill="none" fill-rule="evenodd">
        <g id="Создать/Редактировать-урок" transform="translate(-1319.000000, -42.000000)" fill="#FFFFFF" fill-rule="nonzero">
            <g id="link" transform="translate(1319.000000, 42.000000)">
                <path d="M8.65412811,5.7060168 C8.48609487,5.53698633 8.29977908,5.38715253 8.09864334,5.25925779 C7.56590096,4.91812206 6.94656578,4.73684782 6.3139619,4.73684782 C5.43592866,4.73521347 4.59357409,5.08407774 3.9737957,5.7060168 L0.967036696,8.71513037 C0.348310934,9.33504727 0.000554701779,10.1749642 6.85158575e-07,11.050809 C-0.00116274974,12.8785099 1.47950207,14.361086 3.3072029,14.3622495 C4.1838788,14.3652966 5.02545775,14.0180944 5.64501454,13.3978174 L8.127009,10.9158229 C8.17210595,10.8711137 8.197286,10.8101165 8.19692589,10.7466262 C8.19617797,10.6160722 8.08972368,10.5108644 7.95916966,10.5116124 L7.86462672,10.5116124 C7.34606717,10.5134406 6.83213365,10.4138561 6.35180124,10.2185099 C6.26329708,10.1820833 6.16157963,10.2026373 6.09415581,10.2705043 L4.30947437,12.0575403 C3.75529154,12.6117232 2.85678739,12.6117232 2.30260456,12.0575403 C1.74842174,11.5033575 1.74842174,10.6048534 2.30260456,10.0506705 L5.32119182,7.03446555 C5.87493143,6.48141846 6.77196744,6.48141846 7.32570706,7.03446555 C7.69889265,7.38568439 8.28099792,7.38568439 8.65415581,7.03446555 C8.81470983,6.87377303 8.91205055,6.66064284 8.92836634,6.43405004 C8.94562395,6.16327441 8.84576246,5.89809436 8.65412811,5.7060168 Z" id="Shape"></path>
                <path d="M13.4936349,0.969328255 C12.200924,-0.323109418 10.1050239,-0.323109418 8.81231301,0.969328255 L6.33214891,3.44658587 C6.26404587,3.51500693 6.24440183,3.61791551 6.28249852,3.70661357 C6.32015191,3.79556094 6.40814835,3.85265235 6.50473386,3.8507964 L6.59220387,3.8507964 C7.11026351,3.84985457 7.62347448,3.95021468 8.10299411,4.14628116 C8.19151697,4.18270776 8.29325593,4.16215374 8.36069401,4.0942867 L10.1410149,2.31669668 C10.6953149,1.76251385 11.594009,1.76251385 12.148309,2.31669668 C12.7026089,2.8708795 12.7026089,3.76938366 12.148309,4.32356648 L9.93058261,6.53844183 L9.91165894,6.55971607 L9.13617647,7.33032548 C8.5823198,7.88337258 7.68509415,7.88337258 7.13123747,7.33032548 C6.75797298,6.97910665 6.17574466,6.97910665 5.80250788,7.33032548 C5.64089477,7.49223684 5.54345035,7.70722299 5.52823938,7.93545014 C5.51095041,8.20622576 5.61083301,8.47140582 5.80250788,8.66351108 C6.07616682,8.93827562 6.3963453,9.16234765 6.74822023,9.32536704 C6.79787061,9.34899584 6.84752099,9.36791551 6.89717138,9.38918975 C6.94682176,9.41046399 6.99882721,9.42700139 7.0484776,9.44592105 C7.09812798,9.46484072 7.15013343,9.48137812 7.19978382,9.49556094 L7.33928698,9.53337258 C7.43384991,9.55700139 7.52844054,9.57592105 7.62535853,9.59245845 C7.74211451,9.60979917 7.85970169,9.6208518 7.97764906,9.62556094 L8.1431411,9.62556094 L8.15732692,9.62556094 L8.29918516,9.60902355 C8.35119061,9.60666898 8.40557884,9.59484072 8.46705998,9.59484072 L8.54743708,9.59484072 L8.71057405,9.57121191 L8.78624101,9.55702909 L8.92336141,9.52866343 L8.94937799,9.52866343 C9.53013786,9.38281856 10.0604438,9.08218144 10.483802,8.65877424 L13.4935517,5.64966066 C14.7863458,4.35722299 14.7863458,2.26176593 13.4936349,0.969328255 Z" id="Shape"></path>
            </g>
        </g>
    </g>
</svg>