<?xml version="1.0" encoding="UTF-8"?>
<svg width="14px" height="14px" viewBox="0 0 14 14" version="1.1" xmlns="http://www.w3.org/2000/svg" xmlns:xlink="http://www.w3.org/1999/xlink">
    <!-- Generator: sketchtool 50.2 (55047) - http://www.bohemiancoding.com/sketch -->
    <title>D4CDF4D2-55B9-41F9-93D8-074B23CFCC5E</title>
    <desc>Created with sketchtool.</desc>
    <defs></defs>
    <g id="Pages" stroke="none" stroke-width="1" fill="none" fill-rule="evenodd">
        <g id="Как-заработать-в-Instagram-[2.0]" transform="translate(-132.000000, -825.000000)" fill="#4D5865" stroke="#4D5865" stroke-width="0.5">
            <g id="Group-42" transform="translate(105.000000, 619.000000)">
                <g id="Group-31" transform="translate(27.000000, 203.000000)">
                    <path d="M12.7467939,9.87287055 C12.729293,9.8353686 12.7086669,9.79974175 12.6780403,9.76849012 L10.4572996,7.54712442 C10.311042,7.4008668 10.0735296,7.40149184 9.92664699,7.54649939 C9.78038938,7.69338204 9.78038938,7.93089441 9.92602196,8.07715203 L11.5136046,9.66535975 L4.91576101,9.66535975 C4.70887523,9.66535975 4.54074148,9.8334935 4.54074148,10.0403793 C4.54074148,10.2472651 4.70887523,10.4147738 4.91576101,10.4147738 L11.500479,10.4147738 L9.91289628,12.0029815 C9.76601363,12.1492391 9.76601363,12.3867515 9.91289628,12.5330091 C9.98602509,12.6061379 10.0816551,12.6430148 10.1779101,12.6430148 C10.2735401,12.6430148 10.36917,12.6061379 10.4422988,12.5330091 L12.6486638,10.3272692 C12.7336682,10.2578906 12.7905462,10.1572604 12.7905462,10.0403793 C12.7905462,9.97912609 12.7730452,9.92412322 12.7467939,9.87287055 M8.41531828,12.8530258 L8.41531828,13.4780583 C8.41531828,15.0631409 7.12587612,16.352583 5.54079356,16.352583 L1.79059824,16.352583 C1.23931953,16.352583 0.790546154,15.9038097 0.790546154,15.353156 L0.790546154,4.72760257 C0.790546154,4.17632386 1.23931953,3.72755049 1.79059824,3.72755049 L5.54079356,3.72755049 C7.12587612,3.72755049 8.41531828,5.01699264 8.41531828,6.60270023 L8.41531828,7.22773279 C8.41531828,7.43461856 8.24780955,7.60212729 8.04092378,7.60212729 C7.834038,7.60212729 7.66590425,7.43461856 7.66590425,7.22773279 L7.66590425,6.60270023 C7.66590425,5.43076419 6.7127296,4.47696452 5.54079356,4.47696452 L1.79059824,4.47696452 C1.65496618,4.47696452 1.53996019,4.59197051 1.53996019,4.72760257 L1.53996019,15.353156 C1.53996019,15.488163 1.65496618,15.603169 1.79059824,15.603169 L5.54079356,15.603169 C6.7127296,15.603169 7.66590425,14.6499944 7.66590425,13.4780583 L7.66590425,12.8530258 C7.66590425,12.64614 7.834038,12.4780062 8.04092378,12.4780062 C8.24780955,12.4780062 8.41531828,12.64614 8.41531828,12.8530258" id="Log-out"></path>
                </g>
            </g>
        </g>
    </g>
</svg>