<?xml version="1.0" encoding="UTF-8"?>
<svg width="75px" height="78px" viewBox="0 0 75 78" version="1.1" xmlns="http://www.w3.org/2000/svg" xmlns:xlink="http://www.w3.org/1999/xlink">
    <!-- Generator: sketchtool 50.2 (55047) - http://www.bohemiancoding.com/sketch -->
    <title>D93B4354-19BB-4310-B857-8F0DCC5928E5</title>
    <desc>Created with sketchtool.</desc>
    <defs></defs>
    <g id="Админка---Back-end" stroke="none" stroke-width="1" fill="none" fill-rule="evenodd">
        <g id="Главная-Админка" transform="translate(-445.000000, -526.000000)">
            <g id="Group-17" transform="translate(290.000000, 476.000000)">
                <g id="Icon" transform="translate(155.000000, 50.000000)">
                    <path d="M73.3044,55.3531 L61.6614,55.3531 C59.2484,55.3531 57.2914,53.3961 57.2914,50.9831 C57.2914,48.5691 59.2484,46.6121 61.6614,46.6121 L73.3044,46.6121 C73.7904,46.6121 74.1844,47.0061 74.1844,47.4921 L74.1844,54.4731 C74.1844,54.9591 73.7904,55.3531 73.3044,55.3531" id="Fill-3" fill="#B5C6C2"></path>
                    <path d="M65.1313,77.9061 L8.0973,77.9061 C3.7233,77.9061 0.1773,74.3601 0.1773,69.9861 L0.1773,35.1541 C0.1773,30.7801 3.7233,27.2341 8.0973,27.2341 L65.1313,27.2341 C69.5053,27.2341 73.0513,30.7801 73.0513,35.1541 L73.0513,69.9861 C73.0513,74.3601 69.5053,77.9061 65.1313,77.9061" id="Fill-5" fill="#EBECF1"></path>
                    <path d="M64.8237,32.2628 L8.1437,32.2628 C7.6387,32.2628 7.2297,31.8538 7.2297,31.3488 C7.2297,30.8438 7.6387,30.4348 8.1437,30.4348 L64.8237,30.4348 C65.3287,30.4348 65.7377,30.8438 65.7377,31.3488 C65.7377,31.8538 65.3287,32.2628 64.8237,32.2628" id="Fill-7" fill="#CAD8D5"></path>
                    <polygon id="Fill-9" fill="#53A99C" points="22.952034 72.971664 9 15.7113111 36.542439 9 50.494473 66.2611673"></polygon>
                    <path d="M30.1275087,66.1403538 L40.4290455,63.630128 C40.1073261,61.3723908 41.4015341,59.1822554 43.5175518,58.3661469 L34.0809923,19.6343884 C31.8770107,19.8779178 29.7683233,18.5951125 28.9701333,16.5271491 L18.6343884,19.0455197 C18.8771033,21.2486868 17.5951125,23.3573742 15.5271491,24.1547497 L24.9645231,62.8865082 C27.2190024,62.6380919 29.3749297,63.9876845 30.1275087,66.1403538 Z M41.9692263,64.5651504 L29.1810835,67.6805345 L29.0377351,66.9532043 C28.5539343,64.9569151 26.5845229,63.7588157 24.6379168,64.2328428 L24.0205414,64.3835215 L14,23.2604512 L14.6181899,23.1097725 C16.5639815,22.6349309 17.7628953,20.6655195 17.2880538,18.7189134 L17.1373751,18.1007235 L29.8652463,15 L30.015925,15.6181899 C30.4899521,17.564796 32.460178,18.7620808 34.4067841,18.2880538 L35.024974,18.1373751 L45.0447009,59.2612599 L44.4273254,59.4111241 C42.4799049,59.8859657 41.2818056,61.8553771 41.7558327,63.8019831 L41.9692263,64.5651504 Z" id="Fill-11" fill="#428F83"></path>
                    <path d="M30.9400014,45.4691385 C28.3629883,46.0971022 25.7656131,44.517012 25.1376494,41.9399988 C24.5096857,39.3638001 26.089776,36.7656105 28.6659747,36.1376468 C31.2429878,35.5096831 33.8411775,37.0897733 34.4691412,39.6667865 C35.0971049,42.2437996 33.5170146,44.8411748 30.9400014,45.4691385" id="Fill-13" fill="#75C6BA"></path>
                    <polygon id="Fill-15" fill="#66BDB0" points="27 58.3395382 35.3598177 0 63.4210801 4.02108533 55.0612625 62.3606235"></polygon>
                    <path d="M36.0147503,54.4226165 L46.5109477,55.9269602 C47.0517621,53.7107614 49.0684134,52.1599924 51.3367388,52.1901282 L56.9908556,12.728596 C54.8552903,12.134026 53.375381,10.1580987 53.4047023,7.94271446 L42.8734823,6.43348393 C42.2789122,8.56823472 40.3037994,10.0489585 38.0876007,10.0196372 L32.4334839,49.4811693 C34.6187325,50.0895855 36.1173747,52.1445173 36.0147503,54.4226165 Z M47.591762,57.3669599 L34.5633478,55.5001729 L34.7009949,54.7720282 C34.995022,52.7382729 33.6120358,50.8934768 31.6295927,50.6092235 L31,50.5196307 L37.0035284,8.62036141 L37.6331211,8.71076864 C39.6163787,8.99502198 41.4611748,7.61285026 41.7454281,5.62959266 L41.8358354,5 L54.8031636,6.85782776 L54.7127564,7.48742042 C54.428503,9.47067802 55.8114892,11.3154741 57.7955613,11.5997274 L58.4243395,11.6901347 L52.420811,53.5885895 L51.7912184,53.4989968 C49.8079608,53.2147434 47.9623502,54.5969151 47.6780969,56.5801727 L47.591762,57.3669599 Z" id="Fill-17" fill="#53A99C"></path>
                    <path d="M44.1215827,35.5566045 C41.4965152,35.1803149 39.6728956,32.7474646 40.0491852,30.1215827 C40.4254747,27.4965152 42.858325,25.6728956 45.4842069,26.0491852 C48.1092744,26.4254747 49.932894,28.8591395 49.5566045,31.4842069 C49.1803149,34.1092744 46.7466502,35.932894 44.1215827,35.5566045" id="Fill-19" fill="#7ACABE"></path>
                    <polygon id="Fill-21" fill="#EBECF1" points="10.465 72.479 69.56 72.479 69.56 32.263 10.465 32.263"></polygon>
                    <text id="02" font-family="GothamPro-Medium, Gotham Pro" font-size="24" font-weight="400" fill="#CBD4DB">
                        <tspan x="20" y="60">02</tspan>
                    </text>
                    <path d="M73.3044,57.382 L61.6614,57.382 C59.2484,57.382 57.2914,55.425 57.2914,53.012 C57.2914,50.598 59.2484,48.641 61.6614,48.641 L74.1844,48.641 L74.1844,56.502 C74.1844,56.988 73.7904,57.382 73.3044,57.382" id="Fill-23" fill="#CBD4DB"></path>
                    <path d="M58.5489,53.0116 C58.5489,51.2276 59.9949,49.7816 61.7789,49.7816 C63.5619,49.7816 65.0079,51.2276 65.0079,53.0116 C65.0079,54.7956 63.5619,56.2416 61.7789,56.2416 C59.9949,56.2416 58.5489,54.7956 58.5489,53.0116" id="Fill-24" fill="#EBECF1"></path>
                </g>
            </g>
        </g>
    </g>
</svg>