<?xml version="1.0" encoding="UTF-8"?>
<svg width="12px" height="16px" viewBox="0 0 12 16" version="1.1" xmlns="http://www.w3.org/2000/svg" xmlns:xlink="http://www.w3.org/1999/xlink">
    <!-- Generator: sketchtool 50.2 (55047) - http://www.bohemiancoding.com/sketch -->
    <title>D2FC13F8-1326-46F6-87BD-F09BD17138BE</title>
    <desc>Created with sketchtool.</desc>
    <defs></defs>
    <g id="Pages" stroke="none" stroke-width="1" fill="none" fill-rule="evenodd">
        <g id="Как-заработать-в-Instagram-[2.0]" transform="translate(-132.000000, -704.000000)">
            <g id="Group-42" transform="translate(105.000000, 619.000000)">
                <g id="Group-41" transform="translate(27.000000, 85.000000)">
                    <g id="Group-7">
                        <path d="M0.964641709,12.25 L11.0353583,12.25 C10.8618483,11.9719155 10.5935843,11.7562285 10.2694475,11.6515176 L9.75,11.4837125 L9.75,5.94444444 C9.75,4.33526984 8.72705819,2.92093074 7.23169269,2.40119318 L6.62627031,2.19076921 L6.73977163,1.55995073 C6.74655163,1.52226882 6.75,1.48373528 6.75,1.44444444 C6.75,1.06737868 6.42041445,0.75 6,0.75 C5.57958555,0.75 5.25,1.06737868 5.25,1.44444444 C5.25,1.48373528 5.25344837,1.52226882 5.26022837,1.55995073 L5.37372969,2.19076921 L4.76830731,2.40119318 C3.27294181,2.92093074 2.25,4.33526984 2.25,5.94444444 L2.25,11.4837125 L1.73055253,11.6515176 C1.40641573,11.7562285 1.13815166,11.9719155 0.964641709,12.25 Z" id="Combined-Shape" stroke="#4D5865" stroke-width="1.5"></path>
                        <path d="M6,16 C7.1045695,16 8.1045695,15.3333333 9,14 L3,14 C3.8954305,15.3333333 4.8954305,16 6,16 Z" id="Oval-4" fill="#4D5865"></path>
                    </g>
                </g>
            </g>
        </g>
    </g>
</svg>