<?xml version="1.0" encoding="UTF-8" standalone="no"?>
<svg viewBox="0 0 18 14" version="1.1" xmlns="http://www.w3.org/2000/svg" xmlns:xlink="http://www.w3.org/1999/xlink">
    <!-- Generator: sketchtool 50.2 (55047) - http://www.bohemiancoding.com/sketch -->
    <title>EBDCDA70-3383-44E3-A94A-D073CB553024</title>
    <desc>Created with sketchtool.</desc>
    <defs></defs>
    <g id="Pages" stroke="none" stroke-width="1" fill="none" fill-rule="evenodd">
        <g id="Регистрация-2" transform="translate(-911.000000, -303.000000)" fill="#96A2B4" fill-rule="nonzero">
            <g id="Group-17" transform="translate(812.000000, 196.000000)">
                <g id="Group-12" transform="translate(0.000000, 76.000000)">
                    <g id="Group-5" transform="translate(99.000000, 30.000000)">
                        <g id="Group-2">
                            <g id="photo-camera" transform="translate(0.000000, 1.000000)">
                                <path d="M9,5.25 C7.5087,5.25 6.3,6.42565 6.3,7.875 C6.3,9.324875 7.5087,10.5 9,10.5 C10.49094,10.5 11.7,9.324875 11.7,7.875 C11.7,6.42565 10.49094,5.25 9,5.25 Z M16.2,2.625 L14.04,2.625 C13.743,2.625 13.42296,2.401 13.32918,2.12695 L12.77082,0.497875 C12.67668,0.224 12.357,0 12.06,0 L5.94,0 C5.643,0 5.32296,0.224 5.22918,0.49805 L4.67082,2.127125 C4.57668,2.401 4.257,2.625 3.96,2.625 L1.8,2.625 C0.81,2.625 0,3.4125 0,4.375 L0,12.25 C0,13.2125 0.81,14 1.8,14 L16.2,14 C17.19,14 18,13.2125 18,12.25 L18,4.375 C18,3.4125 17.19,2.625 16.2,2.625 Z M9,12.25 C6.51474,12.25 4.5,10.291225 4.5,7.875 C4.5,5.45895 6.51474,3.5 9,3.5 C11.4849,3.5 13.5,5.45895 13.5,7.875 C13.5,10.291225 11.4849,12.25 9,12.25 Z M15.57,5.598775 C15.22224,5.598775 14.94,5.324725 14.94,4.986275 C14.94,4.648175 15.22224,4.373775 15.57,4.373775 C15.91812,4.373775 16.2,4.648175 16.2,4.986275 C16.2,5.324725 15.91794,5.598775 15.57,5.598775 Z" id="Shape"></path>
                            </g>
                        </g>
                    </g>
                </g>
            </g>
        </g>
    </g>
</svg>