<?xml version="1.0" encoding="UTF-8"?>
<svg width="11px" height="16px" viewBox="0 0 11 16" version="1.1" xmlns="http://www.w3.org/2000/svg" xmlns:xlink="http://www.w3.org/1999/xlink">
    <!-- Generator: sketchtool 50.2 (55047) - http://www.bohemiancoding.com/sketch -->
    <title>753D94EC-A358-469F-9D8E-A26E110F7E56</title>
    <desc>Created with sketchtool.</desc>
    <defs></defs>
    <g id="Pages" stroke="none" stroke-width="1" fill="none" fill-rule="evenodd">
        <g id="Список-курсов" transform="translate(-1375.000000, -32.000000)" fill="#C7CDD6" fill-rule="nonzero">
            <g id="Group-37" transform="translate(1253.000000, 20.000000)">
                <g id="Group-28" transform="translate(108.000000, 0.000000)">
                    <g id="question-sign" transform="translate(14.000000, 12.000000)">
                        <path d="M6.8405919,13 L4.15925197,13 C4.07135113,13 4,13.0713294 4,13.1592356 L4,15.8407384 C4,15.9286445 4.07135113,16 4.15925197,16 L6.84074803,16 C6.92864887,16 7,15.9286445 7,15.8407384 L7,13.1592356 C6.99984387,13.0711733 6.92864887,13 6.8405919,13 Z" id="Shape"></path>
                        <path d="M9.49356615,1.26506322 C8.50006433,0.425664764 7.14952754,0 5.47962424,0 C3.89044693,0 2.58606297,0.420675886 1.60270372,1.25051892 C0.616304465,2.08279041 0.0771178258,3.11020884 0.000316202541,4.30434553 C-0.00510053663,4.3894732 0.059679242,4.4641216 0.148309255,4.47460088 L2.76296373,4.78428084 C2.77006629,4.78507272 2.77700303,4.78557425 2.78393977,4.78557425 C2.86259304,4.78557425 2.93209864,4.73323063 2.94917795,4.65810711 C3.12270706,3.89077022 3.44138267,3.31501679 3.89649931,2.9468429 C4.34926685,2.58046395 4.92280556,2.39468765 5.60122451,2.39468765 C6.30482023,2.39468765 6.86871383,2.57141006 7.277346,2.919866 C7.68595054,3.26848032 7.8847117,3.67395201 7.8847117,4.15940412 C7.8847117,4.50720016 7.773254,4.81738164 7.54389932,5.10750203 C7.43957182,5.23607782 7.10008598,5.55724011 6.08240229,6.34751528 C5.23689352,7.00404101 4.66302317,7.6077216 4.37648872,8.14145232 C4.08846191,8.67827139 3.9423205,9.3673964 3.9423205,10.1898485 C3.9423205,10.2682188 3.94569214,10.4812887 3.95246307,10.841359 C3.95414889,10.9294166 4.02943051,11 4.12159798,11 L6.70599057,11 C6.75134194,11 6.7947864,10.9825785 6.82656829,10.9517214 C6.85837781,10.9208643 6.87578876,10.8790263 6.87512549,10.8357102 C6.86210873,10.11586 6.92315759,9.61589002 7.05628225,9.34965817 C7.190236,9.08184255 7.55202443,8.712692 8.13164315,8.25228987 C9.31843412,7.30984074 10.0739863,6.58191334 10.441689,6.02685451 C10.8120723,5.46744031 11,4.86518512 11,4.23692969 C10.9998618,3.10941696 10.4929822,2.10960893 9.49356615,1.26506322 Z" id="Shape"></path>
                    </g>
                </g>
            </g>
        </g>
    </g>
</svg>