<?xml version="1.0" encoding="UTF-8"?>
<svg width="18px" height="19px" viewBox="0 0 18 19" version="1.1" xmlns="http://www.w3.org/2000/svg" xmlns:xlink="http://www.w3.org/1999/xlink">
    <!-- Generator: sketchtool 50.2 (55047) - http://www.bohemiancoding.com/sketch -->
    <title>F89D1E52-07A6-4DBF-BA3A-DA3DE16D36D3</title>
    <desc>Created with sketchtool.</desc>
    <defs>
        <linearGradient x1="0%" y1="0%" x2="100%" y2="100%" id="linearGradient-1">
            <stop stop-color="#FF3F3C" offset="0%"></stop>
            <stop stop-color="#B0132D" offset="100%"></stop>
        </linearGradient>
        <path d="M13.3475831,17.1961748 C13.4540054,17.1867985 13.5947326,17.1306475 13.6762326,17.08217 C13.8567558,16.9748146 13.9034302,16.9340602 14.0779884,16.8087944 C14.2417674,16.6911431 14.4019884,16.5678077 14.5564535,16.442649 C16.6396395,14.755635 17.9765581,12.1434981 17.9765581,9.21133256 C17.9765581,4.12401466 13.9523023,0 8.98827907,0 C4.13769549,0 0.184580316,3.93751533 0.00627906977,8.86379615 L0.00627906977,8.86379615 L0.00627906977,9.55885547 C0.112883297,12.504109 1.56887051,15.0959459 3.75917442,16.7042274 C4.01232558,16.8900885 4.2619186,16.9741711 4.34836047,16.9374922 C4.43480233,16.9008133 4.54719767,16.8217714 4.54719767,16.6281884 L4.54719767,9.6589865 C4.53788372,9.5376888 4.53317442,9.41510412 4.53317442,9.29144696 C4.53317442,6.72564125 6.56277907,4.64566985 9.06645349,4.64566985 C11.5700233,4.64566985 13.5996279,6.72564125 13.5996279,9.29144696 C13.5996279,11.1095183 12.5805349,12.6837072 11.0957442,13.4467781 C10.9981047,13.4969702 10.8298256,13.6388596 10.8080581,13.8267584 C10.788907,13.9914916 10.9048605,14.2004111 10.9747674,14.2943605 C11.4471628,14.9288408 12.0815581,15.7789972 12.998093,17.009992 C13.0563837,17.0883904 13.1723372,17.1727947 13.2767791,17.1938154 C13.281701,17.194805 13.2868199,17.1955878 13.2921169,17.1961748 L13.3475832,17.1961748 L13.3475831,17.1961748 Z" id="path-2"></path>
        <linearGradient x1="50%" y1="0%" x2="50%" y2="100%" id="linearGradient-4">
            <stop stop-color="#A282ED" offset="0%"></stop>
            <stop stop-color="#6243D1" offset="100%"></stop>
        </linearGradient>
    </defs>
    <g id="Админка---Back-end" stroke="none" stroke-width="1" fill="none" fill-rule="evenodd">
        <g id="Главная-Админка" transform="translate(-28.000000, -28.000000)">
            <g id="Logo" transform="translate(28.000000, 28.000000)">
                <g id="Лого-RUDI">
                    <g id="Group-3">
                        <mask id="mask-3" fill="white">
                            <use xlink:href="#path-2"></use>
                        </mask>
                        <g id="Clip-2"></g>
                        <polygon id="Fill-1" fill="url(#linearGradient-4)" mask="url(#mask-3)" points="0.00627906977 17.1961748 8.52631579 17.1961748 17.9769767 17.1961748 17.9769767 -0.010724819 0.00627906977 -0.010724819"></polygon>
                    </g>
                    <ellipse id="Oval" fill="#472F8A" cx="8.18181818" cy="18.1363636" rx="1" ry="1"></ellipse>
                </g>
            </g>
        </g>
    </g>
</svg>