<?xml version="1.0" encoding="UTF-8"?>
<svg width="18px" height="15px" viewBox="0 0 18 15" version="1.1" xmlns="http://www.w3.org/2000/svg" xmlns:xlink="http://www.w3.org/1999/xlink">
    <!-- Generator: sketchtool 50.2 (55047) - http://www.bohemiancoding.com/sketch -->
    <title>515A190F-4C98-4D68-B552-2B6B1BD45C33</title>
    <desc>Created with sketchtool.</desc>
    <defs></defs>
    <g id="-Symbols" stroke="none" stroke-width="1" fill="none" fill-rule="evenodd">
        <g id="Menu" transform="translate(-40.000000, -432.000000)" fill="#96A2B4" stroke="#96A2B4" stroke-width="0.5">
            <g id="Group-33" transform="translate(0.000000, 90.000000)">
                <g id="Group-24" transform="translate(41.000000, 343.000000)">
                    <path d="M15,4 L1,4 L1,1.76783754 C1,1.34467618 1.46837934,1 2.04249774,1 L13.9567576,1 C14.5316207,1 15,1.34467618 15,1.76783754 L15,4 Z M1,8 L15,8 L15,5 L1,5 L1,8 Z M15,11.2316136 C15,11.6553238 14.5316207,12 13.9567576,12 L2.04249774,12 C1.46837934,12 1,11.6553238 1,11.2316136 L1,9 L15,9 L15,11.2316136 Z M1.96160196,0 C0.880041511,0 0,0.715579454 0,1.59426442 L0,4.45596906 L0,8.54403094 L0,11.4051224 C0,12.2844205 0.880041511,13 1.96160196,13 L14.0376433,13 C15.1199585,13 16,12.2844205 16,11.4051224 L16,8.54403094 L16,4.45596906 L16,1.59426442 C16,0.715579454 15.1199585,0 14.0376433,0 L1.96160196,0 Z" id="Server"></path>
                </g>
            </g>
        </g>
    </g>
</svg>