<?xml version="1.0" encoding="UTF-8"?>
<svg width="15px" height="15px" viewBox="0 0 15 15" version="1.1" xmlns="http://www.w3.org/2000/svg" xmlns:xlink="http://www.w3.org/1999/xlink">
    <!-- Generator: sketchtool 50.2 (55047) - http://www.bohemiancoding.com/sketch -->
    <title>66D32C68-B0D1-4BE3-A89D-4AF817EF4F21</title>
    <desc>Created with sketchtool.</desc>
    <defs></defs>
    <g id="Pages" stroke="none" stroke-width="1" fill="none" fill-rule="evenodd">
        <g id="Как-заработать-в-Instagram-[2.0]" transform="translate(-130.000000, -786.000000)" fill="#4D5865" stroke="#4D5865" stroke-width="0.5">
            <g id="Group-42" transform="translate(105.000000, 619.000000)">
                <g id="Group-34" transform="translate(26.000000, 165.000000)">
                    <path d="M6.5,11.2931673 C5.37104437,11.2931673 4.45376792,10.3751781 4.45376792,9.24622252 C4.45376792,8.11797961 5.37104437,7.19999044 6.5,7.19999044 C7.62895563,7.19999044 8.54623208,8.11797961 8.54623208,9.24622252 C8.54623208,10.3751781 7.62895563,11.2931673 6.5,11.2931673 M6.5,6.34472102 C4.89993347,6.34472102 3.59778578,7.64615598 3.59778578,9.24622252 C3.59778578,10.8470018 4.89993347,12.1484367 6.5,12.1484367 C8.10006653,12.1484367 9.40221422,10.8470018 9.40221422,9.24622252 C9.40221422,7.64615598 8.10006653,6.34472102 6.5,6.34472102 M12.114131,11.3138363 L11.099924,13.0735532 C11.0350661,13.1861636 10.8918084,13.2260762 10.779198,13.1605055 L10.0785898,12.7571035 C9.7215148,12.5511261 9.27820015,12.5611042 8.94892143,12.7834743 C8.7650385,12.9074883 8.56832654,13.0179606 8.3666255,13.1106148 C7.99529603,13.2816687 7.75439514,13.6658272 7.75439514,14.0898983 L7.75439514,14.9088188 C7.75439514,15.0385346 7.64819919,15.1440179 7.51919605,15.1440179 L5.48793119,15.1440179 C5.35821533,15.1440179 5.2527321,15.0385346 5.2527321,14.9088188 L5.2527321,14.090611 C5.2527321,13.6658272 5.01183122,13.280956 4.63836357,13.1099021 C4.43309891,13.0165352 4.2349615,12.9060629 4.04965312,12.7813361 C3.87859924,12.6665875 3.6768982,12.6095695 3.47234627,12.6095695 C3.28347427,12.6095695 3.0924641,12.6587475 2.92141022,12.7571035 L2.22151475,13.1605055 C2.109617,13.2246507 1.96493392,13.1854509 1.90007599,13.0742659 L0.885869012,11.3138363 C0.821723806,11.2019386 0.860210929,11.0572555 0.972821402,10.9931103 L1.57649906,10.644588 C1.94854126,10.4293452 2.15950772,10.0152523 2.11318062,9.58904301 C2.09536251,9.43366906 2.08894799,9.27615695 2.08894799,9.11436848 C2.08894799,8.87560577 2.10462793,8.67319201 2.13812598,8.49501088 C2.17162403,8.31682975 2.08894799,8.13651045 1.93143587,8.04528171 L0.972821402,7.49292021 C0.860923654,7.42806228 0.821723806,7.28409193 0.886581736,7.17148146 L1.89936327,5.41390281 C1.93001042,5.35973575 1.98132659,5.3205359 2.04119545,5.30485596 C2.10320248,5.28703785 2.16663496,5.29630327 2.22080202,5.32837587 L2.7289746,5.62273109 C3.09317683,5.83583572 3.55858594,5.80376312 3.91352274,5.54504412 C4.12805282,5.387532 4.35897556,5.2506889 4.59916372,5.1373657 C5.00185307,4.94778098 5.2527321,4.56504791 5.2527321,4.13955138 L5.2527321,3.58433899 C5.2527321,3.4539104 5.35821533,3.3491399 5.48793119,3.3491399 L7.51919605,3.3491399 C7.64819919,3.3491399 7.75439514,3.4539104 7.75439514,3.58433899 L7.75439514,4.14097683 C7.75439514,4.56504791 8.00384872,4.94706825 8.40582535,5.1373657 C8.64387533,5.24997617 8.87194718,5.38681928 9.08647726,5.5443314 C9.44212679,5.80376312 9.90611045,5.83583572 10.2703127,5.62344382 L10.779198,5.32837587 C10.833365,5.29630327 10.8960848,5.28703785 10.9588046,5.30485596 C11.0186734,5.3205359 11.0699896,5.35973575 11.1006367,5.41390281 L12.1134183,7.17219418 C12.1782762,7.28409193 12.1390763,7.42806228 12.0271786,7.49292021 L11.0685641,8.04528171 C10.911052,8.13651045 10.828376,8.31682975 10.861874,8.49501088 C10.8953721,8.67319201 10.911052,8.87560577 10.911052,9.11436848 C10.911052,9.27615695 10.9046375,9.43366906 10.8861067,9.58975573 C10.8404923,10.0152523 11.0514587,10.4293452 11.4235009,10.644588 L12.0278913,10.9931103 C12.1397891,11.0572555 12.1782762,11.2019386 12.114131,11.3138363 M12.4548133,10.2525895 L11.8525611,9.90406724 C11.7720232,9.85774015 11.7271216,9.77078776 11.7370997,9.68240992 C11.7577687,9.49638882 11.7677469,9.30822955 11.7677469,9.11436848 C11.7677469,8.94545277 11.7606196,8.7893661 11.7449397,8.64254485 L12.4541006,8.23415371 C12.9751022,7.93338396 13.1547088,7.26556109 12.8546518,6.7452722 L11.8425829,4.98769355 C11.6964744,4.73467635 11.4612753,4.55364432 11.1790364,4.47809552 C10.8960848,4.40254673 10.6024423,4.44174657 10.3501378,4.58856782 L9.84053979,4.8843485 C9.75572557,4.93423921 9.65736959,4.90145389 9.59251166,4.85441407 C9.33450539,4.66554207 9.058681,4.50018998 8.77216575,4.36477233 C8.69376605,4.32699793 8.60966456,4.24859823 8.60966456,4.14097683 L8.60966456,3.58433899 C8.60966456,2.9827995 8.12002282,2.49315776 7.51919605,2.49315776 L5.48793119,2.49315776 C4.8863917,2.49315776 4.39746269,2.9827995 4.39746269,3.58433899 L4.39746269,4.13955138 C4.39746269,4.24859823 4.31336119,4.32699793 4.23424877,4.3640596 C3.94559535,4.50090271 3.66763279,4.66554207 3.40962651,4.85370134 C3.34405586,4.90074116 3.2435617,4.93281376 3.15874748,4.88363577 L2.64986218,4.58856782 C2.3975577,4.44174657 2.10248976,4.40325945 1.82096357,4.47809552 C1.53872467,4.55364432 1.30352558,4.73467635 1.15741705,4.98769355 L0.145348243,6.74455948 C-0.154708777,7.26556109 0.0248978003,7.93338396 0.545899419,8.23415371 L1.25506031,8.64254485 C1.23938037,8.7893661 1.23225313,8.94545277 1.23225313,9.11436848 C1.23225313,9.30822955 1.24223127,9.49638882 1.26290028,9.68240992 C1.27287842,9.77078776 1.22797678,9.85774015 1.14743891,9.90406724 L0.545186695,10.2518768 C0.0248978003,10.5519338 -0.154708777,11.2197567 0.145348243,11.7407583 L1.1588425,13.5011879 C1.45961224,14.0214768 2.12600966,14.2010833 2.64843673,13.901739 L3.34690675,13.498337 C3.423881,13.4548608 3.51439702,13.4527226 3.57284043,13.4912097 C3.79663592,13.6415946 4.03539863,13.7748741 4.28271404,13.8881973 C4.35113559,13.9195571 4.39746269,14.0008077 4.39746269,14.090611 L4.39746269,14.9088188 C4.39746269,15.5103583 4.8863917,16 5.48793119,16 L7.51919605,16 C8.12002282,16 8.60966456,15.5103583 8.60966456,14.9088188 L8.60966456,14.0898983 C8.60966456,14.0008077 8.6545662,13.9195571 8.7244132,13.8881973 C8.96816499,13.7755868 9.20478953,13.6423073 9.42644685,13.4926352 C9.48631571,13.4527226 9.57683172,13.4548608 9.65309325,13.498337 L10.352276,13.901739 C10.8739903,14.2017961 11.5403878,14.020764 11.8411575,13.5004751 L12.8546518,11.7407583 C13.1547088,11.2197567 12.9751022,10.5519338 12.4548133,10.2525895" id="Settings"></path>
                </g>
            </g>
        </g>
    </g>
</svg>