<?xml version="1.0" encoding="UTF-8"?>
<svg width="18px" height="15px" viewBox="0 0 18 15" version="1.1" xmlns="http://www.w3.org/2000/svg" xmlns:xlink="http://www.w3.org/1999/xlink">
    <!-- Generator: sketchtool 50.2 (55047) - http://www.bohemiancoding.com/sketch -->
    <title>E784C943-A5AB-4AE6-8D94-DB6E28DA5AAC</title>
    <desc>Created with sketchtool.</desc>
    <defs></defs>
    <g id="-Symbols" stroke="none" stroke-width="1" fill="none" fill-rule="evenodd">
        <g id="Menu" transform="translate(-39.000000, -235.000000)" fill="#96A2B4" stroke="#96A2B4" stroke-width="0.5">
            <g id="Group-33" transform="translate(0.000000, 90.000000)">
                <g id="Group-29" transform="translate(40.000000, 145.000000)">
                    <path d="M15.0791203,5.75985759 L15.0791203,4.16031461 C15.0451885,3.29135435 14.3485375,2.59470341 13.4795773,2.56077162 L7.99542988,2.56077162 L6.29077406,0.798989271 L5.9982862,0.499646226 L2.49985718,0.499646226 C1.63482281,0.537284052 0.944214639,1.23386289 0.914024564,2.09918921 L0.914024564,5.75528747 L0,5.75528747 L0,6.61447056 L1.91716652,13.366827 C1.97071687,13.5915786 2.17056613,13.7508924 2.40159954,13.7530024 L13.6715224,13.7530024 C13.9051462,13.7503566 14.1064532,13.5877988 14.1582405,13.3599718 L15.9862896,6.56419921 L16,5.75528747 L15.0791203,5.75985759 Z M1.82576407,2.10375934 C1.89298317,1.75677999 2.16430315,1.48546002 2.51128249,1.41824091 L5.48186233,1.41824091 L7.53841759,3.47479618 L13.4795773,3.47479618 C13.8262484,3.54259473 14.0972971,3.81364345 14.1650957,4.16031461 L14.1650957,5.75985759 L1.82576407,5.75985759 L1.82576407,2.10375934 Z M13.3310483,12.5419199 C13.3036275,12.6561729 13.1368181,12.843548 13.022565,12.843548 L2.96829477,12.843548 C2.8540417,12.843548 2.77406455,12.658458 2.73978863,12.5442049 L1.14024564,6.67388216 L14.8506141,6.67388216 L13.3310483,12.5419199 Z" id="Shape"></path>
                </g>
            </g>
        </g>
    </g>
</svg>