<?xml version="1.0" encoding="UTF-8"?>
<svg width="19px" height="18px" viewBox="0 0 19 18" version="1.1" xmlns="http://www.w3.org/2000/svg" xmlns:xlink="http://www.w3.org/1999/xlink">
    <!-- Generator: sketchtool 50.2 (55047) - http://www.bohemiancoding.com/sketch -->
    <title>5452614B-1D73-46EA-9FBA-12340B4A3DD7</title>
    <desc>Created with sketchtool.</desc>
    <defs></defs>
    <g id="-Symbols" stroke="none" stroke-width="1" fill="none" fill-rule="evenodd">
        <g id="Menu" transform="translate(-39.000000, -381.000000)" fill="#96A2B4" stroke="#96A2B4" stroke-width="0.5">
            <g id="Group-33" transform="translate(0.000000, 90.000000)">
                <g id="Group-23" transform="translate(40.000000, 292.000000)">
                    <path d="M15.3562085,7.76554687 C15.347384,7.76875578 15.340164,7.77437136 15.3321417,7.77918471 C15.0962873,7.92839874 14.8195194,8.01744581 14.5202891,8.01744581 C13.6795563,8.01744581 12.9952576,7.33394933 12.9952576,6.4940188 C12.9952576,6.22767979 12.7802611,6.01188102 12.5147243,6.01188102 C12.2483853,6.01188102 12.0333888,6.22767979 12.0333888,6.4940188 C12.0333888,7.33394933 11.34909,8.01744581 10.5091595,8.01744581 C9.66842675,8.01744581 8.98412804,7.33394933 8.98412804,6.4940188 C8.98412804,6.22767979 8.7691315,6.01188102 8.50359472,6.01188102 C8.23725571,6.01188102 8.02225917,6.22767979 8.02225917,6.4940188 C8.02225917,7.33394933 7.33796046,8.01744581 6.49802993,8.01744581 C5.65729717,8.01744581 4.97299846,7.33394933 4.97299846,6.4940188 C4.97299846,6.22767979 4.75800191,6.01188102 4.49246513,6.01188102 C4.22612613,6.01188102 4.01112958,6.22767979 4.01112958,6.4940188 C4.01112958,7.33394933 3.32683088,8.01744581 2.48690034,8.01744581 C2.19890124,8.01744581 1.93176001,7.93321209 1.70152117,7.79683369 C1.67986107,7.7848003 1.66060765,7.77196468 1.6373431,7.7631402 C1.22981233,7.49599897 0.959462196,7.04996136 0.955451067,6.57343916 L1.6806633,2.23901253 C1.80340386,1.49936024 2.43716234,0.963473326 3.18804579,0.963473326 L13.8183414,0.963473326 C14.5692249,0.963473326 15.2029833,1.49936024 15.3257239,2.23981476 L16.0445183,6.4940188 C16.0445183,7.02509235 15.7701571,7.49279006 15.3562085,7.76554687 Z M15.0553738,13.8375948 C15.0553738,14.6799321 14.3702728,15.3658352 13.5271334,15.3658352 L10.993704,15.3658352 L10.993704,11.8272167 C10.993704,11.5616799 10.7779052,11.3458811 10.5123684,11.3458811 L6.4940188,11.3458811 C6.22848202,11.3458811 6.01268325,11.5616799 6.01268325,11.8272167 L6.01268325,15.3658352 L3.4792538,15.3658352 C2.63611436,15.3658352 1.95101343,14.6799321 1.95101343,13.8375948 L1.95101343,8.91914774 C2.123492,8.95685236 2.30238838,8.98091914 2.48690034,8.98091914 C3.30918191,8.98091914 4.03920749,8.57980618 4.49246513,7.96289445 C4.94492055,8.57980618 5.67494614,8.98091914 6.49802993,8.98091914 C7.32031149,8.98091914 8.05033707,8.57980618 8.50359472,7.96289445 C8.95605013,8.57980618 9.68607572,8.98091914 10.5091595,8.98091914 C11.3314411,8.98091914 12.0614667,8.57980618 12.5147243,7.96289445 C12.9671797,8.57980618 13.6972053,8.98091914 14.5202891,8.98091914 C14.7048011,8.98091914 14.8828952,8.95685236 15.0553738,8.91834552 L15.0553738,13.8375948 Z M6.97455212,15.3658352 L10.0318351,15.3658352 L10.0318351,12.3093545 L6.97455212,12.3093545 L6.97455212,15.3658352 Z M16.2755594,2.08097403 C16.0750029,0.875228475 15.0417359,0 13.8183414,0 L3.18804579,0 C1.96465127,0 0.931384289,0.875228475 0.73082781,2.08097403 L0,6.4940188 C0,7.30025584 0.392288473,8.011028 0.988342329,8.4658901 L0.988342329,13.8375948 C0.988342329,15.2110056 2.10584303,16.3285063 3.4792538,16.3285063 L13.5271334,16.3285063 C14.9005442,16.3285063 16.0180449,15.2110056 16.0180449,13.8375948 L16.0180449,8.45947229 C16.6132965,7.99658794 17.0039805,7.26736458 16.9999694,6.4137962 L16.2755594,2.08097403 Z" id="Shop"></path>
                </g>
            </g>
        </g>
    </g>
</svg>