<?xml version="1.0" encoding="UTF-8" standalone="no"?>
<svg width="14px" height="15px" viewBox="0 0 14 15" version="1.1" xmlns="http://www.w3.org/2000/svg" xmlns:xlink="http://www.w3.org/1999/xlink">
    <!-- Generator: sketchtool 50.2 (55047) - http://www.bohemiancoding.com/sketch -->
    <title>4C4621AA-4E06-400E-89F5-642D16B8235C</title>
    <desc>Created with sketchtool.</desc>
    <defs></defs>
    <g id="Pages" stroke="none" stroke-width="1" fill="none" fill-rule="evenodd">
        <g id="Регистрация-4" transform="translate(-811.000000, -294.000000)" fill="#96A2B4" stroke="#96A2B4" stroke-width="0.5">
            <g id="Group-15" transform="translate(812.000000, 272.000000)">
                <path d="M11.1248069,34.9118943 C10.9703468,35.1208307 10.7291515,35.2454374 10.4796391,35.2454374 L1.52036094,35.2454374 C1.27084852,35.2454374 1.02965318,35.1208307 0.875193114,34.9118943 C0.729644202,34.7155444 0.679741718,34.4782882 0.733802742,34.2435494 C1.33203847,31.6733795 3.49744983,29.8779106 6.00029704,29.8779106 C8.50255017,29.8779106 10.6679615,31.6733795 11.2661973,34.2435494 C11.3202583,34.4782882 11.2703558,34.7155444 11.1248069,34.9118943 M3.46655782,26.43927 C3.46655782,24.9597231 4.60302749,23.7551919 6.00029704,23.7551919 C7.39697251,23.7551919 8.53344218,24.9597231 8.53344218,26.43927 C8.53344218,27.9194462 7.39697251,29.1227187 6.00029704,29.1227187 C4.60302749,29.1227187 3.46655782,27.9194462 3.46655782,26.43927 M11.9582972,34.0629327 C11.4212514,31.7545626 9.76734051,29.9993707 7.69282296,29.3725614 C8.62374191,28.7671492 9.24633481,27.6790434 9.24633481,26.43927 C9.24633481,24.5431089 7.79025161,23 6.00029704,23 C4.20974839,23 2.75366519,24.5431089 2.75366519,26.43927 C2.75366519,27.6790434 3.37625809,28.7671492 4.30717704,29.3725614 C2.23265949,29.9993707 0.578748596,31.7545626 0.0417028152,34.0629327 C-0.064637002,34.5204531 0.0345738889,35 0.314384246,35.3769666 C0.606670224,35.7734424 1.04688142,36 1.52036094,36 L10.4796391,36 C10.9531186,36 11.3933298,35.7734424 11.6856158,35.3769666 C11.9654261,35 12.064637,34.5204531 11.9582972,34.0629327" id="User"></path>
            </g>
        </g>
    </g>
</svg>