<?xml version="1.0" encoding="UTF-8"?>
<svg width="77px" height="61px" viewBox="0 0 77 61" version="1.1" xmlns="http://www.w3.org/2000/svg" xmlns:xlink="http://www.w3.org/1999/xlink">
    <!-- Generator: sketchtool 50.2 (55047) - http://www.bohemiancoding.com/sketch -->
    <title>71C725C7-CCD2-4D73-82A7-61CA53141673</title>
    <desc>Created with sketchtool.</desc>
    <defs></defs>
	<g class="default" stroke="none" stroke-width="1" fill="none" fill-rule="evenodd">
        <g id="Рабочий-стол-Icons" transform="translate(-64.000000, -185.000000)">
            <g id="Group-18" transform="translate(64.000000, 50.000000)">
                <g id="Group-13" transform="translate(0.000000, 135.000000)">
                    <g id="Group-5">
                        <polygon id="Shape" fill="#D8DFE5" fill-rule="nonzero" points="30 26 4.16031667 26 3 28 29.8300737 28"></polygon>
                        <polygon id="Shape" fill="#D8DFE5" fill-rule="nonzero" points="28.7282525 60 1 60 3.38838141 28 31 28"></polygon>
                        <polygon id="Shape" fill="#EFF3F7" fill-rule="nonzero" points="3 28 1 60 3 60 5 28"></polygon>
                        <polygon id="Shape" fill="#EFF3F7" fill-rule="nonzero" points="77 60 28 60 31.6750536 16 73.3249464 16"></polygon>
                        <text id="01" font-family="GothamPro-Medium, Gotham Pro" font-size="18" font-weight="400" line-spacing="27" fill="#96A2B4">
                            <tspan x="42" y="41">01</tspan>
                        </text>
                        <polygon id="Shape" fill="#C6CCD2" fill-rule="nonzero" points="29 26 27.1276222 26 25 60 27.0800422 60 28.8627681 28.4273457"></polygon>
                        <polygon id="Shape" fill="#FFFFFF" fill-rule="nonzero" points="31.0001 16 28 60 30.000025 60 33 16"></polygon>
                        <polygon id="Shape" fill="#D8DFE5" fill-rule="nonzero" points="71.9999 16 75 60 72.999975 60 70 16"></polygon>
                        <polygon id="Shape" fill="#EFF3F7" fill-rule="nonzero" points="73 16 32 16 33.2058025 14 71.7941975 14"></polygon>
                        <polygon id="Shape" fill="#C6CCD2" fill-rule="nonzero" points="28 27 3.5897277 27 3 29 27.9135617 29"></polygon>
                        <polygon id="Shape" fill="#D8DFE5" fill-rule="nonzero" points="72.3970987 15 32.6029013 15 32 17 73 17"></polygon>
                        <path d="M76.3740806,61 C76.0517018,61 75.7782583,60.7654151 75.7526181,60.4564858 L72.0021118,16.6394647 C71.9739702,16.3133562 72.2303723,16.027678 72.574639,16.0010206 C72.9214072,15.9825086 73.2206473,16.2178339 73.2473819,16.5433501 L76.9978882,60.3591864 C77.0260298,60.685443 76.7696277,60.9721579 76.425361,60.9976305 C76.4083196,61 76.3911219,61 76.3740806,61 Z" id="Shape" fill="#96A2B4" fill-rule="nonzero"></path>
                        <path d="M75.4024645,60 L27.5975355,60 C27.267232,60 27,59.7765133 27,59.5 C27,59.2237369 27.267232,59 27.5975355,59 L75.4024645,59 C75.732768,59 76,59.2237369 76,59.5 C76,59.7765133 75.732768,60 75.4024645,60 Z" id="Shape" fill="#96A2B4" fill-rule="nonzero"></path>
                        <path d="M27.6259027,61 C27.6088618,61 27.5916645,61 27.5746236,60.9976305 C27.2303661,60.972158 26.9739709,60.6855924 27.0021118,60.3591891 L30.7525176,16.5435372 C30.7794078,16.2180224 31.0845807,15.9809209 31.4252424,16.00121 C31.7694999,16.0277192 32.0258952,16.3133962 31.9979106,16.6396514 L28.2475048,60.4564881 C28.2217089,60.7654161 27.9482728,61 27.6259027,61 Z" id="Shape" fill="#96A2B4" fill-rule="nonzero"></path>
                        <path d="M38.4286021,17 L31.5715409,17 C31.2556856,17 31,16.7763882 31,16.5 C31,16.2236118 31.2556856,16 31.5715409,16 L38.4286021,16 C38.7444573,16 39,16.2236118 39,16.5 C39,16.7763882 38.7444573,17 38.4286021,17 Z" id="Shape" fill="#96A2B4" fill-rule="nonzero"></path>
                        <path d="M71.4285918,17 L64.5714082,17 C64.2555472,17 64,16.7763882 64,16.5 C64,16.2236118 64.2555472,16 64.5714082,16 L71.4285918,16 C71.7444528,16 72,16.2236118 72,16.5 C72,16.7763882 71.7443099,17 71.4285918,17 Z" id="Shape" fill="#96A2B4" fill-rule="nonzero"></path>
                        <path d="M59.384793,17 L44.6155149,17 C44.2752039,17 44,16.7763882 44,16.5 C44,16.2236118 44.2752039,16 44.6155149,16 L59.3846391,16 C59.72495,16 60,16.2236118 60,16.5 C60,16.7763882 59.72495,17 59.384793,17 Z" id="Shape" fill="#96A2B4" fill-rule="nonzero"></path>
                        <path d="M72.4000257,57 L31.6001243,57 C31.2684727,57 31,56.7762631 31,56.5 C31,56.2234867 31.2684727,56 31.6001243,56 L72.4000257,56 C72.7316773,56 73,56.2234867 73,56.5 C73,56.7762631 72.7315273,57 72.4000257,57 Z" id="Shape" fill="#96A2B4" fill-rule="nonzero"></path>
                        <path d="M40.5800416,21.9999519 C40.5630994,21.9999519 40.5471709,21.9993722 40.5302287,21.9976332 C40.2125263,21.9709676 39.9749011,21.6909793 40.0021245,21.3724419 C40.074527,20.4998696 41.8882109,0 51.0000718,0 C60.1119328,0 61.9256166,20.4998696 61.9978744,21.3724419 C62.0250977,21.6909793 61.7876174,21.9711126 61.469915,21.9976332 C61.1522126,22.0264726 60.8705667,21.7883666 60.8446466,21.4686697 C60.8277044,21.2654898 59.0547107,1.15893717 51.0002166,1.15893717 C42.942392,1.15893717 41.1727289,21.2654898 41.1557867,21.4686697 C41.1307354,21.7714107 40.8774713,21.9999519 40.5800416,21.9999519 Z" id="Shape" fill="#96A2B4" fill-rule="nonzero"></path>
                        <path d="M24.4047867,60 L0.595213282,60 C0.266193434,60 0,59.7765133 0,59.5 C0,59.2237369 0.266193434,59 0.595213282,59 L24.4047867,59 C24.7338066,59 25,59.2237369 25,59.5 C25,59.7765133 24.7338066,60 24.4047867,60 Z" id="Shape" fill="#96A2B4" fill-rule="nonzero"></path>
                        <path d="M0.500652821,60 C0.487017967,60 0.474258747,60 0.461624617,59.9976286 C0.186175563,59.9733212 -0.0199734106,59.6875618 0.00154213768,59.3610432 L2.00211285,28.5470499 C2.02262768,28.2194938 2.29032113,27.9758276 2.53837538,28.0019135 C2.81382444,28.0266655 3.01997341,28.3121284 2.99845786,28.6384989 L0.997887148,59.4536778 C0.978247955,59.764041 0.758589219,60 0.500652821,60 Z" id="Shape" fill="#96A2B4" fill-rule="nonzero"></path>
                        <path d="M26.4047867,29 L2.59521328,29 C2.26634231,29 2,28.7762911 2,28.4999375 C2,28.2235838 2.26634231,28 2.59521328,28 L26.4047867,28 C26.7336577,28 27,28.2235838 27,28.4999375 C27,28.7762911 26.7338066,29 26.4047867,29 Z" id="Shape" fill="#96A2B4" fill-rule="nonzero"></path>
                        <path d="M23.416691,57 L3.58330902,57 C3.26086957,57 3,56.7762631 3,56.5 C3,56.2234867 3.26086957,56 3.58330902,56 L23.416691,56 C23.7391304,56 24,56.2234867 24,56.5 C24,56.7762631 23.7391304,57 23.416691,57 Z" id="Shape" fill="#96A2B4" fill-rule="nonzero"></path>
                        <path d="M24.4998072,47 C14.7256771,47 12.0375803,34.8295369 12.0121,34.7059789 C11.9450382,34.3864425 12.1634187,34.075774 12.5015412,34.0111868 C12.8348177,33.9488166 13.1691884,34.1532194 13.237657,34.4754161 C13.2620431,34.5883328 15.7522375,45.818218 24.4998072,45.818218 C25.096641,45.818218 25.6875346,45.765159 26.2563869,45.6612579 C26.5871622,45.5988877 26.9216893,45.8090546 26.988751,46.1297733 C27.0534679,46.4507876 26.83243,46.7599782 26.4932133,46.8223484 C25.847451,46.9398468 25.1760521,47 24.4998072,47 Z" id="Shape" fill="#96A2B4" fill-rule="nonzero"></path>
                        <path d="M26.4000263,27 L3.59997374,27 C3.26832242,27 3,26.7763882 3,26.5 C3,26.2236118 3.26832242,26 3.59997374,26 L26.4000263,26 C26.7315275,26 27,26.2236118 27,26.5 C27,26.7763882 26.7316776,27 26.4000263,27 Z" id="Shape" fill="#96A2B4" fill-rule="nonzero"></path>
                        <path d="M70.4286021,14 L63.5715409,14 C63.2555427,14 63,13.7762911 63,13.4999375 C63,13.2235838 63.2555427,13 63.5715409,13 L70.4286021,13 C70.7444573,13 71,13.2235838 71,13.4999375 C71,13.7762911 70.7444573,14 70.4286021,14 Z" id="Shape" fill="#96A2B4" fill-rule="nonzero"></path>
                        <path d="M40.4285918,14 L33.5714082,14 C33.2555472,14 33,13.7762911 33,13.4999375 C33,13.2235838 33.2555472,13 33.5714082,13 L40.4285918,13 C40.7444528,13 41,13.2235838 41,13.4999375 C41,13.7762911 40.7444528,14 40.4285918,14 Z" id="Shape" fill="#96A2B4" fill-rule="nonzero"></path>
                        <path d="M57.4091111,14 L45.5908889,14 C45.2642595,14 45,13.7762911 45,13.4999375 C45,13.2235838 45.2642595,13 45.5908889,13 L57.4091111,13 C57.7357405,13 58,13.2235838 58,13.4999375 C58,13.7762911 57.7357405,14 57.4091111,14 Z" id="Shape" fill="#96A2B4" fill-rule="nonzero"></path>
                    </g>
                </g>
            </g>
        </g>
    </g>
	<g class="hover" stroke="none" stroke-width="1" fill="none" fill-rule="evenodd">
        <g id="Рабочий-стол" transform="translate(-310.000000, -227.000000)">
            <g id="Group-11" transform="translate(280.000000, 197.000000)">
                <g id="Group-22" transform="translate(30.000000, 30.000000)">
                    <g id="Group-5" fill-rule="nonzero">
                        <polygon id="Shape" fill="#D8DFE5" points="30 26 4.16031667 26 3 28 29.8300737 28"></polygon>
                        <polygon id="Shape" fill="#ADB0FF" points="28.7282525 60 1 60 3.38838141 28 31 28"></polygon>
                        <polygon id="Shape" fill="#EFF3F7" points="3 28 1 60 3 60 5 28"></polygon>
                        <polygon id="Shape" fill="#CACBFF" points="77 60 28 60 31.6750536 16 73.3249464 16"></polygon>
                        <polygon id="Shape" fill="#9597F8" points="29 26 27.1276222 26 25 60 27.0800422 60 28.8627681 28.4273457"></polygon>
                        <polygon id="Shape" fill="#FFFFFF" points="31.0001 16 28 60 30.000025 60 33 16"></polygon>
                        <polygon id="Shape" fill="#ADB0FF" points="71.9999 16 75 60 72.999975 60 70 16"></polygon>
                        <polygon id="Shape" fill="#EFF3F7" points="73 16 32 16 33.2058025 14 71.7941975 14"></polygon>
                        <polygon id="Shape" fill="#9597F8" points="28 27 3.5897277 27 3 29 27.9135617 29"></polygon>
                        <polygon id="Shape" fill="#ADB0FF" points="72.3970987 15 32.6029013 15 32 17 73 17"></polygon>
                        <path d="M76.3740806,61 C76.0517018,61 75.7782583,60.7654151 75.7526181,60.4564858 L72.0021118,16.6394647 C71.9739702,16.3133562 72.2303723,16.027678 72.574639,16.0010206 C72.9214072,15.9825086 73.2206473,16.2178339 73.2473819,16.5433501 L76.9978882,60.3591864 C77.0260298,60.685443 76.7696277,60.9721579 76.425361,60.9976305 C76.4083196,61 76.3911219,61 76.3740806,61 Z" id="Shape" fill="#5559F4"></path>
                        <path d="M75.4024645,60 L27.5975355,60 C27.267232,60 27,59.7765133 27,59.5 C27,59.2237369 27.267232,59 27.5975355,59 L75.4024645,59 C75.732768,59 76,59.2237369 76,59.5 C76,59.7765133 75.732768,60 75.4024645,60 Z" id="Shape" fill="#5559F4"></path>
                        <path d="M27.6259027,61 C27.6088618,61 27.5916645,61 27.5746236,60.9976305 C27.2303661,60.972158 26.9739709,60.6855924 27.0021118,60.3591891 L30.7525176,16.5435372 C30.7794078,16.2180224 31.0845807,15.9809209 31.4252424,16.00121 C31.7694999,16.0277192 32.0258952,16.3133962 31.9979106,16.6396514 L28.2475048,60.4564881 C28.2217089,60.7654161 27.9482728,61 27.6259027,61 Z" id="Shape" fill="#5559F4"></path>
                        <path d="M38.4286021,17 L31.5715409,17 C31.2556856,17 31,16.7763882 31,16.5 C31,16.2236118 31.2556856,16 31.5715409,16 L38.4286021,16 C38.7444573,16 39,16.2236118 39,16.5 C39,16.7763882 38.7444573,17 38.4286021,17 Z" id="Shape" fill="#5559F4"></path>
                        <path d="M71.4285918,17 L64.5714082,17 C64.2555472,17 64,16.7763882 64,16.5 C64,16.2236118 64.2555472,16 64.5714082,16 L71.4285918,16 C71.7444528,16 72,16.2236118 72,16.5 C72,16.7763882 71.7443099,17 71.4285918,17 Z" id="Shape" fill="#5559F4"></path>
                        <path d="M59.384793,17 L44.6155149,17 C44.2752039,17 44,16.7763882 44,16.5 C44,16.2236118 44.2752039,16 44.6155149,16 L59.3846391,16 C59.72495,16 60,16.2236118 60,16.5 C60,16.7763882 59.72495,17 59.384793,17 Z" id="Shape" fill="#5559F4"></path>
                        <path d="M72.4000257,57 L31.6001243,57 C31.2684727,57 31,56.7762631 31,56.5 C31,56.2234867 31.2684727,56 31.6001243,56 L72.4000257,56 C72.7316773,56 73,56.2234867 73,56.5 C73,56.7762631 72.7315273,57 72.4000257,57 Z" id="Shape" fill="#5559F4"></path>
                        <path d="M40.5800416,21.9999519 C40.5630994,21.9999519 40.5471709,21.9993722 40.5302287,21.9976332 C40.2125263,21.9709676 39.9749011,21.6909793 40.0021245,21.3724419 C40.074527,20.4998696 41.8882109,0 51.0000718,0 C60.1119328,0 61.9256166,20.4998696 61.9978744,21.3724419 C62.0250977,21.6909793 61.7876174,21.9711126 61.469915,21.9976332 C61.1522126,22.0264726 60.8705667,21.7883666 60.8446466,21.4686697 C60.8277044,21.2654898 59.0547107,1.15893717 51.0002166,1.15893717 C42.942392,1.15893717 41.1727289,21.2654898 41.1557867,21.4686697 C41.1307354,21.7714107 40.8774713,21.9999519 40.5800416,21.9999519 Z" id="Shape" fill="#5559F4"></path>
                        <path d="M24.4047867,60 L0.595213282,60 C0.266193434,60 0,59.7765133 0,59.5 C0,59.2237369 0.266193434,59 0.595213282,59 L24.4047867,59 C24.7338066,59 25,59.2237369 25,59.5 C25,59.7765133 24.7338066,60 24.4047867,60 Z" id="Shape" fill="#5559F4"></path>
                        <path d="M0.500652821,60 C0.487017967,60 0.474258747,60 0.461624617,59.9976286 C0.186175563,59.9733212 -0.0199734106,59.6875618 0.00154213768,59.3610432 L2.00211285,28.5470499 C2.02262768,28.2194938 2.29032113,27.9758276 2.53837538,28.0019135 C2.81382444,28.0266655 3.01997341,28.3121284 2.99845786,28.6384989 L0.997887148,59.4536778 C0.978247955,59.764041 0.758589219,60 0.500652821,60 Z" id="Shape" fill="#5559F4"></path>
                        <path d="M26.4047867,29 L2.59521328,29 C2.26634231,29 2,28.7762911 2,28.4999375 C2,28.2235838 2.26634231,28 2.59521328,28 L26.4047867,28 C26.7336577,28 27,28.2235838 27,28.4999375 C27,28.7762911 26.7338066,29 26.4047867,29 Z" id="Shape" fill="#5559F4"></path>
                        <path d="M23.416691,57 L3.58330902,57 C3.26086957,57 3,56.7762631 3,56.5 C3,56.2234867 3.26086957,56 3.58330902,56 L23.416691,56 C23.7391304,56 24,56.2234867 24,56.5 C24,56.7762631 23.7391304,57 23.416691,57 Z" id="Shape" fill="#5559F4"></path>
                        <path d="M24.4998072,47 C14.7256771,47 12.0375803,34.8295369 12.0121,34.7059789 C11.9450382,34.3864425 12.1634187,34.075774 12.5015412,34.0111868 C12.8348177,33.9488166 13.1691884,34.1532194 13.237657,34.4754161 C13.2620431,34.5883328 15.7522375,45.818218 24.4998072,45.818218 C25.096641,45.818218 25.6875346,45.765159 26.2563869,45.6612579 C26.5871622,45.5988877 26.9216893,45.8090546 26.988751,46.1297733 C27.0534679,46.4507876 26.83243,46.7599782 26.4932133,46.8223484 C25.847451,46.9398468 25.1760521,47 24.4998072,47 Z" id="Shape" fill="#5559F4"></path>
                        <path d="M26.4000263,27 L3.59997374,27 C3.26832242,27 3,26.7763882 3,26.5 C3,26.2236118 3.26832242,26 3.59997374,26 L26.4000263,26 C26.7315275,26 27,26.2236118 27,26.5 C27,26.7763882 26.7316776,27 26.4000263,27 Z" id="Shape" fill="#5559F4"></path>
                        <path d="M70.4286021,14 L63.5715409,14 C63.2555427,14 63,13.7762911 63,13.4999375 C63,13.2235838 63.2555427,13 63.5715409,13 L70.4286021,13 C70.7444573,13 71,13.2235838 71,13.4999375 C71,13.7762911 70.7444573,14 70.4286021,14 Z" id="Shape" fill="#5559F4"></path>
                        <path d="M40.4285918,14 L33.5714082,14 C33.2555472,14 33,13.7762911 33,13.4999375 C33,13.2235838 33.2555472,13 33.5714082,13 L40.4285918,13 C40.7444528,13 41,13.2235838 41,13.4999375 C41,13.7762911 40.7444528,14 40.4285918,14 Z" id="Shape" fill="#5559F4"></path>
                        <path d="M57.4091111,14 L45.5908889,14 C45.2642595,14 45,13.7762911 45,13.4999375 C45,13.2235838 45.2642595,13 45.5908889,13 L57.4091111,13 C57.7357405,13 58,13.2235838 58,13.4999375 C58,13.7762911 57.7357405,14 57.4091111,14 Z" id="Shape" fill="#5559F4"></path>
                    </g>
                    <text id="01" font-family="GothamPro-Medium, Gotham Pro" font-size="18" font-weight="400" line-spacing="27" fill="#5559F4">
                        <tspan x="41" y="38">01</tspan>
                    </text>
                </g>
            </g>
        </g>
    </g>
</svg>