<?xml version="1.0" encoding="UTF-8"?>
<svg width="66px" height="60px" viewBox="0 0 66 60" version="1.1" xmlns="http://www.w3.org/2000/svg" xmlns:xlink="http://www.w3.org/1999/xlink">
    <!-- Generator: sketchtool 50.2 (55047) - http://www.bohemiancoding.com/sketch -->
    <title>9724C36D-77C0-4D18-BFC4-63A7659C42C3</title>
    <desc>Created with sketchtool.</desc>
    <defs></defs>
    <g class="default" stroke="none" stroke-width="1" fill="none" fill-rule="evenodd">
        <g id="Рабочий-стол" transform="translate(-310.000000, -576.000000)">
            <g id="Group-15" transform="translate(310.000000, 576.000000)">
                <rect id="Rectangle-path" fill="#EFF3F7" fill-rule="nonzero" x="2" y="7" width="61" height="39"></rect>
                <text id="04" font-family="GothamPro-Medium, Gotham Pro" font-size="18" font-weight="400" line-spacing="27" fill="#96A2B4">
                    <tspan x="5" y="22">04</tspan>
                </text>
                <rect id="Rectangle-path" fill="#D8DFE5" fill-rule="nonzero" x="1" y="2" width="65" height="5"></rect>
                <rect id="Rectangle-path" fill="#C6CCD2" fill-rule="nonzero" x="32" y="1" width="2" height="2"></rect>
                <rect id="Rectangle-path" fill="#D8DFE5" fill-rule="nonzero" x="32" y="46" width="2" height="13"></rect>
                <polygon id="Shape" fill="#EFF3F7" fill-rule="nonzero" points="33 53.0572017 19.1143041 60 15 60 33 51"></polygon>
                <polygon id="Shape" fill="#EFF3F7" fill-rule="nonzero" points="33 53.0572017 46.8858246 60 51 60 33 51"></polygon>
                <rect id="Rectangle-path" fill="#D8DFE5" fill-rule="nonzero" x="39" y="13" width="19" height="18"></rect>
                <rect id="Rectangle-path" fill="#D8DFE5" fill-rule="nonzero" x="1" y="2" width="2" height="4"></rect>
                <rect id="Rectangle-path" fill="#FFFFFF" fill-rule="nonzero" x="2" y="7" width="2" height="39"></rect>
                <rect id="Rectangle-path" fill="#D8DFE5" fill-rule="nonzero" x="61" y="7" width="2" height="39"></rect>
                <rect id="Rectangle-path" fill="#C6CCD2" fill-rule="nonzero" x="64" y="2" width="2" height="4"></rect>
                <rect id="Rectangle-path" fill="#C6CCD2" fill-rule="nonzero" x="32" y="46" width="2" height="2"></rect>
                <path d="M34.0302188,3.13125 C33.7454648,3.13125 33.5151094,2.9000431 33.5151094,2.61452586 L33.5151094,1.06448276 L32.4848906,1.06448276 L32.4848906,2.61452586 C32.4848906,2.9000431 32.2544063,3.13125 31.9697813,3.13125 C31.6850273,3.13125 31.4546719,2.9000431 31.4546719,2.61452586 L31.4546719,0.547758621 C31.4546719,0.262112069 31.6850273,0.0310344828 31.9697813,0.0310344828 L34.0300898,0.0310344828 C34.3148438,0.0310344828 34.5451992,0.262112069 34.5451992,0.547758621 L34.5451992,2.61452586 C34.5453281,2.90017241 34.3149727,3.13125 34.0302188,3.13125 Z" id="Shape" fill="#96A2B4" fill-rule="nonzero"></path>
                <path d="M63.3904219,46.5345259 L2.60957813,46.5345259 C2.32495313,46.5345259 2.09446875,46.3034483 2.09446875,46.0178017 L2.09446875,6.74818966 C2.09446875,6.46267241 2.32495313,6.23146552 2.60957813,6.23146552 C2.89433203,6.23146552 3.1246875,6.46267241 3.1246875,6.74818966 L3.1246875,45.5010776 L62.8753125,45.5010776 L62.8753125,6.74818966 C62.8753125,6.46267241 63.1057969,6.23146552 63.3904219,6.23146552 C63.6751758,6.23146552 63.9055313,6.46267241 63.9055313,6.74818966 L63.9055313,46.0178017 C63.9055313,46.3034483 63.6751758,46.5345259 63.3904219,46.5345259 Z" id="Shape" fill="#96A2B4" fill-rule="nonzero"></path>
                <path d="M65.4508594,7.26491379 L0.549269531,7.26491379 C0.264644531,7.26491379 0.0341601562,7.03383621 0.0341601562,6.74818966 L0.0341601562,2.61452586 C0.0341601562,2.32887931 0.264644531,2.09780172 0.549269531,2.09780172 L65.4508594,2.09780172 C65.7354844,2.09780172 65.9658398,2.32887931 65.9658398,2.61452586 L65.9658398,6.74818966 C65.9658398,7.03383621 65.7354844,7.26491379 65.4508594,7.26491379 Z M1.06437891,6.23146552 L64.93575,6.23146552 L64.93575,3.13125 L1.06437891,3.13125 L1.06437891,6.23146552 Z" id="Shape" fill="#96A2B4" fill-rule="nonzero"></path>
                <path d="M62.360332,5.19814655 L3.63979688,5.19814655 C3.35504297,5.19814655 3.1246875,4.96706897 3.1246875,4.68142241 C3.1246875,4.39577586 3.35504297,4.16469828 3.63979688,4.16469828 L62.3602031,4.16469828 C62.6448281,4.16469828 62.8751836,4.39577586 62.8751836,4.68142241 C62.8751836,4.96706897 62.644957,5.19814655 62.360332,5.19814655 Z" id="Shape" fill="#96A2B4" fill-rule="nonzero"></path>
                <path d="M46.9075664,59.9689655 C46.8290625,59.9689655 46.7505586,59.9507328 46.6772109,59.9143966 L32.7696445,52.9390086 C32.5150547,52.8117672 32.4120586,52.5010345 32.5392891,52.2457759 C32.6665195,51.9905172 32.9764102,51.8883621 33.2303555,52.0146983 L47.1379219,58.9900862 C47.3925117,59.1173276 47.4951211,59.4280603 47.3682773,59.683319 C47.2777852,59.8640948 47.096543,59.9689655 46.9075664,59.9689655 Z" id="Shape" fill="#96A2B4" fill-rule="nonzero"></path>
                <path d="M51.0281836,59.9689655 C50.9498086,59.9689655 50.8711758,59.9507328 50.7978281,59.9143966 L32.7696445,50.8719828 C32.5150547,50.745 32.4120586,50.4340086 32.5392891,50.17875 C32.6665195,49.9234914 32.9764102,49.8205603 33.2303555,49.9476724 L51.2585391,58.9900862 C51.5131289,59.1173276 51.6157383,59.4280603 51.4888945,59.683319 C51.3985312,59.8640948 51.2172891,59.9689655 51.0281836,59.9689655 Z" id="Shape" fill="#96A2B4" fill-rule="nonzero"></path>
                <path d="M51.0281836,59.9689655 L46.9074375,59.9689655 C46.6226836,59.9689655 46.3923281,59.7378879 46.3923281,59.4522414 C46.3923281,59.1665948 46.6226836,58.9355172 46.9074375,58.9355172 L51.0281836,58.9355172 C51.3129375,58.9355172 51.543293,59.1665948 51.543293,59.4522414 C51.543293,59.7378879 51.3129375,59.9689655 51.0281836,59.9689655 Z" id="Shape" fill="#96A2B4" fill-rule="nonzero"></path>
                <path d="M19.0930781,59.9689655 C18.9039727,59.9689655 18.7223438,59.8640948 18.6317227,59.683319 C18.5044922,59.427931 18.6076172,59.1173276 18.862207,58.9900862 L32.7696445,52.0146983 C33.02475,51.8883621 33.3330938,51.9903879 33.4607109,52.2457759 C33.5880703,52.5011638 33.4849453,52.8117672 33.2303555,52.9390086 L19.322918,59.9143966 C19.2489258,59.9507328 19.1705508,59.9689655 19.0930781,59.9689655 Z" id="Shape" fill="#96A2B4" fill-rule="nonzero"></path>
                <path d="M14.972332,59.9689655 C14.7832266,59.9689655 14.6015977,59.8640948 14.5109766,59.683319 C14.3837461,59.427931 14.4868711,59.1173276 14.741332,58.9900862 L32.7695156,49.9476724 C33.0246211,49.8206897 33.3329648,49.9233621 33.460582,50.17875 C33.5879414,50.4341379 33.4848164,50.745 33.2302266,50.8719828 L15.202043,59.9143966 C15.1281797,59.9507328 15.0498047,59.9689655 14.972332,59.9689655 Z" id="Shape" fill="#96A2B4" fill-rule="nonzero"></path>
                <path d="M19.0925625,59.9689655 L14.9718164,59.9689655 C14.6871914,59.9689655 14.456707,59.7378879 14.456707,59.4522414 C14.456707,59.1665948 14.6870625,58.9355172 14.9718164,58.9355172 L19.0925625,58.9355172 C19.3771875,58.9355172 19.6076719,59.1665948 19.6076719,59.4522414 C19.6076719,59.7378879 19.3771875,59.9689655 19.0925625,59.9689655 Z" id="Shape" fill="#96A2B4" fill-rule="nonzero"></path>
                <path d="M31.9699102,51.4432759 C31.6851563,51.4432759 31.4548008,51.2121983 31.4548008,50.9265517 L31.4548008,46.0178017 C31.4548008,45.7321552 31.6851563,45.5010776 31.9699102,45.5010776 C32.2545352,45.5010776 32.4850195,45.7321552 32.4850195,46.0178017 L32.4850195,50.9265517 C32.4848906,51.2121983 32.2545352,51.4432759 31.9699102,51.4432759 Z" id="Shape" fill="#96A2B4" fill-rule="nonzero"></path>
                <path d="M34.0302188,51.4432759 C33.7454648,51.4432759 33.5151094,51.2121983 33.5151094,50.9265517 L33.5151094,46.0178017 C33.5151094,45.7321552 33.7454648,45.5010776 34.0302188,45.5010776 C34.3149727,45.5010776 34.5453281,45.7321552 34.5453281,46.0178017 L34.5453281,50.9265517 C34.5453281,51.2121983 34.3149727,51.4432759 34.0302188,51.4432759 Z" id="Shape" fill="#96A2B4" fill-rule="nonzero"></path>
                <path d="M34.0302188,59.9689655 C33.7454648,59.9689655 33.5151094,59.7378879 33.5151094,59.4522414 L33.5151094,52.9935776 C33.5151094,52.707931 33.7454648,52.4768534 34.0302188,52.4768534 C34.3149727,52.4768534 34.5453281,52.707931 34.5453281,52.9935776 L34.5453281,59.4522414 C34.5453281,59.7378879 34.3149727,59.9689655 34.0302188,59.9689655 Z" id="Shape" fill="#96A2B4" fill-rule="nonzero"></path>
                <path d="M34.0302187,59.9689655 L31.9699102,59.9689655 C31.6851563,59.9689655 31.4548008,59.7378879 31.4548008,59.4522414 C31.4548008,59.1665948 31.6851563,58.9355172 31.9699102,58.9355172 L34.0302187,58.9355172 C34.3149727,58.9355172 34.5453281,59.1665948 34.5453281,59.4522414 C34.5453281,59.7378879 34.3149727,59.9689655 34.0302187,59.9689655 Z" id="Shape" fill="#96A2B4" fill-rule="nonzero"></path>
                <path d="M31.9699102,59.9689655 C31.6851563,59.9689655 31.4548008,59.7378879 31.4548008,59.4522414 L31.4548008,52.9935776 C31.4548008,52.707931 31.6851563,52.4768534 31.9699102,52.4768534 C32.2545352,52.4768534 32.4850195,52.707931 32.4850195,52.9935776 L32.4850195,59.4522414 C32.4848906,59.7378879 32.2545352,59.9689655 31.9699102,59.9689655 Z" id="Shape" fill="#96A2B4" fill-rule="nonzero"></path>
                <path d="M33,43.4344397 C32.715375,43.4344397 32.4848906,43.2033621 32.4848906,42.9177155 L32.4848906,9.84853448 C32.4848906,9.56288793 32.7152461,9.33181034 33,9.33181034 C33.2847539,9.33181034 33.5151094,9.56288793 33.5151094,9.84853448 L33.5151094,42.9177155 C33.5151094,43.2032328 33.2847539,43.4344397 33,43.4344397 Z" id="Shape" fill="#96A2B4" fill-rule="nonzero"></path>
                <path d="M38.6660742,31.0334483 C38.3813203,31.0334483 38.1509648,30.8023707 38.1509648,30.5167241 L38.1509648,12.9486207 C38.1509648,12.6631034 38.3813203,12.4318966 38.6660742,12.4318966 C38.9506992,12.4318966 39.1811836,12.6629741 39.1811836,12.9486207 L39.1811836,30.5167241 C39.1811836,30.8023707 38.9506992,31.0334483 38.6660742,31.0334483 Z" id="Shape" fill="#96A2B4" fill-rule="nonzero"></path>
                <path d="M58.2395859,31.0334483 L38.6660742,31.0334483 C38.3813203,31.0334483 38.1509648,30.8023707 38.1509648,30.5167241 C38.1509648,30.2310776 38.3813203,30 38.6660742,30 L58.2395859,30 C58.5242109,30 58.7545664,30.2310776 58.7545664,30.5167241 C58.7545664,30.8023707 58.5242109,31.0334483 58.2395859,31.0334483 Z" id="Shape" fill="#96A2B4" fill-rule="nonzero"></path>
                <path d="M58.2395859,36.2005603 L38.6660742,36.2005603 C38.3813203,36.2005603 38.1509648,35.9692241 38.1509648,35.6838362 C38.1509648,35.3981897 38.3813203,35.1671121 38.6660742,35.1671121 L58.2395859,35.1671121 C58.5242109,35.1671121 58.7545664,35.3981897 58.7545664,35.6838362 C58.7545664,35.9692241 58.5242109,36.2005603 58.2395859,36.2005603 Z" id="Shape" fill="#96A2B4" fill-rule="nonzero"></path>
                <path d="M56.1791484,38.2673276 L40.7263828,38.2673276 C40.4416289,38.2673276 40.2112734,38.03625 40.2112734,37.7506034 C40.2112734,37.4649569 40.4416289,37.2338793 40.7263828,37.2338793 L56.1791484,37.2338793 C56.4637734,37.2338793 56.6942578,37.4649569 56.6942578,37.7506034 C56.6942578,38.03625 56.4637734,38.2673276 56.1791484,38.2673276 Z" id="Shape" fill="#96A2B4" fill-rule="nonzero"></path>
                <path d="M53.0886211,40.3342241 L43.8169102,40.3342241 C43.5322852,40.3342241 43.3019297,40.1031466 43.3019297,39.8175 C43.3019297,39.5318534 43.5322852,39.3007759 43.8169102,39.3007759 L53.0886211,39.3007759 C53.373375,39.3007759 53.6037305,39.5318534 53.6037305,39.8175 C53.6037305,40.1031466 53.373375,40.3342241 53.0886211,40.3342241 Z" id="Shape" fill="#96A2B4" fill-rule="nonzero"></path>
                <path d="M27.3340547,36.2005603 L7.76054297,36.2005603 C7.47578906,36.2005603 7.24543359,35.9692241 7.24543359,35.6838362 C7.24543359,35.3981897 7.47578906,35.1671121 7.76054297,35.1671121 L27.3340547,35.1671121 C27.6186797,35.1671121 27.8491641,35.3981897 27.8491641,35.6838362 C27.8491641,35.9692241 27.6186797,36.2005603 27.3340547,36.2005603 Z" id="Shape" fill="#96A2B4" fill-rule="nonzero"></path>
                <path d="M25.2736172,38.2673276 L9.82098047,38.2673276 C9.53622656,38.2673276 9.30587109,38.03625 9.30587109,37.7506034 C9.30587109,37.4649569 9.53622656,37.2338793 9.82098047,37.2338793 L25.2737461,37.2338793 C25.5583711,37.2338793 25.7888555,37.4649569 25.7888555,37.7506034 C25.7888555,38.03625 25.5583711,38.2673276 25.2736172,38.2673276 Z" id="Shape" fill="#96A2B4" fill-rule="nonzero"></path>
                <path d="M22.1830898,40.3342241 L12.9115078,40.3342241 C12.6268828,40.3342241 12.3963984,40.1031466 12.3963984,39.8175 C12.3963984,39.5318534 12.6267539,39.3007759 12.9115078,39.3007759 L22.1830898,39.3007759 C22.4678438,39.3007759 22.6981992,39.5318534 22.6981992,39.8175 C22.6981992,40.1031466 22.4678438,40.3342241 22.1830898,40.3342241 Z" id="Shape" fill="#96A2B4" fill-rule="nonzero"></path>
                <path d="M40.7263828,26.8997845 C40.5946406,26.8997845 40.4627695,26.8492241 40.3622227,26.7483621 C40.1608711,26.5465086 40.1608711,26.2196121 40.3622227,26.0177586 L46.5432773,19.8173276 C46.7445,19.6154741 47.070375,19.6154741 47.2715977,19.8173276 C47.4728203,20.019181 47.4728203,20.3460776 47.2715977,20.547931 L41.090543,26.7483621 C40.9898672,26.8492241 40.8582539,26.8997845 40.7263828,26.8997845 Z" id="Shape" fill="#96A2B4" fill-rule="nonzero"></path>
                <path d="M49.9979648,23.7994397 C49.8663516,23.7994397 49.7343516,23.7490086 49.6339336,23.6481466 L46.5432773,20.547931 C46.3419258,20.3460776 46.3419258,20.0190517 46.5432773,19.8173276 C46.7445,19.6154741 47.070375,19.6154741 47.2715977,19.8173276 L50.3622539,22.9175431 C50.5634766,23.1193966 50.5634766,23.4462931 50.3622539,23.6481466 C50.2615781,23.7491379 50.1298359,23.7994397 49.9979648,23.7994397 Z" id="Shape" fill="#96A2B4" fill-rule="nonzero"></path>
                <path d="M49.9979648,23.7994397 C49.8663516,23.7994397 49.7343516,23.7490086 49.6339336,23.6481466 C49.432582,23.4462931 49.432582,23.1193966 49.6339336,22.9175431 L57.8754258,14.6502155 C58.0766484,14.4483621 58.4025234,14.4483621 58.6037461,14.6502155 C58.8049688,14.8521983 58.8049688,15.1790948 58.6037461,15.380819 L50.3622539,23.6481466 C50.2615781,23.7491379 50.1298359,23.7994397 49.9979648,23.7994397 Z" id="Shape" fill="#96A2B4" fill-rule="nonzero"></path>
                <path d="M58.2395859,17.5990086 C57.954832,17.5990086 57.7244766,17.367931 57.7244766,17.0822845 L57.7244766,15.0155172 C57.7244766,14.73 57.954832,14.4987931 58.2395859,14.4987931 C58.5242109,14.4987931 58.7545664,14.73 58.7545664,15.0155172 L58.7545664,17.0822845 C58.7545664,17.367931 58.5242109,17.5990086 58.2395859,17.5990086 Z" id="Shape" fill="#96A2B4" fill-rule="nonzero"></path>
                <path d="M58.2395859,15.5322414 L56.1792773,15.5322414 C55.8945234,15.5322414 55.664168,15.3011638 55.664168,15.0155172 C55.664168,14.73 55.8945234,14.4987931 56.1792773,14.4987931 L58.2395859,14.4987931 C58.5242109,14.4987931 58.7545664,14.73 58.7545664,15.0155172 C58.7545664,15.3011638 58.5242109,15.5322414 58.2395859,15.5322414 Z" id="Shape" fill="#96A2B4" fill-rule="nonzero"></path>
            </g>
        </g>
    </g>
	<g class="hover" stroke="none" stroke-width="1" fill="none" fill-rule="evenodd">
        <g id="Рабочий-стол-Icons" transform="translate(-491.000000, -59.000000)">
            <g id="Group-18" transform="translate(64.000000, 50.000000)">
                <g id="Group-11" transform="translate(427.000000, 9.000000)">
                    <rect id="Rectangle-path" fill="#CACBFF" fill-rule="nonzero" x="2" y="7" width="61" height="39"></rect>
                    <text id="04" font-family="GothamPro-Medium, Gotham Pro" font-size="18" font-weight="400" line-spacing="27" fill="#5559F4">
                        <tspan x="5" y="26">04</tspan>
                    </text>
                    <rect id="Rectangle-path" fill="#ADB0FF" fill-rule="nonzero" x="1" y="2" width="65" height="5"></rect>
                    <rect id="Rectangle-path" fill="#9597F8" fill-rule="nonzero" x="32" y="1" width="2" height="2"></rect>
                    <rect id="Rectangle-path" fill="#ADB0FF" fill-rule="nonzero" x="32" y="46" width="2" height="13"></rect>
                    <polygon id="Shape" fill="#CACBFF" fill-rule="nonzero" points="33 53.0572017 19.1143041 60 15 60 33 51"></polygon>
                    <polygon id="Shape" fill="#CACBFF" fill-rule="nonzero" points="33 53.0572017 46.8858246 60 51 60 33 51"></polygon>
                    <rect id="Rectangle-path" fill="#ADB0FF" fill-rule="nonzero" x="39" y="13" width="19" height="18"></rect>
                    <rect id="Rectangle-path" fill="#ADB0FF" fill-rule="nonzero" x="1" y="2" width="2" height="4"></rect>
                    <rect id="Rectangle-path" fill="#FFFFFF" fill-rule="nonzero" x="2" y="7" width="2" height="39"></rect>
                    <rect id="Rectangle-path" fill="#ADB0FF" fill-rule="nonzero" x="61" y="7" width="2" height="39"></rect>
                    <rect id="Rectangle-path" fill="#9597F8" fill-rule="nonzero" x="64" y="2" width="2" height="4"></rect>
                    <rect id="Rectangle-path" fill="#9597F8" fill-rule="nonzero" x="32" y="46" width="2" height="2"></rect>
                    <path d="M34.0302188,3.13125 C33.7454648,3.13125 33.5151094,2.9000431 33.5151094,2.61452586 L33.5151094,1.06448276 L32.4848906,1.06448276 L32.4848906,2.61452586 C32.4848906,2.9000431 32.2544063,3.13125 31.9697813,3.13125 C31.6850273,3.13125 31.4546719,2.9000431 31.4546719,2.61452586 L31.4546719,0.547758621 C31.4546719,0.262112069 31.6850273,0.0310344828 31.9697813,0.0310344828 L34.0300898,0.0310344828 C34.3148438,0.0310344828 34.5451992,0.262112069 34.5451992,0.547758621 L34.5451992,2.61452586 C34.5453281,2.90017241 34.3149727,3.13125 34.0302188,3.13125 Z" id="Shape" fill="#5559F4" fill-rule="nonzero"></path>
                    <path d="M63.3904219,46.5345259 L2.60957813,46.5345259 C2.32495313,46.5345259 2.09446875,46.3034483 2.09446875,46.0178017 L2.09446875,6.74818966 C2.09446875,6.46267241 2.32495313,6.23146552 2.60957813,6.23146552 C2.89433203,6.23146552 3.1246875,6.46267241 3.1246875,6.74818966 L3.1246875,45.5010776 L62.8753125,45.5010776 L62.8753125,6.74818966 C62.8753125,6.46267241 63.1057969,6.23146552 63.3904219,6.23146552 C63.6751758,6.23146552 63.9055313,6.46267241 63.9055313,6.74818966 L63.9055313,46.0178017 C63.9055313,46.3034483 63.6751758,46.5345259 63.3904219,46.5345259 Z" id="Shape" fill="#5559F4" fill-rule="nonzero"></path>
                    <path d="M65.4508594,7.26491379 L0.549269531,7.26491379 C0.264644531,7.26491379 0.0341601562,7.03383621 0.0341601562,6.74818966 L0.0341601562,2.61452586 C0.0341601562,2.32887931 0.264644531,2.09780172 0.549269531,2.09780172 L65.4508594,2.09780172 C65.7354844,2.09780172 65.9658398,2.32887931 65.9658398,2.61452586 L65.9658398,6.74818966 C65.9658398,7.03383621 65.7354844,7.26491379 65.4508594,7.26491379 Z M1.06437891,6.23146552 L64.93575,6.23146552 L64.93575,3.13125 L1.06437891,3.13125 L1.06437891,6.23146552 Z" id="Shape" fill="#5559F4" fill-rule="nonzero"></path>
                    <path d="M62.360332,5.19814655 L3.63979688,5.19814655 C3.35504297,5.19814655 3.1246875,4.96706897 3.1246875,4.68142241 C3.1246875,4.39577586 3.35504297,4.16469828 3.63979688,4.16469828 L62.3602031,4.16469828 C62.6448281,4.16469828 62.8751836,4.39577586 62.8751836,4.68142241 C62.8751836,4.96706897 62.644957,5.19814655 62.360332,5.19814655 Z" id="Shape" fill="#5559F4" fill-rule="nonzero"></path>
                    <path d="M46.9075664,59.9689655 C46.8290625,59.9689655 46.7505586,59.9507328 46.6772109,59.9143966 L32.7696445,52.9390086 C32.5150547,52.8117672 32.4120586,52.5010345 32.5392891,52.2457759 C32.6665195,51.9905172 32.9764102,51.8883621 33.2303555,52.0146983 L47.1379219,58.9900862 C47.3925117,59.1173276 47.4951211,59.4280603 47.3682773,59.683319 C47.2777852,59.8640948 47.096543,59.9689655 46.9075664,59.9689655 Z" id="Shape" fill="#5559F4" fill-rule="nonzero"></path>
                    <path d="M51.0281836,59.9689655 C50.9498086,59.9689655 50.8711758,59.9507328 50.7978281,59.9143966 L32.7696445,50.8719828 C32.5150547,50.745 32.4120586,50.4340086 32.5392891,50.17875 C32.6665195,49.9234914 32.9764102,49.8205603 33.2303555,49.9476724 L51.2585391,58.9900862 C51.5131289,59.1173276 51.6157383,59.4280603 51.4888945,59.683319 C51.3985312,59.8640948 51.2172891,59.9689655 51.0281836,59.9689655 Z" id="Shape" fill="#5559F4" fill-rule="nonzero"></path>
                    <path d="M51.0281836,59.9689655 L46.9074375,59.9689655 C46.6226836,59.9689655 46.3923281,59.7378879 46.3923281,59.4522414 C46.3923281,59.1665948 46.6226836,58.9355172 46.9074375,58.9355172 L51.0281836,58.9355172 C51.3129375,58.9355172 51.543293,59.1665948 51.543293,59.4522414 C51.543293,59.7378879 51.3129375,59.9689655 51.0281836,59.9689655 Z" id="Shape" fill="#5559F4" fill-rule="nonzero"></path>
                    <path d="M19.0930781,59.9689655 C18.9039727,59.9689655 18.7223438,59.8640948 18.6317227,59.683319 C18.5044922,59.427931 18.6076172,59.1173276 18.862207,58.9900862 L32.7696445,52.0146983 C33.02475,51.8883621 33.3330938,51.9903879 33.4607109,52.2457759 C33.5880703,52.5011638 33.4849453,52.8117672 33.2303555,52.9390086 L19.322918,59.9143966 C19.2489258,59.9507328 19.1705508,59.9689655 19.0930781,59.9689655 Z" id="Shape" fill="#5559F4" fill-rule="nonzero"></path>
                    <path d="M14.972332,59.9689655 C14.7832266,59.9689655 14.6015977,59.8640948 14.5109766,59.683319 C14.3837461,59.427931 14.4868711,59.1173276 14.741332,58.9900862 L32.7695156,49.9476724 C33.0246211,49.8206897 33.3329648,49.9233621 33.460582,50.17875 C33.5879414,50.4341379 33.4848164,50.745 33.2302266,50.8719828 L15.202043,59.9143966 C15.1281797,59.9507328 15.0498047,59.9689655 14.972332,59.9689655 Z" id="Shape" fill="#5559F4" fill-rule="nonzero"></path>
                    <path d="M19.0925625,59.9689655 L14.9718164,59.9689655 C14.6871914,59.9689655 14.456707,59.7378879 14.456707,59.4522414 C14.456707,59.1665948 14.6870625,58.9355172 14.9718164,58.9355172 L19.0925625,58.9355172 C19.3771875,58.9355172 19.6076719,59.1665948 19.6076719,59.4522414 C19.6076719,59.7378879 19.3771875,59.9689655 19.0925625,59.9689655 Z" id="Shape" fill="#5559F4" fill-rule="nonzero"></path>
                    <path d="M31.9699102,51.4432759 C31.6851563,51.4432759 31.4548008,51.2121983 31.4548008,50.9265517 L31.4548008,46.0178017 C31.4548008,45.7321552 31.6851563,45.5010776 31.9699102,45.5010776 C32.2545352,45.5010776 32.4850195,45.7321552 32.4850195,46.0178017 L32.4850195,50.9265517 C32.4848906,51.2121983 32.2545352,51.4432759 31.9699102,51.4432759 Z" id="Shape" fill="#5559F4" fill-rule="nonzero"></path>
                    <path d="M34.0302188,51.4432759 C33.7454648,51.4432759 33.5151094,51.2121983 33.5151094,50.9265517 L33.5151094,46.0178017 C33.5151094,45.7321552 33.7454648,45.5010776 34.0302188,45.5010776 C34.3149727,45.5010776 34.5453281,45.7321552 34.5453281,46.0178017 L34.5453281,50.9265517 C34.5453281,51.2121983 34.3149727,51.4432759 34.0302188,51.4432759 Z" id="Shape" fill="#5559F4" fill-rule="nonzero"></path>
                    <path d="M34.0302188,59.9689655 C33.7454648,59.9689655 33.5151094,59.7378879 33.5151094,59.4522414 L33.5151094,52.9935776 C33.5151094,52.707931 33.7454648,52.4768534 34.0302188,52.4768534 C34.3149727,52.4768534 34.5453281,52.707931 34.5453281,52.9935776 L34.5453281,59.4522414 C34.5453281,59.7378879 34.3149727,59.9689655 34.0302188,59.9689655 Z" id="Shape" fill="#5559F4" fill-rule="nonzero"></path>
                    <path d="M34.0302187,59.9689655 L31.9699102,59.9689655 C31.6851563,59.9689655 31.4548008,59.7378879 31.4548008,59.4522414 C31.4548008,59.1665948 31.6851563,58.9355172 31.9699102,58.9355172 L34.0302187,58.9355172 C34.3149727,58.9355172 34.5453281,59.1665948 34.5453281,59.4522414 C34.5453281,59.7378879 34.3149727,59.9689655 34.0302187,59.9689655 Z" id="Shape" fill="#5559F4" fill-rule="nonzero"></path>
                    <path d="M31.9699102,59.9689655 C31.6851563,59.9689655 31.4548008,59.7378879 31.4548008,59.4522414 L31.4548008,52.9935776 C31.4548008,52.707931 31.6851563,52.4768534 31.9699102,52.4768534 C32.2545352,52.4768534 32.4850195,52.707931 32.4850195,52.9935776 L32.4850195,59.4522414 C32.4848906,59.7378879 32.2545352,59.9689655 31.9699102,59.9689655 Z" id="Shape" fill="#5559F4" fill-rule="nonzero"></path>
                    <path d="M33,43.4344397 C32.715375,43.4344397 32.4848906,43.2033621 32.4848906,42.9177155 L32.4848906,9.84853448 C32.4848906,9.56288793 32.7152461,9.33181034 33,9.33181034 C33.2847539,9.33181034 33.5151094,9.56288793 33.5151094,9.84853448 L33.5151094,42.9177155 C33.5151094,43.2032328 33.2847539,43.4344397 33,43.4344397 Z" id="Shape" fill="#5559F4" fill-rule="nonzero"></path>
                    <path d="M38.6660742,31.0334483 C38.3813203,31.0334483 38.1509648,30.8023707 38.1509648,30.5167241 L38.1509648,12.9486207 C38.1509648,12.6631034 38.3813203,12.4318966 38.6660742,12.4318966 C38.9506992,12.4318966 39.1811836,12.6629741 39.1811836,12.9486207 L39.1811836,30.5167241 C39.1811836,30.8023707 38.9506992,31.0334483 38.6660742,31.0334483 Z" id="Shape" fill="#5559F4" fill-rule="nonzero"></path>
                    <path d="M58.2395859,31.0334483 L38.6660742,31.0334483 C38.3813203,31.0334483 38.1509648,30.8023707 38.1509648,30.5167241 C38.1509648,30.2310776 38.3813203,30 38.6660742,30 L58.2395859,30 C58.5242109,30 58.7545664,30.2310776 58.7545664,30.5167241 C58.7545664,30.8023707 58.5242109,31.0334483 58.2395859,31.0334483 Z" id="Shape" fill="#5559F4" fill-rule="nonzero"></path>
                    <path d="M58.2395859,36.2005603 L38.6660742,36.2005603 C38.3813203,36.2005603 38.1509648,35.9692241 38.1509648,35.6838362 C38.1509648,35.3981897 38.3813203,35.1671121 38.6660742,35.1671121 L58.2395859,35.1671121 C58.5242109,35.1671121 58.7545664,35.3981897 58.7545664,35.6838362 C58.7545664,35.9692241 58.5242109,36.2005603 58.2395859,36.2005603 Z" id="Shape" fill="#5559F4" fill-rule="nonzero"></path>
                    <path d="M56.1791484,38.2673276 L40.7263828,38.2673276 C40.4416289,38.2673276 40.2112734,38.03625 40.2112734,37.7506034 C40.2112734,37.4649569 40.4416289,37.2338793 40.7263828,37.2338793 L56.1791484,37.2338793 C56.4637734,37.2338793 56.6942578,37.4649569 56.6942578,37.7506034 C56.6942578,38.03625 56.4637734,38.2673276 56.1791484,38.2673276 Z" id="Shape" fill="#5559F4" fill-rule="nonzero"></path>
                    <path d="M53.0886211,40.3342241 L43.8169102,40.3342241 C43.5322852,40.3342241 43.3019297,40.1031466 43.3019297,39.8175 C43.3019297,39.5318534 43.5322852,39.3007759 43.8169102,39.3007759 L53.0886211,39.3007759 C53.373375,39.3007759 53.6037305,39.5318534 53.6037305,39.8175 C53.6037305,40.1031466 53.373375,40.3342241 53.0886211,40.3342241 Z" id="Shape" fill="#5559F4" fill-rule="nonzero"></path>
                    <path d="M27.3340547,36.2005603 L7.76054297,36.2005603 C7.47578906,36.2005603 7.24543359,35.9692241 7.24543359,35.6838362 C7.24543359,35.3981897 7.47578906,35.1671121 7.76054297,35.1671121 L27.3340547,35.1671121 C27.6186797,35.1671121 27.8491641,35.3981897 27.8491641,35.6838362 C27.8491641,35.9692241 27.6186797,36.2005603 27.3340547,36.2005603 Z" id="Shape" fill="#5559F4" fill-rule="nonzero"></path>
                    <path d="M25.2736172,38.2673276 L9.82098047,38.2673276 C9.53622656,38.2673276 9.30587109,38.03625 9.30587109,37.7506034 C9.30587109,37.4649569 9.53622656,37.2338793 9.82098047,37.2338793 L25.2737461,37.2338793 C25.5583711,37.2338793 25.7888555,37.4649569 25.7888555,37.7506034 C25.7888555,38.03625 25.5583711,38.2673276 25.2736172,38.2673276 Z" id="Shape" fill="#5559F4" fill-rule="nonzero"></path>
                    <path d="M22.1830898,40.3342241 L12.9115078,40.3342241 C12.6268828,40.3342241 12.3963984,40.1031466 12.3963984,39.8175 C12.3963984,39.5318534 12.6267539,39.3007759 12.9115078,39.3007759 L22.1830898,39.3007759 C22.4678438,39.3007759 22.6981992,39.5318534 22.6981992,39.8175 C22.6981992,40.1031466 22.4678438,40.3342241 22.1830898,40.3342241 Z" id="Shape" fill="#5559F4" fill-rule="nonzero"></path>
                    <path d="M40.7263828,26.8997845 C40.5946406,26.8997845 40.4627695,26.8492241 40.3622227,26.7483621 C40.1608711,26.5465086 40.1608711,26.2196121 40.3622227,26.0177586 L46.5432773,19.8173276 C46.7445,19.6154741 47.070375,19.6154741 47.2715977,19.8173276 C47.4728203,20.019181 47.4728203,20.3460776 47.2715977,20.547931 L41.090543,26.7483621 C40.9898672,26.8492241 40.8582539,26.8997845 40.7263828,26.8997845 Z" id="Shape" fill="#5559F4" fill-rule="nonzero"></path>
                    <path d="M49.9979648,23.7994397 C49.8663516,23.7994397 49.7343516,23.7490086 49.6339336,23.6481466 L46.5432773,20.547931 C46.3419258,20.3460776 46.3419258,20.0190517 46.5432773,19.8173276 C46.7445,19.6154741 47.070375,19.6154741 47.2715977,19.8173276 L50.3622539,22.9175431 C50.5634766,23.1193966 50.5634766,23.4462931 50.3622539,23.6481466 C50.2615781,23.7491379 50.1298359,23.7994397 49.9979648,23.7994397 Z" id="Shape" fill="#5559F4" fill-rule="nonzero"></path>
                    <path d="M49.9979648,23.7994397 C49.8663516,23.7994397 49.7343516,23.7490086 49.6339336,23.6481466 C49.432582,23.4462931 49.432582,23.1193966 49.6339336,22.9175431 L57.8754258,14.6502155 C58.0766484,14.4483621 58.4025234,14.4483621 58.6037461,14.6502155 C58.8049688,14.8521983 58.8049688,15.1790948 58.6037461,15.380819 L50.3622539,23.6481466 C50.2615781,23.7491379 50.1298359,23.7994397 49.9979648,23.7994397 Z" id="Shape" fill="#5559F4" fill-rule="nonzero"></path>
                    <path d="M58.2395859,17.5990086 C57.954832,17.5990086 57.7244766,17.367931 57.7244766,17.0822845 L57.7244766,15.0155172 C57.7244766,14.73 57.954832,14.4987931 58.2395859,14.4987931 C58.5242109,14.4987931 58.7545664,14.73 58.7545664,15.0155172 L58.7545664,17.0822845 C58.7545664,17.367931 58.5242109,17.5990086 58.2395859,17.5990086 Z" id="Shape" fill="#5559F4" fill-rule="nonzero"></path>
                    <path d="M58.2395859,15.5322414 L56.1792773,15.5322414 C55.8945234,15.5322414 55.664168,15.3011638 55.664168,15.0155172 C55.664168,14.73 55.8945234,14.4987931 56.1792773,14.4987931 L58.2395859,14.4987931 C58.5242109,14.4987931 58.7545664,14.73 58.7545664,15.0155172 C58.7545664,15.3011638 58.5242109,15.5322414 58.2395859,15.5322414 Z" id="Shape" fill="#5559F4" fill-rule="nonzero"></path>
                </g>
            </g>
        </g>
    </g>
</svg>