<?xml version="1.0" encoding="UTF-8"?>
<svg width="65px" height="65px" viewBox="0 0 65 65" version="1.1" xmlns="http://www.w3.org/2000/svg" xmlns:xlink="http://www.w3.org/1999/xlink">
    <!-- Generator: sketchtool 50.2 (55047) - http://www.bohemiancoding.com/sketch -->
    <title>84556C09-A30B-454E-AD0C-7A3F655D832E</title>
    <desc>Created with sketchtool.</desc>
    <defs></defs>
    <g class="default" stroke="none" stroke-width="1" fill="none" fill-rule="evenodd">
        <g id="Рабочий-стол" transform="translate(-690.000000, -573.000000)">
            <g id="Group-11-Copy-4" transform="translate(663.000000, 546.000000)">
                <g id="Group-21" transform="translate(27.000000, 27.000000)">
                    <g id="Group-16" fill-rule="nonzero">
                        <rect id="Rectangle-path" fill="#FFFFFF" x="0" y="28" width="53" height="33"></rect>
                        <rect id="Rectangle-path" fill="#D8DFE5" x="4" y="44" width="20" height="15"></rect>
                        <path d="M53,28 L53,26.9999375 C53,26.450197 52.5411355,26 51.9808109,26 L1.0191891,26 C0.458864527,26 0,26.450197 0,26.9999375 L0,28 L53,28 Z" id="Shape" fill="#EFF3F7"></path>
                        <rect id="Rectangle-path" fill="#D8DFE5" x="4" y="32" width="44" height="9"></rect>
                        <polygon id="Shape" fill="#EFF3F7" points="16 55.1834325 14.8879936 57 9 57 13.1377359 51"></polygon>
                        <polygon id="Shape" fill="#FFFFFF" points="25 58 14 58 19.5 49"></polygon>
                        <polygon id="Shape" fill="#D8DFE5" points="14.4585451 54 13 56 14.0286229 56 15 54.6654539"></polygon>
                        <circle id="Oval" fill="#FFFFFF" cx="8.5" cy="47.5" r="1.5"></circle>
                        <path d="M44.2222685,56.5 C44.2222685,52.167021 47.6163241,48.5976614 52,48.0737444 C51.6353884,48.0301621 51.2666083,48 50.8889352,48 C45.9801576,48 42,51.8060058 42,56.5 C42,61.194127 45.9801576,65 50.8889352,65 C51.2666083,65 51.6353884,64.9698379 52,64.9263885 C47.6163241,64.4023386 44.2222685,60.832979 44.2222685,56.5 Z" id="Shape" fill="#FFFFFF"></path>
                        <path d="M12.4999323,9.1569791 C10.7131215,9.1569791 9.24996613,10.5480782 9.24996613,12.6617667 C9.24996613,13.6643291 9.7154663,14.6353338 10.333243,15.3788267 L10.333243,16.7057316 C10.333243,17.0395145 7.86308451,18 7.86308451,18 C6.70461769,16.8351989 6,15.2387053 6,13.4705327 C6,9.90141605 8.91465969,7 12.5000677,7 C16.0969914,7 19,9.90141605 19,13.4705327 C19,15.2387053 18.2966016,16.8351989 17.137051,18 C17.137051,18 14.666757,17.0395145 14.666757,16.7057316 L14.666757,15.3788267 C15.2846692,14.6353338 15.7501693,13.6643291 15.7501693,12.6617667 C15.7498984,10.5480782 14.2983941,9.1569791 12.4999323,9.1569791 Z" id="Shape" fill="#C6CCD2"></path>
                        <path d="M10.3974494,15 C11.0494347,15.6998936 11.8799632,16.1634149 12.5001315,16.1634149 C13.1202998,16.1634149 13.9508283,15.6998936 14.6026821,15 L14.6026821,16.1634149 C14.6026821,16.4560719 17,17.2982145 17,17.2982145 C15.8644491,18.347168 14.2659742,19 12.5,19 C10.7442808,19 9.14685774,18.347168 8,17.2982145 C8,17.2982145 10.3971864,16.4560719 10.3971864,16.1634149 L10.3971864,15 L10.3974494,15 Z" id="Shape" fill="#D8DFE5"></path>
                        <path d="M12.5,17 C11.8117887,17 10.8901371,16.4397399 10.166618,15.5937757 C9.5013131,14.8058384 9,13.7767892 9,12.7142959 C9,10.4743988 10.5757222,9 12.5,9 C14.4368252,9 16,10.4742559 16,12.7142959 C16,13.7767892 15.4986869,14.8058384 14.8332361,15.5937757 C14.1098629,16.4397399 13.1882113,17 12.5,17 Z" id="Shape" fill="#EFF3F7"></path>
                        <path d="M43.4999323,9.1569791 C41.7142053,9.1569791 40.2499661,10.5480782 40.2499661,12.6617667 C40.2499661,13.6643291 40.7156018,14.6353338 41.3333785,15.3788267 L41.3333785,16.7057316 C41.3333785,17.0395145 38.8640328,18 38.8640328,18 C37.7044822,16.8351989 37,15.2387053 37,13.4705327 C37,9.90141605 39.915608,7 43.4999323,7 C47.0969914,7 50,9.90141605 50,13.4705327 C50,15.2387053 49.2974145,16.8351989 48.1379993,18 C48.1379993,18 45.666757,17.0395145 45.666757,16.7057316 L45.666757,15.3788267 C46.2846692,14.6353338 46.7500339,13.6643291 46.7500339,12.6617667 C46.7498984,10.5480782 45.2985295,9.1569791 43.4999323,9.1569791 Z" id="Shape" fill="#C6CCD2"></path>
                        <path d="M41.3964326,15 C42.0493477,15.6998936 42.8789681,16.1634149 43.4990139,16.1634149 C44.1191913,16.1634149 44.9507837,15.6998936 45.6017267,15 L45.6017267,16.1634149 C45.6017267,16.4560719 48,17.2982145 48,17.2982145 C46.8644325,18.347168 45.2648825,19 43.4990139,19 C41.7434006,19 40.1458227,18.347168 39,17.2982145 C39,17.2982145 41.3964326,16.4560719 41.3964326,16.1634149 L41.3964326,15 Z" id="Shape" fill="#D8DFE5"></path>
                        <path d="M41.7804134,15 L41.7804134,16.0994525 C41.7804134,16.3760197 39,17.1718628 39,17.1718628 C39.4289528,17.4912281 39.9160247,17.7670131 40.4413851,18 C41.082221,17.8105934 43,17.2233769 43,16.9930719 L43,15.9720639 C42.701167,15.7565091 42.180688,15.3490893 41.7804134,15 Z" id="Shape" fill="#EFF3F7"></path>
                        <path d="M43,16 L43,16.1129821 C43.2834683,16.3915 43.3797406,16.4493571 43,16 Z" id="Shape" fill="#D7E9FF"></path>
                        <path d="M45.9147248,15 L45.9147248,16.0994525 C45.9147248,16.3760197 48,17.1718628 48,17.1718628 C47.6782731,17.4912281 47.31204,17.7670131 46.9190344,18 C46.4383891,17.8105934 45,17.2233769 45,16.9930719 L45,15.9720639 C45.223218,15.7565091 45.6145075,15.3490893 45.9147248,15 Z" id="Shape" fill="#C6CCD2"></path>
                        <path d="M44.25,16 L44.25,16.1129821 C43.9664333,16.3915 43.8703447,16.4493571 44.25,16 Z" id="Shape" fill="#5C9EFF"></path>
                        <path d="M43.5,17 C42.8119346,17 41.8913043,16.4397399 41.1667639,15.5937757 C40.5013131,14.8058384 40,13.7767892 40,12.7142959 C40,10.4743988 41.5770353,9 43.5,9 C45.4368252,9 47,10.4742559 47,12.7142959 C47,13.7767892 46.4986869,14.8058384 45.833382,15.5937757 C45.1110301,16.4397399 44.1882113,17 43.5,17 Z" id="Shape" fill="#EFF3F7"></path>
                        <path d="M41.7137805,15.5937757 C41.2250321,14.8058384 40.8569438,13.7767892 40.8569438,12.7142959 C40.8569438,10.7065066 41.78997,9.32257834 43,9.05574017 C42.8601586,9.02572623 42.7179597,9 42.5706172,9 C41.1581655,9 40,10.4742559 40,12.7142959 C40,13.7767892 40.3683026,14.8058384 40.8569438,15.5937757 C41.3890913,16.4397399 42.0652593,17 42.5706172,17 C42.7037077,17 42.8484784,16.9576946 42.9991427,16.8850895 C42.5765109,16.6818523 42.1061937,16.2176368 41.7137805,15.5937757 Z" id="Shape" fill="#FFFFFF"></path>
                        <path d="M44.2862654,15.5937757 C44.7750313,14.8058384 45.1431327,13.7767892 45.1431327,12.7142959 C45.1431327,10.7065066 44.2100732,9.32257834 43,9.05574017 C43.1397392,9.02572623 43.2820504,9 43.4292909,9 C44.8419003,9 46,10.4742559 46,12.7142959 C46,13.7767892 45.6317914,14.8058384 45.1431327,15.5937757 C44.6108591,16.4397399 43.9347741,17 43.4292909,17 C43.2963029,17 43.1514199,16.9576946 43.0008573,16.8850895 C43.423397,16.6818523 43.893731,16.2176368 44.2862654,15.5937757 Z" id="Shape" fill="#D8DFE5"></path>
                        <path d="M27.5,2.15687068 C25.7142544,2.15687068 24.25,3.54812172 24.25,5.66170124 C24.25,6.66441077 24.715505,7.63529253 25.3332882,8.37879457 L25.3332882,9.70571576 C25.3332882,10.0396376 22.8640523,11 22.8640523,11 C21.7044896,9.8353195 21,8.23867147 21,6.47047717 C21,2.90145162 23.9156384,0 27.5,0 C31.0969611,0 34,2.90145162 34,6.47047717 C34,8.23867147 33.2975426,9.8353195 32.1381154,11 C32.1381154,11 29.6667118,10.0395027 29.6667118,9.70571576 L29.6667118,8.37879457 C30.2846305,7.63515767 30.75,6.66427591 30.75,5.66170124 C30.75,3.54812172 29.2984806,2.15687068 27.5,2.15687068 Z" id="Shape" fill="#C6CCD2"></path>
                        <path d="M25.3962661,9 C26.0493032,9.69989358 26.8787799,10.1634149 27.4989482,10.1634149 C28.1191165,10.1634149 28.9506968,9.69989358 29.6016303,9 L29.6016303,10.1634149 C29.6016303,10.4561901 32,11.2982145 32,11.2982145 C30.8644491,12.347168 29.264791,13 27.4989482,13 C25.7433605,13 24.1458059,12.347168 23,11.2982145 C23,11.2982145 25.3962661,10.4560719 25.3962661,10.1634149 L25.3962661,9 Z" id="Shape" fill="#D8DFE5"></path>
                        <path d="M27.5,10 C26.8119346,10 25.8913043,9.43973988 25.166618,8.59377568 C24.5011672,7.8056955 24,6.77678922 24,5.71429592 C24,3.47439883 25.5768894,2 27.5,2 C29.4368252,2 31,3.47439883 31,5.71429592 C31,6.77693215 30.4986869,7.80583842 29.833382,8.59377568 C29.1110301,9.43973988 28.1882113,10 27.5,10 Z" id="Shape" fill="#EFF3F7"></path>
                        <path d="M25.7802608,9 L25.7802608,10.0994525 C25.7802608,10.3761314 23,11.1718628 23,11.1718628 C23.4288002,11.4912281 23.9160247,11.7670131 24.4413851,12 C25.082221,11.8107051 27,11.2233769 27,10.9929601 L27,9.97206392 C26.7010144,9.75650911 26.1805354,9.34897754 25.7802608,9 Z" id="Shape" fill="#EFF3F7"></path>
                        <path d="M27,10 L27,10.1129821 C27.2834683,10.3916607 27.3797406,10.4493571 27,10 Z" id="Shape" fill="#D7E9FF"></path>
                        <path d="M28.91469,9 L28.91469,10.0994525 C28.91469,10.3761314 31,11.1718628 31,11.1718628 C30.6782854,11.4912281 30.3119518,11.7670131 29.9189612,12 C29.4383342,11.8107051 28,11.2233769 28,10.9929601 L28,9.97206392 C28.2232095,9.75650911 28.614484,9.34897754 28.91469,9 Z" id="Shape" fill="#C6CCD2"></path>
                        <path d="M28.25,10 L28.25,10.1129821 C27.9664333,10.3916607 27.8703447,10.4493571 28.25,10 Z" id="Shape" fill="#5C9EFF"></path>
                        <path d="M25.7137346,8.59391861 C25.2250759,7.80583842 24.8568673,6.77693215 24.8568673,5.71443885 C24.8568673,3.70664952 25.7899268,2.32272126 27,2.05588309 C26.8601536,2.02572623 26.7179496,2 26.5707091,2 C25.1582068,2 24,3.47439883 24,5.71429592 C24,6.77693215 24.3682086,7.80583842 24.8568673,8.59377568 C25.3891409,9.43973988 26.0652259,10 26.5707091,10 C26.7038043,10 26.8484729,9.95755172 26.9992499,9.88508951 C26.5764958,9.68199521 26.1061618,9.21777968 25.7137346,8.59391861 Z" id="Shape" fill="#FFFFFF"></path>
                        <path d="M28.2862654,8.59391861 C28.7749241,7.80583842 29.1431327,6.77693215 29.1431327,5.71443885 C29.1431327,3.70664952 28.2100732,2.32272126 27,2.05588309 C27.1397392,2.02572623 27.2819432,2 27.4292909,2 C28.8417932,2 30,3.47439883 30,5.71429592 C30,6.77693215 29.6317914,7.80583842 29.1431327,8.59377568 C28.6108591,9.43973988 27.9347741,10 27.4292909,10 C27.2961957,10 27.1515271,9.95755172 27.0008573,9.88508951 C27.4235042,9.68199521 27.893731,9.21777968 28.2862654,8.59391861 Z" id="Shape" fill="#D8DFE5"></path>
                        <path d="M10.7802608,15 L10.7802608,16.0994525 C10.7802608,16.3760197 8,17.1718628 8,17.1718628 C8.42880024,17.4912281 8.91602471,17.7670131 9.44123255,18 C10.082221,17.8105934 12,17.2233769 12,16.9930719 L12,15.9720639 C11.7010144,15.7565091 11.1805354,15.3490893 10.7802608,15 Z" id="Shape" fill="#EFF3F7"></path>
                        <path d="M12,16 L12,16.1129821 C12.2835667,16.3915 12.3796553,16.4493571 12,16 Z" id="Shape" fill="#D7E9FF"></path>
                        <path d="M14.91469,15 L14.91469,16.0994525 C14.91469,16.3760197 17,17.1718628 17,17.1718628 C16.6782854,17.4912281 16.3120662,17.7670131 15.9189612,18 C15.4383342,17.8105934 14,17.2233769 14,16.9930719 L14,15.9720639 C14.2233239,15.7565091 14.6145984,15.3490893 14.91469,15 Z" id="Shape" fill="#C6CCD2"></path>
                        <path d="M13.25,16 L13.25,16.1129821 C12.9664582,16.3915 12.8703231,16.4493571 13.25,16 Z" id="Shape" fill="#5C9EFF"></path>
                        <path d="M10.7138418,15.5937757 C10.2251831,14.8058384 9.8568673,13.7767892 9.8568673,12.7142959 C9.8568673,10.7065066 10.7899268,9.32257834 12,9.05574017 C11.8602608,9.02572623 11.7179496,9 11.5707091,9 C10.1580997,9 9,10.4742559 9,12.7142959 C9,13.7767892 9.36820861,14.8058384 9.8568673,15.5937757 C10.3891409,16.4397399 11.0652259,17 11.5707091,17 C11.7036971,17 11.8484729,16.9576946 11.9991427,16.8850895 C11.576603,16.6818523 11.1063761,16.2176368 10.7138418,15.5937757 Z" id="Shape" fill="#FFFFFF"></path>
                        <path d="M13.2861582,15.5937757 C13.7749241,14.8058384 14.1430255,13.7767892 14.1430255,12.7142959 C14.1430255,10.7065066 13.2099661,9.32257834 12,9.05574017 C12.1397392,9.02572623 12.2819432,9 12.4292909,9 C13.8417932,9 15,10.4742559 15,12.7142959 C15,13.7767892 14.6317914,14.8058384 14.1430255,15.5937757 C13.6108591,16.4397399 12.9346669,17 12.4292909,17 C12.2961957,17 12.1514199,16.9576946 12.0008573,16.8850895 C12.423397,16.6818523 12.893731,16.2176368 13.2861582,15.5937757 Z" id="Shape" fill="#D8DFE5"></path>
                        <rect id="Rectangle-path" fill="#EFF3F7" x="4" y="44" width="1" height="15"></rect>
                        <rect id="Rectangle-path" fill="#EFF3F7" x="4" y="32" width="1" height="9"></rect>
                        <rect id="Rectangle-path" fill="#C6CCD2" x="49" y="32" width="1" height="9"></rect>
                        <rect id="Rectangle-path" fill="#C6CCD2" x="24" y="44" width="1" height="15"></rect>
                        <path d="M2.4695289,26.9370312 C2.212957,26.9370312 2,26.7275 2,26.4685156 C2,26.2095313 2.20353618,26 2.460457,26 L2.4695289,26 C2.72656602,26 2.93463816,26.2095313 2.93463816,26.4685156 C2.93463816,26.7275 2.72656602,26.9370312 2.4695289,26.9370312 Z" id="Shape" fill="#96A2B4"></path>
                        <path d="M4.4695289,26.9370312 C4.212957,26.9370312 4,26.7275 4,26.4685156 C4,26.2095313 4.20341988,26 4.460457,26 L4.4695289,26 C4.72656602,26 4.93452185,26.2095313 4.93452185,26.4685156 C4.93452185,26.7275 4.72656602,26.9370312 4.4695289,26.9370312 Z" id="Shape" fill="#96A2B4"></path>
                        <path d="M6.46964521,26.9370312 C6.21307331,26.9370312 6,26.7275 6,26.4685156 C6,26.2095313 6.20353618,26 6.460457,26 L6.4695289,26 C6.72644972,26 6.93452185,26.2095313 6.93452185,26.4685156 C6.93452185,26.7275 6.72656602,26.9370312 6.46964521,26.9370312 Z" id="Shape" fill="#96A2B4"></path>
                        <path d="M54.4811529,28 L0.518847111,28 C0.232040679,28 0,27.7762725 0,27.5000208 L0,26.4999375 C0,25.6728084 0.698198464,25 1.55654133,25 L53.4434587,25 C54.3018015,25 55,25.6728084 55,26.4999375 L55,27.5000208 C55,27.7762725 54.7679593,28 54.4811529,28 Z M1.03769422,26.9999166 L53.9623058,26.9999166 L53.9623058,26.4999375 C53.9623058,26.228438 53.7252038,25.9999583 53.4434587,25.9999583 L1.55654133,25.9999583 C1.27025401,25.9999583 1.03769422,26.2245613 1.03769422,26.4999375 L1.03769422,26.9999166 Z" id="Shape" fill="#96A2B4"></path>
                        <path d="M54.464993,47 C54.2079558,47 54,46.76463 54,46.4737085 L54,27.5264232 C54,27.2355016 54.2079558,27 54.464993,27 C54.7220301,27 54.9299859,27.2355016 54.9299859,27.5264232 L54.9299859,46.4737085 C54.9299859,46.76463 54.7220301,47 54.464993,47 Z" id="Shape" fill="#96A2B4"></path>
                        <path d="M0.464992951,62 C0.207955827,62 0,61.7629785 0,61.4697191 L0,27.5304136 C0,27.2372868 0.207955827,27 0.464992951,27 C0.722030075,27 0.929985902,27.2372868 0.929985902,27.5304136 L0.929985902,61.4697191 C0.929985902,61.7629785 0.721913769,62 0.464992951,62 Z" id="Shape" fill="#96A2B4"></path>
                        <path d="M40.4875208,61.9370312 L0.51247917,61.9370312 C0.229192785,61.9370312 0,61.7276172 0,61.4685156 C0,61.2096484 0.229192785,61 0.51247917,61 L40.4875208,61 C40.7708072,61 41,61.2096484 41,61.4685156 C41,61.7276172 40.7708072,61.9370312 40.4875208,61.9370312 Z" id="Shape" fill="#96A2B4"></path>
                        <path d="M23.5007188,56.9994736 C23.3341393,56.9994736 23.1710614,56.9162977 23.0762662,56.7635997 L18.5000823,49.4302128 L13.9238983,56.7635997 C13.7783289,56.9994736 13.4691813,57.0707494 13.2348195,56.923062 C13.0009579,56.7762514 12.9296738,56.4672228 13.0761187,56.2333531 L18.0761299,48.2200279 C18.2587171,47.9266574 18.7411973,47.9266574 18.9237845,48.2200279 L23.9237957,56.2333531 C24.0703656,56.4672228 23.9990816,56.7762514 23.7650949,56.923062 C23.6829307,56.9750469 23.5911369,56.9994736 23.5007188,56.9994736 Z" id="Shape" fill="#96A2B4"></path>
                        <path d="M8.50354011,57 C8.40357433,57 8.30222189,56.9707366 8.21410578,56.9090833 C7.9866931,56.7498854 7.93160477,56.4383676 8.09157522,56.2127642 L11.6333639,51.2128476 C11.7279091,51.0791613 11.8819547,51 12.045833,51 C12.0463373,51 12.0463373,51 12.0468415,51 C12.2112241,51 12.3652697,51.0801617 12.4591846,51.213848 L14.9094176,54.7001959 C15.0683796,54.9267998 15.012787,55.2383176 14.7844919,55.3965151 C14.5550623,55.5537121 14.2410462,55.498937 14.0825884,55.2724582 L12.0444464,52.3721289 L8.91651348,56.7871524 C8.81806042,56.925716 8.6621239,57 8.50354011,57 Z" id="Shape" fill="#96A2B4"></path>
                        <path d="M50.4777995,40 L4.52220045,40 C4.23354037,40 4,39.7762756 4,39.5000278 L4,31.5000973 C4,31.2237244 4.23354037,31 4.52220045,31 L50.4777995,31 C50.7664596,31 51,31.2237244 51,31.5000973 L51,39.5000278 C51,39.7762756 50.7664596,40 50.4777995,40 Z M5.04440091,38.9999305 L49.9555991,38.9999305 L49.9555991,32.0000695 L5.04440091,32.0000695 L5.04440091,38.9999305 Z" id="Shape" fill="#96A2B4"></path>
                        <path d="M25.4762123,58 L4.52378769,58 C4.23425022,58 4,57.7602926 4,57.4643096 L4,43.5356904 C4,43.2395734 4.23425022,43 4.52378769,43 L25.4762123,43 C25.7657498,43 26,43.2395734 26,43.5356904 L26,57.4643096 C26,57.7602926 25.7657498,58 25.4762123,58 Z M5.04757538,56.9284853 L24.9524246,56.9284853 L24.9524246,44.0713807 L5.04757538,44.0713807 L5.04757538,56.9284853 Z" id="Shape" fill="#96A2B4"></path>
                        <path d="M8.00006253,49 C6.89704549,49 6,48.1024823 6,47 C6,45.8975177 6.89704549,45 8.00006253,45 C9.10307957,45 10,45.8975177 10,47 C10,48.1024823 9.10320463,49 8.00006253,49 Z M8.00006253,46.0000625 C7.44880413,46.0000625 6.99996874,46.4482586 6.99996874,47 C6.99996874,47.5517414 7.44867907,47.9999375 8.00006253,47.9999375 C8.55144599,47.9999375 9.00003126,47.5517414 9.00003126,47 C9.00003126,46.4482586 8.55132093,46.0000625 8.00006253,46.0000625 Z" id="Shape" fill="#96A2B4"></path>
                        <path d="M50.4762123,45.9371484 L29.5237877,45.9371484 C29.2342502,45.9371484 29,45.7276172 29,45.4686328 C29,45.2096484 29.2342502,45 29.5237877,45 L50.4762123,45 C50.7657498,45 51,45.2096484 51,45.4686328 C51,45.7276172 50.7657498,45.9371484 50.4762123,45.9371484 Z" id="Shape" fill="#96A2B4"></path>
                        <path d="M41.5000192,48.9371484 L29.4999808,48.9371484 C29.2236032,48.9371484 29,48.7275 29,48.4686328 C29,48.2095312 29.2236032,48 29.4999808,48 L41.5000192,48 C41.7763968,48 42,48.2095312 42,48.4686328 C42,48.7275 41.7763968,48.9371484 41.5000192,48.9371484 Z" id="Shape" fill="#96A2B4"></path>
                        <path d="M39.4998977,51.9370312 L29.4999773,51.9370312 C29.2236016,51.9370312 29,51.7275 29,51.4685156 C29,51.2095312 29.2236016,51 29.4999773,51 L39.4998977,51 C39.7763984,51 40,51.2095312 40,51.4685156 C40,51.7275 39.7763984,51.9370312 39.4998977,51.9370312 Z" id="Shape" fill="#96A2B4"></path>
                        <path d="M38.5000188,54.9370312 L29.4999812,54.9370312 C29.2236034,54.9370312 29,54.7275 29,54.4685156 C29,54.2095312 29.2236034,54 29.4999812,54 L38.5000188,54 C38.7763966,54 39,54.2095312 39,54.4685156 C39,54.7275 38.7763966,54.9370312 38.5000188,54.9370312 Z" id="Shape" fill="#96A2B4"></path>
                        <path d="M44.4857363,35.9370312 L9.51426366,35.9370312 C9.22999085,35.9370312 9,35.7275 9,35.4685156 C9,35.2095313 9.22999085,35 9.51426366,35 L44.4857363,35 C44.7700091,35 45,35.2095313 45,35.4685156 C45,35.7275 44.7700091,35.9370312 44.4857363,35.9370312 Z" id="Shape" fill="#96A2B4"></path>
                        <path d="M39.4782807,37.9371484 L16.5217193,37.9371484 C16.2333252,37.9371484 16,37.7276172 16,37.4686328 C16,37.2096484 16.2333252,37 16.5217193,37 L39.4782807,37 C39.7666748,37 40,37.2096484 40,37.4686328 C40,37.7276172 39.7666748,37.9371484 39.4782807,37.9371484 Z" id="Shape" fill="#96A2B4"></path>
                        <path d="M11.4989995,16 C10.0033051,16 8,13.896514 8,11.7451305 C8,9.61037987 9.50432344,8 11.4989995,8 C13.4950513,8 15,9.61037987 15,11.7451305 C15,13.896514 12.9950691,16 11.4989995,16 Z M11.4989995,8.99996874 C10.0507021,8.99996874 8.99996427,10.1542598 8.99996427,11.7451305 C8.99996427,13.4599343 10.6972523,15.0000313 11.4989995,15.0000313 C12.322757,15.0000313 14.0000357,13.4931999 14.0000357,11.7451305 C13.9999107,10.1542598 12.9481724,8.99996874 11.4989995,8.99996874 Z" id="Shape" fill="#96A2B4"></path>
                        <path d="M15.5427454,17 C15.4869513,17 15.4302426,16.9902367 15.3753632,16.9690072 C13,16.0417211 13,15.7154453 13,15.4539933 C13,15.2030993 13.2044258,15 13.4570996,15 C13.6387733,15 13.7959799,15.1055798 13.8696098,15.2579327 C14.0946153,15.4343532 14.9748579,15.8369189 15.7101275,16.1232332 C15.9449656,16.2154169 16.0605553,16.4786854 15.968175,16.7118692 C15.8970605,16.8909008 15.7248764,17 15.5427454,17 Z" id="Shape" fill="#96A2B4"></path>
                        <path d="M13.464993,16 C13.2079558,16 13,15.7993266 13,15.5512907 L13,14.4487093 C13,14.2006734 13.2079558,14 13.464993,14 C13.7220301,14 13.9301022,14.2006734 13.9301022,14.4487093 L13.9301022,15.5512907 C13.9299859,15.7993266 13.7220301,16 13.464993,16 Z" id="Shape" fill="#96A2B4"></path>
                        <path d="M7.45727206,17 C7.27513412,17 7.10271478,16.8910144 7.03182619,16.7118692 C6.93944235,16.4786854 7.05503648,16.2154169 7.28988352,16.1232332 C8.02518112,15.8369189 8.90545732,15.4343532 9.13047142,15.2579327 C9.20421842,15.1054663 9.36131668,15 9.54288294,15 C9.79556646,15 10,15.2030993 10,15.4539933 C10,15.7155588 10,16.0417211 7.6246606,16.9690072 C7.56977911,16.9902367 7.51306824,17 7.45727206,17 Z" id="Shape" fill="#96A2B4"></path>
                        <path d="M9.46499295,16 C9.20795583,16 9,15.7993266 9,15.5512907 L9,14.4487093 C9,14.2006734 9.20795583,14 9.46499295,14 C9.72203008,14 9.9299859,14.2006734 9.9299859,14.4487093 L9.9299859,15.5512907 C9.9299859,15.7993266 9.72203008,16 9.46499295,16 Z" id="Shape" fill="#96A2B4"></path>
                        <path d="M11.5000625,20 C7.91606784,20 5,16.8596193 5,13.0000673 C5,9.14038075 7.91594278,6 11.5000625,6 C15.0839322,6 18,9.14024607 18,13.0000673 C18.0001251,16.8596193 15.0840572,20 11.5000625,20 Z M11.5000625,7.07700595 C8.46731696,7.07700595 6.00007696,9.73457235 6.00007696,13.0000673 C6.00007696,16.2655623 8.46731696,18.922994 11.5000625,18.922994 C14.532683,18.922994 16.999923,16.2654276 16.999923,13.0000673 C17.0000481,9.73457235 14.5328081,7.07700595 11.5000625,7.07700595 Z" id="Shape" fill="#96A2B4"></path>
                        <path d="M42.4989995,16 C41.0039304,16 39,13.896514 39,11.7451305 C39,9.61037987 40.5039483,8 42.4989995,8 C44.4951763,8 46,9.61037987 46,11.7451305 C46,13.896514 43.9951942,16 42.4989995,16 Z M42.4989995,8.99996874 C41.0508272,8.99996874 40.0000893,10.1542598 40.0000893,11.7451305 C40.0000893,13.4599343 41.6972523,15.0000313 42.4989995,15.0000313 C43.3222568,15.0000313 45.0000357,13.4931999 45.0000357,11.7451305 C45.0000357,10.1542598 43.9482974,8.99996874 42.4989995,8.99996874 Z" id="Shape" fill="#96A2B4"></path>
                        <path d="M46.5425507,17 C46.4873301,17 46.4301658,16.9902367 46.3756311,16.9690072 C44,16.0417211 44,15.7154453 44,15.4539933 C44,15.2030993 44.2044193,15 44.4570852,15 C44.6392104,15 44.7953831,15.1055798 44.869468,15.2579327 C45.0944664,15.4343532 45.9747956,15.8369189 46.7094703,16.1232332 C46.9444152,16.2154169 47.0603443,16.4786854 46.9685386,16.7118692 C46.8969689,16.8909008 46.7245616,17 46.5425507,17 Z" id="Shape" fill="#96A2B4"></path>
                        <path d="M44.464993,16 C44.2079558,16 44,15.7993266 44,15.5512907 L44,14.4487093 C44,14.2006734 44.2079558,14 44.464993,14 C44.7220301,14 44.9299859,14.2006734 44.9299859,14.4487093 L44.9299859,15.5512907 C44.9299859,15.7993266 44.7220301,16 44.464993,16 Z" id="Shape" fill="#96A2B4"></path>
                        <path d="M38.457376,17 C38.2752537,17 38.1029635,16.8910144 38.0315094,16.7118692 C37.9395908,16.4786854 38.0556323,16.2154169 38.2904591,16.1232332 C39.0252363,15.8369189 39.9055513,15.4343532 40.1304317,15.2579327 C40.2045154,15.1054663 40.3609142,15 40.5429222,15 C40.795584,15 41,15.2030993 41,15.4539933 C41,15.7155588 41,16.0417211 38.6244072,16.9690072 C38.5698734,16.9902367 38.5127101,17 38.457376,17 Z" id="Shape" fill="#96A2B4"></path>
                        <path d="M40.464993,16 C40.2079558,16 40,15.7993266 40,15.5512907 L40,14.4487093 C40,14.2006734 40.2079558,14 40.464993,14 C40.7220301,14 40.9299859,14.2006734 40.9299859,14.4487093 L40.9299859,15.5512907 C40.9299859,15.7993266 40.7220301,16 40.464993,16 Z" id="Shape" fill="#96A2B4"></path>
                        <path d="M42.4999375,20 C38.9160678,20 36,16.8596193 36,13.0000673 C36,9.14038075 38.9159428,6 42.4999375,6 C46.0839322,6 49,9.14024607 49,13.0000673 C49,16.8596193 46.0839322,20 42.4999375,20 Z M42.4999375,7.07700595 C39.4678172,7.07700595 37.000077,9.73457235 37.000077,13.0000673 C37.000077,16.2655623 39.4678172,18.922994 42.4999375,18.922994 C45.5321828,18.922994 47.999923,16.2654276 47.999923,13.0000673 C48.0000481,9.73457235 45.5321828,7.07700595 42.4999375,7.07700595 Z" id="Shape" fill="#96A2B4"></path>
                        <path d="M27.4989995,10 C26.0034302,10 24,7.89651399 24,5.74513053 C24,3.61037987 25.5043234,2 27.4989995,2 C29.4950513,2 31,3.61037987 31,5.74513053 C30.9998749,7.89651399 28.9950691,10 27.4989995,10 Z M27.4989995,2.99996874 C26.0507021,2.99996874 24.9999643,4.15425981 24.9999643,5.74513053 C24.9999643,7.4600594 26.6972523,9.00003126 27.4989995,9.00003126 C28.322757,9.00003126 30.0000357,7.49319994 30.0000357,5.74513053 C29.9999107,4.15425981 28.9481724,2.99996874 27.4989995,2.99996874 Z" id="Shape" fill="#96A2B4"></path>
                        <path d="M31.5426638,11 C31.4873289,11 31.4301647,10.9902367 31.37563,10.9690072 C29,10.0417211 29,9.71544531 29,9.45387978 C29,9.20298575 29.2044192,9 29.457085,9 C29.6387528,9 29.7959544,9.10546631 29.8694675,9.25793268 C30.0945802,9.43435318 30.9747946,9.83680536 31.7095833,10.1231197 C31.9444138,10.2153034 32.0603428,10.4786854 31.9685371,10.7118692 C31.8970819,10.8909008 31.724789,11 31.5426638,11 Z" id="Shape" fill="#96A2B4"></path>
                        <path d="M29.464993,10 C29.2079558,10 29,9.7993266 29,9.55129068 L29,8.44882155 C29,8.20078563 29.2079558,8 29.464993,8 C29.7220301,8 29.9299859,8.20078563 29.9299859,8.44882155 L29.9299859,9.55129068 C29.9299859,9.7993266 29.7220301,10 29.464993,10 Z" id="Shape" fill="#96A2B4"></path>
                        <path d="M22.4572546,11 C22.2751236,11 22.1028252,10.8909008 22.031825,10.7118692 C21.9394447,10.4786854 22.0550344,10.2154169 22.2898725,10.1231197 C23.0251421,9.83680536 23.905499,9.43435318 24.1305046,9.25793268 C24.2041344,9.10546631 24.361341,9 24.5429004,9 C24.7955742,9 25,9.20298575 25,9.45387978 C25,9.71544531 25,10.0417211 22.6247511,10.9690072 C22.5697574,10.9902367 22.5130487,11 22.4572546,11 Z" id="Shape" fill="#96A2B4"></path>
                        <path d="M25.464993,10 C25.2079558,10 25,9.7993266 25,9.55129068 L25,8.44882155 C25,8.20078563 25.2079558,8 25.464993,8 C25.7220301,8 25.9299859,8.20078563 25.9299859,8.44882155 L25.9299859,9.55129068 C25.9299859,9.7993266 25.7220301,10 25.464993,10 Z" id="Shape" fill="#96A2B4"></path>
                        <path d="M27.5,14 C23.9159708,14 21,10.8597539 21,6.99993266 C21,3.14038075 23.9159708,0 27.5,0 C31.0840292,0 34,3.14024607 34,6.99993266 C34,10.8597539 31.0840292,14 27.5,14 Z M27.5,1.07700595 C24.4673503,1.07700595 21.9999615,3.73457235 21.9999615,6.99993266 C21.9999615,10.2654276 24.4672253,12.922994 27.5,12.922994 C30.5322745,12.922994 33.0000385,10.2654276 33.0000385,6.99993266 C33.0000385,3.73470703 30.5322745,1.07700595 27.5,1.07700595 Z" id="Shape" fill="#96A2B4"></path>
                        <path d="M31.499936,23 C31.3534929,23 31.2080503,22.9355619 31.1093794,22.8124415 C30.9375495,22.5964802 30.9715653,22.2819224 31.1875408,22.108878 L36.1874911,18.1087138 C36.4052173,17.9376715 36.7187381,17.971955 36.8905681,18.1869154 C37.062523,18.4028767 37.0283821,18.7174345 36.8124067,18.8904788 L31.8124564,22.890643 C31.7197883,22.9638396 31.6093619,23 31.499936,23 Z" id="Shape" fill="#96A2B4"></path>
                        <path d="M31.464993,23 C31.2080721,23 31,22.7761642 31,22.4994992 L31,21.5005008 C31,21.2238358 31.2080721,21 31.464993,21 C31.7221464,21 31.9301022,21.2238358 31.9301022,21.5005008 L31.9301022,22.4994992 C31.9301022,22.7760391 31.7221464,23 31.464993,23 Z" id="Shape" fill="#96A2B4"></path>
                        <path d="M32.5000313,22.9370312 L31.4999687,22.9370312 C31.2237229,22.9370312 31,22.7275 31,22.4685156 C31,22.2095312 31.2237229,22 31.4999687,22 L32.5000313,22 C32.7764022,22 33,22.2095312 33,22.4685156 C33,22.7275 32.7764022,22.9370312 32.5000313,22.9370312 Z" id="Shape" fill="#96A2B4"></path>
                        <path d="M23.4995887,23 C23.3901628,23 23.2798615,22.9638392 23.1880688,22.8906418 L18.1879924,18.8904356 C17.972142,18.7173894 17.9370006,18.4028283 18.1094559,18.1868647 C18.2822863,17.9719021 18.597683,17.9377434 18.8120327,18.1086624 L23.8119841,22.1088687 C24.0278345,22.2817897 24.0629759,22.5964759 23.8906457,22.8124395 C23.7920998,22.9354361 23.6465321,23 23.4995887,23 Z" id="Shape" fill="#96A2B4"></path>
                        <path d="M23.464993,23 C23.2079558,23 23,22.7761642 23,22.4994992 L23,21.5005008 C23,21.2238358 23.2079558,21 23.464993,21 C23.7220301,21 23.9301022,21.2238358 23.9301022,21.5005008 L23.9301022,22.4994992 C23.9301022,22.7760391 23.7220301,23 23.464993,23 Z" id="Shape" fill="#96A2B4"></path>
                        <path d="M23.4999375,22.9370312 L22.4999375,22.9370312 C22.2235838,22.9370312 22,22.7275 22,22.4685156 C22,22.2095312 22.2235838,22 22.4999375,22 L23.4999375,22 C23.7762911,22 24,22.2095312 24,22.4685156 C24,22.7275 23.7762911,22.9370312 23.4999375,22.9370312 Z" id="Shape" fill="#96A2B4"></path>
                        <path d="M27.464993,22 C27.2079558,22 27,21.7763682 27,21.4999553 L27,15.5000447 C27,15.2237569 27.2079558,15 27.464993,15 C27.7220301,15 27.9301022,15.2237569 27.9301022,15.5000447 L27.9301022,21.4999553 C27.9301022,21.7763682 27.7220301,22 27.464993,22 Z" id="Shape" fill="#96A2B4"></path>
                        <path d="M27.5855176,22 C27.4357153,22 27.285913,21.9427421 27.1715478,21.8285191 C26.9428174,21.5997803 26.9428174,21.2292879 27.1715478,21.0005491 L28.0005125,20.1715541 C28.2292429,19.9428153 28.5997218,19.9428153 28.8284522,20.1715541 C29.0571826,20.4002929 29.0571826,20.7707853 28.8284522,20.9993776 L27.999341,21.8285191 C27.8851223,21.9428885 27.73532,22 27.5855176,22 Z" id="Shape" fill="#96A2B4"></path>
                        <path d="M27.4146288,22 C27.2648265,22 27.1150242,21.9427421 27.000659,21.8285191 L26.1715478,20.9993776 C25.9428174,20.7706388 25.9428174,20.4001464 26.1715478,20.1715541 C26.4002782,19.9428153 26.7707571,19.9428153 26.9994875,20.1715541 L27.8284522,21.0005491 C28.0571826,21.2292879 28.0571826,21.5997803 27.8284522,21.8285191 C27.7142334,21.9428885 27.5644311,22 27.4146288,22 Z" id="Shape" fill="#96A2B4"></path>
                    </g>
                    <text id="05" font-family="GothamPro-Medium, Gotham Pro" font-size="18" font-weight="400" line-spacing="27" fill="#96A2B4">
                        <tspan x="41" y="55">05</tspan>
                    </text>
                </g>
            </g>
        </g>
    </g>
	<g class="hover" stroke="none" stroke-width="1" fill="none" fill-rule="evenodd">
        <g id="Рабочий-стол-Icons" transform="translate(-628.000000, -50.000000)">
            <g id="Group-18" transform="translate(64.000000, 50.000000)">
                <g id="Group-12" transform="translate(564.000000, 0.000000)">
                    <rect id="Rectangle-path" fill="#CACBFF" fill-rule="nonzero" opacity="0.598575368" x="0" y="28" width="53" height="33"></rect>
                    <rect id="Rectangle-path" fill="#CACBFF" fill-rule="nonzero" x="4" y="44" width="20" height="15"></rect>
                    <path d="M53,28 L53,26.9999375 C53,26.450197 52.5411355,26 51.9808109,26 L1.0191891,26 C0.458864527,26 0,26.450197 0,26.9999375 L0,28 L53,28 Z" id="Shape" fill="#DDDEFD" fill-rule="nonzero"></path>
                    <rect id="Rectangle-path" fill="#CACBFF" fill-rule="nonzero" x="4" y="32" width="44" height="9"></rect>
                    <polygon id="Shape" fill="#EFF3F7" fill-rule="nonzero" points="16 55.1834325 14.8879936 57 9 57 13.1377359 51"></polygon>
                    <polygon id="Shape" fill="#FFFFFF" fill-rule="nonzero" points="25 58 14 58 19.5 49"></polygon>
                    <polygon id="Shape" fill="#D8DFE5" fill-rule="nonzero" points="14.4585451 54 13 56 14.0286229 56 15 54.6654539"></polygon>
                    <circle id="Oval" fill="#FFFFFF" fill-rule="nonzero" cx="8.5" cy="47.5" r="1.5"></circle>
                    <path d="M12.4999323,9.1569791 C10.7131215,9.1569791 9.24996613,10.5480782 9.24996613,12.6617667 C9.24996613,13.6643291 9.7154663,14.6353338 10.333243,15.3788267 L10.333243,16.7057316 C10.333243,17.0395145 7.86308451,18 7.86308451,18 C6.70461769,16.8351989 6,15.2387053 6,13.4705327 C6,9.90141605 8.91465969,7 12.5000677,7 C16.0969914,7 19,9.90141605 19,13.4705327 C19,15.2387053 18.2966016,16.8351989 17.137051,18 C17.137051,18 14.666757,17.0395145 14.666757,16.7057316 L14.666757,15.3788267 C15.2846692,14.6353338 15.7501693,13.6643291 15.7501693,12.6617667 C15.7498984,10.5480782 14.2983941,9.1569791 12.4999323,9.1569791 Z" id="Shape" fill="#A7A9FF" fill-rule="nonzero"></path>
                    <path d="M10.3974494,15 C11.0494347,15.6998936 11.8799632,16.1634149 12.5001315,16.1634149 C13.1202998,16.1634149 13.9508283,15.6998936 14.6026821,15 L14.6026821,16.1634149 C14.6026821,16.4560719 17,17.2982145 17,17.2982145 C15.8644491,18.347168 14.2659742,19 12.5,19 C10.7442808,19 9.14685774,18.347168 8,17.2982145 C8,17.2982145 10.3971864,16.4560719 10.3971864,16.1634149 L10.3971864,15 L10.3974494,15 Z" id="Shape" fill="#CACBFF" fill-rule="nonzero"></path>
                    <path d="M12.5,17 C11.8117887,17 10.8901371,16.4397399 10.166618,15.5937757 C9.5013131,14.8058384 9,13.7767892 9,12.7142959 C9,10.4743988 10.5757222,9 12.5,9 C14.4368252,9 16,10.4742559 16,12.7142959 C16,13.7767892 15.4986869,14.8058384 14.8332361,15.5937757 C14.1098629,16.4397399 13.1882113,17 12.5,17 Z" id="Shape" fill="#EFF3F7" fill-rule="nonzero"></path>
                    <path d="M43.4999323,9.1569791 C41.7142053,9.1569791 40.2499661,10.5480782 40.2499661,12.6617667 C40.2499661,13.6643291 40.7156018,14.6353338 41.3333785,15.3788267 L41.3333785,16.7057316 C41.3333785,17.0395145 38.8640328,18 38.8640328,18 C37.7044822,16.8351989 37,15.2387053 37,13.4705327 C37,9.90141605 39.915608,7 43.4999323,7 C47.0969914,7 50,9.90141605 50,13.4705327 C50,15.2387053 49.2974145,16.8351989 48.1379993,18 C48.1379993,18 45.666757,17.0395145 45.666757,16.7057316 L45.666757,15.3788267 C46.2846692,14.6353338 46.7500339,13.6643291 46.7500339,12.6617667 C46.7498984,10.5480782 45.2985295,9.1569791 43.4999323,9.1569791 Z" id="Shape" fill="#A7A9FF" fill-rule="nonzero"></path>
                    <path d="M41.3964326,15 C42.0493477,15.6998936 42.8789681,16.1634149 43.4990139,16.1634149 C44.1191913,16.1634149 44.9507837,15.6998936 45.6017267,15 L45.6017267,16.1634149 C45.6017267,16.4560719 48,17.2982145 48,17.2982145 C46.8644325,18.347168 45.2648825,19 43.4990139,19 C41.7434006,19 40.1458227,18.347168 39,17.2982145 C39,17.2982145 41.3964326,16.4560719 41.3964326,16.1634149 L41.3964326,15 Z" id="Shape" fill="#CACBFF" fill-rule="nonzero"></path>
                    <path d="M41.7804134,15 L41.7804134,16.0994525 C41.7804134,16.3760197 39,17.1718628 39,17.1718628 C39.4289528,17.4912281 39.9160247,17.7670131 40.4413851,18 C41.082221,17.8105934 43,17.2233769 43,16.9930719 L43,15.9720639 C42.701167,15.7565091 42.180688,15.3490893 41.7804134,15 Z" id="Shape" fill="#EFF3F7" fill-rule="nonzero"></path>
                    <path d="M43,16 L43,16.1129821 C43.2834683,16.3915 43.3797406,16.4493571 43,16 Z" id="Shape" fill="#D7E9FF" fill-rule="nonzero"></path>
                    <path d="M45.9147248,15 L45.9147248,16.0994525 C45.9147248,16.3760197 48,17.1718628 48,17.1718628 C47.6782731,17.4912281 47.31204,17.7670131 46.9190344,18 C46.4383891,17.8105934 45,17.2233769 45,16.9930719 L45,15.9720639 C45.223218,15.7565091 45.6145075,15.3490893 45.9147248,15 Z" id="Shape" fill="#A7A9FF" fill-rule="nonzero"></path>
                    <path d="M44.25,16 L44.25,16.1129821 C43.9664333,16.3915 43.8703447,16.4493571 44.25,16 Z" id="Shape" fill="#5C9EFF" fill-rule="nonzero"></path>
                    <path d="M43.5,17 C42.8119346,17 41.8913043,16.4397399 41.1667639,15.5937757 C40.5013131,14.8058384 40,13.7767892 40,12.7142959 C40,10.4743988 41.5770353,9 43.5,9 C45.4368252,9 47,10.4742559 47,12.7142959 C47,13.7767892 46.4986869,14.8058384 45.833382,15.5937757 C45.1110301,16.4397399 44.1882113,17 43.5,17 Z" id="Shape" fill="#EFF3F7" fill-rule="nonzero"></path>
                    <path d="M41.7137805,15.5937757 C41.2250321,14.8058384 40.8569438,13.7767892 40.8569438,12.7142959 C40.8569438,10.7065066 41.78997,9.32257834 43,9.05574017 C42.8601586,9.02572623 42.7179597,9 42.5706172,9 C41.1581655,9 40,10.4742559 40,12.7142959 C40,13.7767892 40.3683026,14.8058384 40.8569438,15.5937757 C41.3890913,16.4397399 42.0652593,17 42.5706172,17 C42.7037077,17 42.8484784,16.9576946 42.9991427,16.8850895 C42.5765109,16.6818523 42.1061937,16.2176368 41.7137805,15.5937757 Z" id="Shape" fill="#FFFFFF" fill-rule="nonzero"></path>
                    <path d="M44.2862654,15.5937757 C44.7750313,14.8058384 45.1431327,13.7767892 45.1431327,12.7142959 C45.1431327,10.7065066 44.2100732,9.32257834 43,9.05574017 C43.1397392,9.02572623 43.2820504,9 43.4292909,9 C44.8419003,9 46,10.4742559 46,12.7142959 C46,13.7767892 45.6317914,14.8058384 45.1431327,15.5937757 C44.6108591,16.4397399 43.9347741,17 43.4292909,17 C43.2963029,17 43.1514199,16.9576946 43.0008573,16.8850895 C43.423397,16.6818523 43.893731,16.2176368 44.2862654,15.5937757 Z" id="Shape" fill="#A7A9FF" fill-rule="nonzero"></path>
                    <path d="M27.5,2.15687068 C25.7142544,2.15687068 24.25,3.54812172 24.25,5.66170124 C24.25,6.66441077 24.715505,7.63529253 25.3332882,8.37879457 L25.3332882,9.70571576 C25.3332882,10.0396376 22.8640523,11 22.8640523,11 C21.7044896,9.8353195 21,8.23867147 21,6.47047717 C21,2.90145162 23.9156384,0 27.5,0 C31.0969611,0 34,2.90145162 34,6.47047717 C34,8.23867147 33.2975426,9.8353195 32.1381154,11 C32.1381154,11 29.6667118,10.0395027 29.6667118,9.70571576 L29.6667118,8.37879457 C30.2846305,7.63515767 30.75,6.66427591 30.75,5.66170124 C30.75,3.54812172 29.2984806,2.15687068 27.5,2.15687068 Z" id="Shape" fill="#A7A9FF" fill-rule="nonzero"></path>
                    <path d="M25.3962661,9 C26.0493032,9.69989358 26.8787799,10.1634149 27.4989482,10.1634149 C28.1191165,10.1634149 28.9506968,9.69989358 29.6016303,9 L29.6016303,10.1634149 C29.6016303,10.4561901 32,11.2982145 32,11.2982145 C30.8644491,12.347168 29.264791,13 27.4989482,13 C25.7433605,13 24.1458059,12.347168 23,11.2982145 C23,11.2982145 25.3962661,10.4560719 25.3962661,10.1634149 L25.3962661,9 Z" id="Shape" fill="#CACBFF" fill-rule="nonzero"></path>
                    <path d="M27.5,10 C26.8119346,10 25.8913043,9.43973988 25.166618,8.59377568 C24.5011672,7.8056955 24,6.77678922 24,5.71429592 C24,3.47439883 25.5768894,2 27.5,2 C29.4368252,2 31,3.47439883 31,5.71429592 C31,6.77693215 30.4986869,7.80583842 29.833382,8.59377568 C29.1110301,9.43973988 28.1882113,10 27.5,10 Z" id="Shape" fill="#EFF3F7" fill-rule="nonzero"></path>
                    <path d="M25.7802608,9 L25.7802608,10.0994525 C25.7802608,10.3761314 23,11.1718628 23,11.1718628 C23.4288002,11.4912281 23.9160247,11.7670131 24.4413851,12 C25.082221,11.8107051 27,11.2233769 27,10.9929601 L27,9.97206392 C26.7010144,9.75650911 26.1805354,9.34897754 25.7802608,9 Z" id="Shape" fill="#EFF3F7" fill-rule="nonzero"></path>
                    <path d="M27,10 L27,10.1129821 C27.2834683,10.3916607 27.3797406,10.4493571 27,10 Z" id="Shape" fill="#D7E9FF" fill-rule="nonzero"></path>
                    <path d="M28.91469,9 L28.91469,10.0994525 C28.91469,10.3761314 31,11.1718628 31,11.1718628 C30.6782854,11.4912281 30.3119518,11.7670131 29.9189612,12 C29.4383342,11.8107051 28,11.2233769 28,10.9929601 L28,9.97206392 C28.2232095,9.75650911 28.614484,9.34897754 28.91469,9 Z" id="Shape" fill="#A7A9FF" fill-rule="nonzero"></path>
                    <path d="M28.25,10 L28.25,10.1129821 C27.9664333,10.3916607 27.8703447,10.4493571 28.25,10 Z" id="Shape" fill="#5C9EFF" fill-rule="nonzero"></path>
                    <path d="M25.7137346,8.59391861 C25.2250759,7.80583842 24.8568673,6.77693215 24.8568673,5.71443885 C24.8568673,3.70664952 25.7899268,2.32272126 27,2.05588309 C26.8601536,2.02572623 26.7179496,2 26.5707091,2 C25.1582068,2 24,3.47439883 24,5.71429592 C24,6.77693215 24.3682086,7.80583842 24.8568673,8.59377568 C25.3891409,9.43973988 26.0652259,10 26.5707091,10 C26.7038043,10 26.8484729,9.95755172 26.9992499,9.88508951 C26.5764958,9.68199521 26.1061618,9.21777968 25.7137346,8.59391861 Z" id="Shape" fill="#FFFFFF" fill-rule="nonzero"></path>
                    <path d="M28.2862654,8.59391861 C28.7749241,7.80583842 29.1431327,6.77693215 29.1431327,5.71443885 C29.1431327,3.70664952 28.2100732,2.32272126 27,2.05588309 C27.1397392,2.02572623 27.2819432,2 27.4292909,2 C28.8417932,2 30,3.47439883 30,5.71429592 C30,6.77693215 29.6317914,7.80583842 29.1431327,8.59377568 C28.6108591,9.43973988 27.9347741,10 27.4292909,10 C27.2961957,10 27.1515271,9.95755172 27.0008573,9.88508951 C27.4235042,9.68199521 27.893731,9.21777968 28.2862654,8.59391861 Z" id="Shape" fill="#D8DFE5" fill-rule="nonzero"></path>
                    <path d="M10.7802608,15 L10.7802608,16.0994525 C10.7802608,16.3760197 8,17.1718628 8,17.1718628 C8.42880024,17.4912281 8.91602471,17.7670131 9.44123255,18 C10.082221,17.8105934 12,17.2233769 12,16.9930719 L12,15.9720639 C11.7010144,15.7565091 11.1805354,15.3490893 10.7802608,15 Z" id="Shape" fill="#EFF3F7" fill-rule="nonzero"></path>
                    <path d="M12,16 L12,16.1129821 C12.2835667,16.3915 12.3796553,16.4493571 12,16 Z" id="Shape" fill="#D7E9FF" fill-rule="nonzero"></path>
                    <path d="M14.91469,15 L14.91469,16.0994525 C14.91469,16.3760197 17,17.1718628 17,17.1718628 C16.6782854,17.4912281 16.3120662,17.7670131 15.9189612,18 C15.4383342,17.8105934 14,17.2233769 14,16.9930719 L14,15.9720639 C14.2233239,15.7565091 14.6145984,15.3490893 14.91469,15 Z" id="Shape" fill="#A7A9FF" fill-rule="nonzero"></path>
                    <path d="M13.25,16 L13.25,16.1129821 C12.9664582,16.3915 12.8703231,16.4493571 13.25,16 Z" id="Shape" fill="#5C9EFF" fill-rule="nonzero"></path>
                    <path d="M10.7138418,15.5937757 C10.2251831,14.8058384 9.8568673,13.7767892 9.8568673,12.7142959 C9.8568673,10.7065066 10.7899268,9.32257834 12,9.05574017 C11.8602608,9.02572623 11.7179496,9 11.5707091,9 C10.1580997,9 9,10.4742559 9,12.7142959 C9,13.7767892 9.36820861,14.8058384 9.8568673,15.5937757 C10.3891409,16.4397399 11.0652259,17 11.5707091,17 C11.7036971,17 11.8484729,16.9576946 11.9991427,16.8850895 C11.576603,16.6818523 11.1063761,16.2176368 10.7138418,15.5937757 Z" id="Shape" fill="#FFFFFF" fill-rule="nonzero"></path>
                    <path d="M13.2861582,15.5937757 C13.7749241,14.8058384 14.1430255,13.7767892 14.1430255,12.7142959 C14.1430255,10.7065066 13.2099661,9.32257834 12,9.05574017 C12.1397392,9.02572623 12.2819432,9 12.4292909,9 C13.8417932,9 15,10.4742559 15,12.7142959 C15,13.7767892 14.6317914,14.8058384 14.1430255,15.5937757 C13.6108591,16.4397399 12.9346669,17 12.4292909,17 C12.2961957,17 12.1514199,16.9576946 12.0008573,16.8850895 C12.423397,16.6818523 12.893731,16.2176368 13.2861582,15.5937757 Z" id="Shape" fill="#A7A9FF" fill-rule="nonzero"></path>
                    <rect id="Rectangle-path" fill="#EFF3F7" fill-rule="nonzero" x="4" y="44" width="1" height="15"></rect>
                    <rect id="Rectangle-path" fill="#EFF3F7" fill-rule="nonzero" x="4" y="32" width="1" height="9"></rect>
                    <rect id="Rectangle-path" fill="#A7A9FF" fill-rule="nonzero" x="49" y="32" width="1" height="9"></rect>
                    <rect id="Rectangle-path" fill="#A7A9FF" fill-rule="nonzero" x="24" y="44" width="1" height="15"></rect>
                    <path d="M2.4695289,26.9370312 C2.212957,26.9370312 2,26.7275 2,26.4685156 C2,26.2095313 2.20353618,26 2.460457,26 L2.4695289,26 C2.72656602,26 2.93463816,26.2095313 2.93463816,26.4685156 C2.93463816,26.7275 2.72656602,26.9370312 2.4695289,26.9370312 Z" id="Shape" fill="#5559F4" fill-rule="nonzero"></path>
                    <path d="M4.4695289,26.9370312 C4.212957,26.9370312 4,26.7275 4,26.4685156 C4,26.2095313 4.20341988,26 4.460457,26 L4.4695289,26 C4.72656602,26 4.93452185,26.2095313 4.93452185,26.4685156 C4.93452185,26.7275 4.72656602,26.9370312 4.4695289,26.9370312 Z" id="Shape" fill="#5559F4" fill-rule="nonzero"></path>
                    <path d="M6.46964521,26.9370312 C6.21307331,26.9370312 6,26.7275 6,26.4685156 C6,26.2095313 6.20353618,26 6.460457,26 L6.4695289,26 C6.72644972,26 6.93452185,26.2095313 6.93452185,26.4685156 C6.93452185,26.7275 6.72656602,26.9370312 6.46964521,26.9370312 Z" id="Shape" fill="#5559F4" fill-rule="nonzero"></path>
                    <path d="M54.4811529,28 L0.518847111,28 C0.232040679,28 0,27.7762725 0,27.5000208 L0,26.4999375 C0,25.6728084 0.698198464,25 1.55654133,25 L53.4434587,25 C54.3018015,25 55,25.6728084 55,26.4999375 L55,27.5000208 C55,27.7762725 54.7679593,28 54.4811529,28 Z M1.03769422,26.9999166 L53.9623058,26.9999166 L53.9623058,26.4999375 C53.9623058,26.228438 53.7252038,25.9999583 53.4434587,25.9999583 L1.55654133,25.9999583 C1.27025401,25.9999583 1.03769422,26.2245613 1.03769422,26.4999375 L1.03769422,26.9999166 Z" id="Shape" fill="#5559F4" fill-rule="nonzero"></path>
                    <path d="M54.464993,47 C54.2079558,47 54,46.76463 54,46.4737085 L54,27.5264232 C54,27.2355016 54.2079558,27 54.464993,27 C54.7220301,27 54.9299859,27.2355016 54.9299859,27.5264232 L54.9299859,46.4737085 C54.9299859,46.76463 54.7220301,47 54.464993,47 Z" id="Shape" fill="#5559F4" fill-rule="nonzero"></path>
                    <path d="M0.464992951,62 C0.207955827,62 0,61.7629785 0,61.4697191 L0,27.5304136 C0,27.2372868 0.207955827,27 0.464992951,27 C0.722030075,27 0.929985902,27.2372868 0.929985902,27.5304136 L0.929985902,61.4697191 C0.929985902,61.7629785 0.721913769,62 0.464992951,62 Z" id="Shape" fill="#5559F4" fill-rule="nonzero"></path>
                    <path d="M40.4875208,61.9370312 L0.51247917,61.9370312 C0.229192785,61.9370312 0,61.7276172 0,61.4685156 C0,61.2096484 0.229192785,61 0.51247917,61 L40.4875208,61 C40.7708072,61 41,61.2096484 41,61.4685156 C41,61.7276172 40.7708072,61.9370312 40.4875208,61.9370312 Z" id="Shape" fill="#5559F4" fill-rule="nonzero"></path>
                    <path d="M23.5007188,56.9994736 C23.3341393,56.9994736 23.1710614,56.9162977 23.0762662,56.7635997 L18.5000823,49.4302128 L13.9238983,56.7635997 C13.7783289,56.9994736 13.4691813,57.0707494 13.2348195,56.923062 C13.0009579,56.7762514 12.9296738,56.4672228 13.0761187,56.2333531 L18.0761299,48.2200279 C18.2587171,47.9266574 18.7411973,47.9266574 18.9237845,48.2200279 L23.9237957,56.2333531 C24.0703656,56.4672228 23.9990816,56.7762514 23.7650949,56.923062 C23.6829307,56.9750469 23.5911369,56.9994736 23.5007188,56.9994736 Z" id="Shape" fill="#5559F4" fill-rule="nonzero"></path>
                    <path d="M8.50354011,57 C8.40357433,57 8.30222189,56.9707366 8.21410578,56.9090833 C7.9866931,56.7498854 7.93160477,56.4383676 8.09157522,56.2127642 L11.6333639,51.2128476 C11.7279091,51.0791613 11.8819547,51 12.045833,51 C12.0463373,51 12.0463373,51 12.0468415,51 C12.2112241,51 12.3652697,51.0801617 12.4591846,51.213848 L14.9094176,54.7001959 C15.0683796,54.9267998 15.012787,55.2383176 14.7844919,55.3965151 C14.5550623,55.5537121 14.2410462,55.498937 14.0825884,55.2724582 L12.0444464,52.3721289 L8.91651348,56.7871524 C8.81806042,56.925716 8.6621239,57 8.50354011,57 Z" id="Shape" fill="#5559F4" fill-rule="nonzero"></path>
                    <path d="M50.4777995,40 L4.52220045,40 C4.23354037,40 4,39.7762756 4,39.5000278 L4,31.5000973 C4,31.2237244 4.23354037,31 4.52220045,31 L50.4777995,31 C50.7664596,31 51,31.2237244 51,31.5000973 L51,39.5000278 C51,39.7762756 50.7664596,40 50.4777995,40 Z M5.04440091,38.9999305 L49.9555991,38.9999305 L49.9555991,32.0000695 L5.04440091,32.0000695 L5.04440091,38.9999305 Z" id="Shape" fill="#5559F4" fill-rule="nonzero"></path>
                    <path d="M25.4762123,58 L4.52378769,58 C4.23425022,58 4,57.7602926 4,57.4643096 L4,43.5356904 C4,43.2395734 4.23425022,43 4.52378769,43 L25.4762123,43 C25.7657498,43 26,43.2395734 26,43.5356904 L26,57.4643096 C26,57.7602926 25.7657498,58 25.4762123,58 Z M5.04757538,56.9284853 L24.9524246,56.9284853 L24.9524246,44.0713807 L5.04757538,44.0713807 L5.04757538,56.9284853 Z" id="Shape" fill="#5559F4" fill-rule="nonzero"></path>
                    <path d="M8.00006253,49 C6.89704549,49 6,48.1024823 6,47 C6,45.8975177 6.89704549,45 8.00006253,45 C9.10307957,45 10,45.8975177 10,47 C10,48.1024823 9.10320463,49 8.00006253,49 Z M8.00006253,46.0000625 C7.44880413,46.0000625 6.99996874,46.4482586 6.99996874,47 C6.99996874,47.5517414 7.44867907,47.9999375 8.00006253,47.9999375 C8.55144599,47.9999375 9.00003126,47.5517414 9.00003126,47 C9.00003126,46.4482586 8.55132093,46.0000625 8.00006253,46.0000625 Z" id="Shape" fill="#5559F4" fill-rule="nonzero"></path>
                    <path d="M50.4762123,45.9371484 L29.5237877,45.9371484 C29.2342502,45.9371484 29,45.7276172 29,45.4686328 C29,45.2096484 29.2342502,45 29.5237877,45 L50.4762123,45 C50.7657498,45 51,45.2096484 51,45.4686328 C51,45.7276172 50.7657498,45.9371484 50.4762123,45.9371484 Z" id="Shape" fill="#5559F4" fill-rule="nonzero"></path>
                    <path d="M41.5000192,48.9371484 L29.4999808,48.9371484 C29.2236032,48.9371484 29,48.7275 29,48.4686328 C29,48.2095312 29.2236032,48 29.4999808,48 L41.5000192,48 C41.7763968,48 42,48.2095312 42,48.4686328 C42,48.7275 41.7763968,48.9371484 41.5000192,48.9371484 Z" id="Shape" fill="#5559F4" fill-rule="nonzero"></path>
                    <path d="M39.4998977,51.9370312 L29.4999773,51.9370312 C29.2236016,51.9370312 29,51.7275 29,51.4685156 C29,51.2095312 29.2236016,51 29.4999773,51 L39.4998977,51 C39.7763984,51 40,51.2095312 40,51.4685156 C40,51.7275 39.7763984,51.9370312 39.4998977,51.9370312 Z" id="Shape" fill="#5559F4" fill-rule="nonzero"></path>
                    <path d="M38.5000188,54.9370312 L29.4999812,54.9370312 C29.2236034,54.9370312 29,54.7275 29,54.4685156 C29,54.2095312 29.2236034,54 29.4999812,54 L38.5000188,54 C38.7763966,54 39,54.2095312 39,54.4685156 C39,54.7275 38.7763966,54.9370312 38.5000188,54.9370312 Z" id="Shape" fill="#5559F4" fill-rule="nonzero"></path>
                    <path d="M44.4857363,35.9370312 L9.51426366,35.9370312 C9.22999085,35.9370312 9,35.7275 9,35.4685156 C9,35.2095313 9.22999085,35 9.51426366,35 L44.4857363,35 C44.7700091,35 45,35.2095313 45,35.4685156 C45,35.7275 44.7700091,35.9370312 44.4857363,35.9370312 Z" id="Shape" fill="#5559F4" fill-rule="nonzero"></path>
                    <path d="M39.4782807,37.9371484 L16.5217193,37.9371484 C16.2333252,37.9371484 16,37.7276172 16,37.4686328 C16,37.2096484 16.2333252,37 16.5217193,37 L39.4782807,37 C39.7666748,37 40,37.2096484 40,37.4686328 C40,37.7276172 39.7666748,37.9371484 39.4782807,37.9371484 Z" id="Shape" fill="#5559F4" fill-rule="nonzero"></path>
                    <path d="M11.4989995,16 C10.0033051,16 8,13.896514 8,11.7451305 C8,9.61037987 9.50432344,8 11.4989995,8 C13.4950513,8 15,9.61037987 15,11.7451305 C15,13.896514 12.9950691,16 11.4989995,16 Z M11.4989995,8.99996874 C10.0507021,8.99996874 8.99996427,10.1542598 8.99996427,11.7451305 C8.99996427,13.4599343 10.6972523,15.0000313 11.4989995,15.0000313 C12.322757,15.0000313 14.0000357,13.4931999 14.0000357,11.7451305 C13.9999107,10.1542598 12.9481724,8.99996874 11.4989995,8.99996874 Z" id="Shape" fill="#5559F4" fill-rule="nonzero"></path>
                    <path d="M15.5427454,17 C15.4869513,17 15.4302426,16.9902367 15.3753632,16.9690072 C13,16.0417211 13,15.7154453 13,15.4539933 C13,15.2030993 13.2044258,15 13.4570996,15 C13.6387733,15 13.7959799,15.1055798 13.8696098,15.2579327 C14.0946153,15.4343532 14.9748579,15.8369189 15.7101275,16.1232332 C15.9449656,16.2154169 16.0605553,16.4786854 15.968175,16.7118692 C15.8970605,16.8909008 15.7248764,17 15.5427454,17 Z" id="Shape" fill="#5559F4" fill-rule="nonzero"></path>
                    <path d="M13.464993,16 C13.2079558,16 13,15.7993266 13,15.5512907 L13,14.4487093 C13,14.2006734 13.2079558,14 13.464993,14 C13.7220301,14 13.9301022,14.2006734 13.9301022,14.4487093 L13.9301022,15.5512907 C13.9299859,15.7993266 13.7220301,16 13.464993,16 Z" id="Shape" fill="#5559F4" fill-rule="nonzero"></path>
                    <path d="M7.45727206,17 C7.27513412,17 7.10271478,16.8910144 7.03182619,16.7118692 C6.93944235,16.4786854 7.05503648,16.2154169 7.28988352,16.1232332 C8.02518112,15.8369189 8.90545732,15.4343532 9.13047142,15.2579327 C9.20421842,15.1054663 9.36131668,15 9.54288294,15 C9.79556646,15 10,15.2030993 10,15.4539933 C10,15.7155588 10,16.0417211 7.6246606,16.9690072 C7.56977911,16.9902367 7.51306824,17 7.45727206,17 Z" id="Shape" fill="#5559F4" fill-rule="nonzero"></path>
                    <path d="M9.46499295,16 C9.20795583,16 9,15.7993266 9,15.5512907 L9,14.4487093 C9,14.2006734 9.20795583,14 9.46499295,14 C9.72203008,14 9.9299859,14.2006734 9.9299859,14.4487093 L9.9299859,15.5512907 C9.9299859,15.7993266 9.72203008,16 9.46499295,16 Z" id="Shape" fill="#5559F4" fill-rule="nonzero"></path>
                    <path d="M11.5000625,20 C7.91606784,20 5,16.8596193 5,13.0000673 C5,9.14038075 7.91594278,6 11.5000625,6 C15.0839322,6 18,9.14024607 18,13.0000673 C18.0001251,16.8596193 15.0840572,20 11.5000625,20 Z M11.5000625,7.07700595 C8.46731696,7.07700595 6.00007696,9.73457235 6.00007696,13.0000673 C6.00007696,16.2655623 8.46731696,18.922994 11.5000625,18.922994 C14.532683,18.922994 16.999923,16.2654276 16.999923,13.0000673 C17.0000481,9.73457235 14.5328081,7.07700595 11.5000625,7.07700595 Z" id="Shape" fill="#5559F4" fill-rule="nonzero"></path>
                    <path d="M42.4989995,16 C41.0039304,16 39,13.896514 39,11.7451305 C39,9.61037987 40.5039483,8 42.4989995,8 C44.4951763,8 46,9.61037987 46,11.7451305 C46,13.896514 43.9951942,16 42.4989995,16 Z M42.4989995,8.99996874 C41.0508272,8.99996874 40.0000893,10.1542598 40.0000893,11.7451305 C40.0000893,13.4599343 41.6972523,15.0000313 42.4989995,15.0000313 C43.3222568,15.0000313 45.0000357,13.4931999 45.0000357,11.7451305 C45.0000357,10.1542598 43.9482974,8.99996874 42.4989995,8.99996874 Z" id="Shape" fill="#5559F4" fill-rule="nonzero"></path>
                    <path d="M46.5425507,17 C46.4873301,17 46.4301658,16.9902367 46.3756311,16.9690072 C44,16.0417211 44,15.7154453 44,15.4539933 C44,15.2030993 44.2044193,15 44.4570852,15 C44.6392104,15 44.7953831,15.1055798 44.869468,15.2579327 C45.0944664,15.4343532 45.9747956,15.8369189 46.7094703,16.1232332 C46.9444152,16.2154169 47.0603443,16.4786854 46.9685386,16.7118692 C46.8969689,16.8909008 46.7245616,17 46.5425507,17 Z" id="Shape" fill="#5559F4" fill-rule="nonzero"></path>
                    <path d="M44.464993,16 C44.2079558,16 44,15.7993266 44,15.5512907 L44,14.4487093 C44,14.2006734 44.2079558,14 44.464993,14 C44.7220301,14 44.9299859,14.2006734 44.9299859,14.4487093 L44.9299859,15.5512907 C44.9299859,15.7993266 44.7220301,16 44.464993,16 Z" id="Shape" fill="#5559F4" fill-rule="nonzero"></path>
                    <path d="M38.457376,17 C38.2752537,17 38.1029635,16.8910144 38.0315094,16.7118692 C37.9395908,16.4786854 38.0556323,16.2154169 38.2904591,16.1232332 C39.0252363,15.8369189 39.9055513,15.4343532 40.1304317,15.2579327 C40.2045154,15.1054663 40.3609142,15 40.5429222,15 C40.795584,15 41,15.2030993 41,15.4539933 C41,15.7155588 41,16.0417211 38.6244072,16.9690072 C38.5698734,16.9902367 38.5127101,17 38.457376,17 Z" id="Shape" fill="#5559F4" fill-rule="nonzero"></path>
                    <path d="M40.464993,16 C40.2079558,16 40,15.7993266 40,15.5512907 L40,14.4487093 C40,14.2006734 40.2079558,14 40.464993,14 C40.7220301,14 40.9299859,14.2006734 40.9299859,14.4487093 L40.9299859,15.5512907 C40.9299859,15.7993266 40.7220301,16 40.464993,16 Z" id="Shape" fill="#5559F4" fill-rule="nonzero"></path>
                    <path d="M42.4999375,20 C38.9160678,20 36,16.8596193 36,13.0000673 C36,9.14038075 38.9159428,6 42.4999375,6 C46.0839322,6 49,9.14024607 49,13.0000673 C49,16.8596193 46.0839322,20 42.4999375,20 Z M42.4999375,7.07700595 C39.4678172,7.07700595 37.000077,9.73457235 37.000077,13.0000673 C37.000077,16.2655623 39.4678172,18.922994 42.4999375,18.922994 C45.5321828,18.922994 47.999923,16.2654276 47.999923,13.0000673 C48.0000481,9.73457235 45.5321828,7.07700595 42.4999375,7.07700595 Z" id="Shape" fill="#5559F4" fill-rule="nonzero"></path>
                    <path d="M27.4989995,10 C26.0034302,10 24,7.89651399 24,5.74513053 C24,3.61037987 25.5043234,2 27.4989995,2 C29.4950513,2 31,3.61037987 31,5.74513053 C30.9998749,7.89651399 28.9950691,10 27.4989995,10 Z M27.4989995,2.99996874 C26.0507021,2.99996874 24.9999643,4.15425981 24.9999643,5.74513053 C24.9999643,7.4600594 26.6972523,9.00003126 27.4989995,9.00003126 C28.322757,9.00003126 30.0000357,7.49319994 30.0000357,5.74513053 C29.9999107,4.15425981 28.9481724,2.99996874 27.4989995,2.99996874 Z" id="Shape" fill="#5559F4" fill-rule="nonzero"></path>
                    <path d="M31.5426638,11 C31.4873289,11 31.4301647,10.9902367 31.37563,10.9690072 C29,10.0417211 29,9.71544531 29,9.45387978 C29,9.20298575 29.2044192,9 29.457085,9 C29.6387528,9 29.7959544,9.10546631 29.8694675,9.25793268 C30.0945802,9.43435318 30.9747946,9.83680536 31.7095833,10.1231197 C31.9444138,10.2153034 32.0603428,10.4786854 31.9685371,10.7118692 C31.8970819,10.8909008 31.724789,11 31.5426638,11 Z" id="Shape" fill="#5559F4" fill-rule="nonzero"></path>
                    <path d="M29.464993,10 C29.2079558,10 29,9.7993266 29,9.55129068 L29,8.44882155 C29,8.20078563 29.2079558,8 29.464993,8 C29.7220301,8 29.9299859,8.20078563 29.9299859,8.44882155 L29.9299859,9.55129068 C29.9299859,9.7993266 29.7220301,10 29.464993,10 Z" id="Shape" fill="#5559F4" fill-rule="nonzero"></path>
                    <path d="M22.4572546,11 C22.2751236,11 22.1028252,10.8909008 22.031825,10.7118692 C21.9394447,10.4786854 22.0550344,10.2154169 22.2898725,10.1231197 C23.0251421,9.83680536 23.905499,9.43435318 24.1305046,9.25793268 C24.2041344,9.10546631 24.361341,9 24.5429004,9 C24.7955742,9 25,9.20298575 25,9.45387978 C25,9.71544531 25,10.0417211 22.6247511,10.9690072 C22.5697574,10.9902367 22.5130487,11 22.4572546,11 Z" id="Shape" fill="#5559F4" fill-rule="nonzero"></path>
                    <path d="M25.464993,10 C25.2079558,10 25,9.7993266 25,9.55129068 L25,8.44882155 C25,8.20078563 25.2079558,8 25.464993,8 C25.7220301,8 25.9299859,8.20078563 25.9299859,8.44882155 L25.9299859,9.55129068 C25.9299859,9.7993266 25.7220301,10 25.464993,10 Z" id="Shape" fill="#5559F4" fill-rule="nonzero"></path>
                    <path d="M27.5,14 C23.9159708,14 21,10.8597539 21,6.99993266 C21,3.14038075 23.9159708,0 27.5,0 C31.0840292,0 34,3.14024607 34,6.99993266 C34,10.8597539 31.0840292,14 27.5,14 Z M27.5,1.07700595 C24.4673503,1.07700595 21.9999615,3.73457235 21.9999615,6.99993266 C21.9999615,10.2654276 24.4672253,12.922994 27.5,12.922994 C30.5322745,12.922994 33.0000385,10.2654276 33.0000385,6.99993266 C33.0000385,3.73470703 30.5322745,1.07700595 27.5,1.07700595 Z" id="Shape" fill="#5559F4" fill-rule="nonzero"></path>
                    <path d="M31.499936,23 C31.3534929,23 31.2080503,22.9355619 31.1093794,22.8124415 C30.9375495,22.5964802 30.9715653,22.2819224 31.1875408,22.108878 L36.1874911,18.1087138 C36.4052173,17.9376715 36.7187381,17.971955 36.8905681,18.1869154 C37.062523,18.4028767 37.0283821,18.7174345 36.8124067,18.8904788 L31.8124564,22.890643 C31.7197883,22.9638396 31.6093619,23 31.499936,23 Z" id="Shape" fill="#5559F4" fill-rule="nonzero"></path>
                    <path d="M31.464993,23 C31.2080721,23 31,22.7761642 31,22.4994992 L31,21.5005008 C31,21.2238358 31.2080721,21 31.464993,21 C31.7221464,21 31.9301022,21.2238358 31.9301022,21.5005008 L31.9301022,22.4994992 C31.9301022,22.7760391 31.7221464,23 31.464993,23 Z" id="Shape" fill="#5559F4" fill-rule="nonzero"></path>
                    <path d="M32.5000313,22.9370312 L31.4999687,22.9370312 C31.2237229,22.9370312 31,22.7275 31,22.4685156 C31,22.2095312 31.2237229,22 31.4999687,22 L32.5000313,22 C32.7764022,22 33,22.2095312 33,22.4685156 C33,22.7275 32.7764022,22.9370312 32.5000313,22.9370312 Z" id="Shape" fill="#5559F4" fill-rule="nonzero"></path>
                    <path d="M23.4995887,23 C23.3901628,23 23.2798615,22.9638392 23.1880688,22.8906418 L18.1879924,18.8904356 C17.972142,18.7173894 17.9370006,18.4028283 18.1094559,18.1868647 C18.2822863,17.9719021 18.597683,17.9377434 18.8120327,18.1086624 L23.8119841,22.1088687 C24.0278345,22.2817897 24.0629759,22.5964759 23.8906457,22.8124395 C23.7920998,22.9354361 23.6465321,23 23.4995887,23 Z" id="Shape" fill="#5559F4" fill-rule="nonzero"></path>
                    <path d="M23.464993,23 C23.2079558,23 23,22.7761642 23,22.4994992 L23,21.5005008 C23,21.2238358 23.2079558,21 23.464993,21 C23.7220301,21 23.9301022,21.2238358 23.9301022,21.5005008 L23.9301022,22.4994992 C23.9301022,22.7760391 23.7220301,23 23.464993,23 Z" id="Shape" fill="#5559F4" fill-rule="nonzero"></path>
                    <path d="M23.4999375,22.9370312 L22.4999375,22.9370312 C22.2235838,22.9370312 22,22.7275 22,22.4685156 C22,22.2095312 22.2235838,22 22.4999375,22 L23.4999375,22 C23.7762911,22 24,22.2095312 24,22.4685156 C24,22.7275 23.7762911,22.9370312 23.4999375,22.9370312 Z" id="Shape" fill="#5559F4" fill-rule="nonzero"></path>
                    <path d="M27.464993,22 C27.2079558,22 27,21.7763682 27,21.4999553 L27,15.5000447 C27,15.2237569 27.2079558,15 27.464993,15 C27.7220301,15 27.9301022,15.2237569 27.9301022,15.5000447 L27.9301022,21.4999553 C27.9301022,21.7763682 27.7220301,22 27.464993,22 Z" id="Shape" fill="#5559F4" fill-rule="nonzero"></path>
                    <path d="M27.5855176,22 C27.4357153,22 27.285913,21.9427421 27.1715478,21.8285191 C26.9428174,21.5997803 26.9428174,21.2292879 27.1715478,21.0005491 L28.0005125,20.1715541 C28.2292429,19.9428153 28.5997218,19.9428153 28.8284522,20.1715541 C29.0571826,20.4002929 29.0571826,20.7707853 28.8284522,20.9993776 L27.999341,21.8285191 C27.8851223,21.9428885 27.73532,22 27.5855176,22 Z" id="Shape" fill="#5559F4" fill-rule="nonzero"></path>
                    <path d="M27.4146288,22 C27.2648265,22 27.1150242,21.9427421 27.000659,21.8285191 L26.1715478,20.9993776 C25.9428174,20.7706388 25.9428174,20.4001464 26.1715478,20.1715541 C26.4002782,19.9428153 26.7707571,19.9428153 26.9994875,20.1715541 L27.8284522,21.0005491 C28.0571826,21.2292879 28.0571826,21.5997803 27.8284522,21.8285191 C27.7142334,21.9428885 27.5644311,22 27.4146288,22 Z" id="Shape" fill="#5559F4" fill-rule="nonzero"></path>
                    <text id="05" font-family="GothamPro-Medium, Gotham Pro" font-size="18" font-weight="400" line-spacing="27" fill="#5559F4">
                        <tspan x="41" y="59">05</tspan>
                    </text>
                </g>
            </g>
        </g>
    </g>
</svg>