<?xml version="1.0" encoding="UTF-8"?>
<svg width="68px" height="62px" viewBox="0 0 68 62" version="1.1" xmlns="http://www.w3.org/2000/svg" xmlns:xlink="http://www.w3.org/1999/xlink">
    <!-- Generator: sketchtool 50.2 (55047) - http://www.bohemiancoding.com/sketch -->
    <title>4EC9EAA4-602A-458C-A925-0E035D0250D7</title>
    <desc>Created with sketchtool.</desc>
    <defs></defs>
    <g class="default" stroke="none" stroke-width="1" fill="none" fill-rule="evenodd">
        <g id="Рабочий-стол" transform="translate(-1077.000000, -226.000000)">
            <g id="Group-20" transform="translate(1077.000000, 226.000000)">
                <g id="21-site,-seo,-promotion,-marketing,-web" fill-rule="nonzero">
                    <rect id="Rectangle-path" fill="#FFFFFF" x="1" y="3" width="66" height="42"></rect>
                    <rect id="Rectangle-path" fill="#D8DFE5" x="26" y="20" width="17" height="11"></rect>
                    <rect id="Rectangle-path" fill="#C6CCD2" x="42" y="20" width="1" height="11"></rect>
                    <rect id="Rectangle-path" fill="#D8DFE5" x="47" y="20" width="15" height="11"></rect>
                    <path d="M51,24 C51,24.5527764 50.5517759,25 50,25 C49.4472236,25 49,24.5527764 49,24 C49,23.4472236 49.4472236,23 50,23 C50.5517759,23 51,23.4472236 51,24 Z" id="Shape" fill="#FFFFFF"></path>
                    <rect id="Rectangle-path" fill="#EFF3F7" x="47" y="20" width="1" height="9"></rect>
                    <rect id="Rectangle-path" fill="#D8DFE5" x="5" y="20" width="17" height="11"></rect>
                    <polygon id="Shape" fill="#FFFFFF" points="21 31 13 31 16.9742087 25"></polygon>
                    <polygon id="Shape" fill="#C9D0D6" points="14 28.7733312 12.708168 31 9 31 12.21633 26"></polygon>
                    <path d="M9,24 C9,24.5527764 8.55227614,25 8,25 C7.44772386,25 7,24.5527764 7,24 C7,23.4472236 7.44772386,23 8,23 C8.55227614,23 9,23.4472236 9,24 Z" id="Shape" fill="#FFFFFF"></path>
                    <polygon id="Shape" fill="#FFFFFF" points="41 31 33 31 36.9740704 25"></polygon>
                    <rect id="Rectangle-path" fill="#C6CCD2" x="20" y="20" width="1" height="11"></rect>
                    <polygon id="Shape" fill="#C9D0D6" points="35 28.7733312 33.708168 31 30 31 33.21633 26"></polygon>
                    <path d="M30,24 C30,24.5527764 29.5522761,25 29,25 C28.4477239,25 28,24.5527764 28,24 C28,23.4472236 28.4477239,23 29,23 C29.5522761,23 30,23.4472236 30,24 Z" id="Shape" fill="#FFFFFF"></path>
                    <rect id="Rectangle-path" fill="#D8DFE5" x="5" y="7" width="57" height="9"></rect>
                    <polygon id="Shape" fill="#D8DFE5" points="48 48.4701886 38.5905454 50 38 46.697726 47.4385108 45"></polygon>
                    <polygon id="Shape" fill="#D1D5DA" points="47.4646502 45 46.4817418 45.1849695 46.9885025 48.4701886 39 49.8331947 39.0285891 50 48 48.4701886"></polygon>
                    <polygon id="Shape" fill="#EFF3F7" points="39.0083793 46.697726 47 45.1849695 46.9713729 45 38 46.697726 38.5613177 50 39.5411961 49.8331947"></polygon>
                    <polygon id="Shape" fill="#D8DFE5" points="33.8393634 45.4106106 30.9861557 44.8818245 29 34.8752904 34.2271462 32 37 46"></polygon>
                    <polygon id="Shape" fill="#EFF3F7" points="34.9805895 45.4106106 32.1273817 44.8818245 30.1413687 34.8752904 34.3397559 32.5665203 34.2271462 32 29 34.8752904 30.9861557 44.8818245 33.8393634 45.4106106 37 46 36.9567544 45.7789313"></polygon>
                    <rect id="Rectangle-path" fill="#C6CCD2" x="61" y="7" width="1" height="9"></rect>
                    <path d="M63.1456143,30.3388315 L61.3421458,20 L59.3110687,20.3636696 C60.3939489,26.5106752 44.1511322,29.4022131 44.1511322,29.4022131 L35.0206294,31.0353447 L34,31.2121069 L36.50408,45.5444109 L46.6561143,43.7447925 C46.6561143,43.7447925 63.2483346,42.9016928 63.9700829,47 L66,46.6362003 L63.1456143,30.3388315 Z" id="Shape" fill="#EFF3F7"></path>
                    <polygon id="Shape" fill="#D8DFE5" points="67 46.636202 64.8756816 47 60 20.3636679 62.1255323 20"></polygon>
                    <polygon id="Shape" fill="#C6CCD2" points="62.0600296 20 61 20.1787123 65.9070281 46.636202 64.8140563 46.8211576 64.8471352 47 67 46.636202"></polygon>
                    <polygon id="Shape" fill="#D8DFE5" points="50 60.0542553 44.4432399 61 40 48.9027014 45.4211141 48"></polygon>
                    <polygon id="Shape" fill="#C6CCD2" points="45.9291751 48 45 48.1739162 49.0118865 60.0542553 45.0009885 60.821927 45.0598033 61 50 60.0542553"></polygon>
                    <polygon id="Shape" fill="#D7E9FF" points="41.0125348 48.9027014 44.9989871 48.1739162 44.9387187 48 40 48.9027014 44.0478602 61 45 60.821927"></polygon>
                    <path d="M67,3 L67,2.00006253 C67,1.45032202 66.5283562,1 65.9524267,1 L2.0475733,1 C1.47164381,1 1,1.45019696 1,2.00006253 L1,3 L67,3 Z" id="Shape" fill="#EFF3F7"></path>
                    <rect id="Rectangle-path" fill="#EFF3F7" x="5" y="20" width="1" height="11"></rect>
                    <rect id="Rectangle-path" fill="#EFF3F7" x="5" y="7" width="1" height="9"></rect>
                    <rect id="Rectangle-path" fill="#EFF3F7" x="26" y="20" width="1" height="11"></rect>
                    <g id="_x32_1_site_x2C__seo_x2C__promotion_x2C__marketing_x2C__web" fill="#96A2B4">
                        <g id="Group" transform="translate(28.631424, 19.891182)">
                            <path d="M35.440843,25.1353874 C35.1906464,25.1353874 34.9690812,24.9567594 34.9239013,24.7031468 L31.2758902,4.09352674 C31.2255882,3.80837617 31.4164206,3.53762054 31.7015528,3.48763086 C31.9845836,3.42834991 32.2594715,3.62752345 32.3096422,3.91162711 L35.9577846,24.5212472 C36.009006,24.8065286 35.8183049,25.0771534 35.532122,25.1272739 C35.5013892,25.1334245 35.4705251,25.1353874 35.440843,25.1353874 Z" id="Shape"></path>
                            <path d="M35.9865474,28.2278119 C35.7362194,28.2278119 35.5146543,28.0489221 35.4705251,27.7955713 C34.9977126,25.1241332 24.7315085,24.6336585 18.3707357,24.9506088 C18.0794306,24.9803147 17.8354069,24.74306 17.8209598,24.4547688 C17.8066441,24.1656923 18.02926,23.9203241 18.319383,23.90606 C20.0947939,23.815372 35.717701,23.1653752 36.5044084,27.6136717 C36.5547104,27.8986914 36.363878,28.1695779 36.0787458,28.2196984 C36.048013,28.2257181 36.0171489,28.2278119 35.9865474,28.2278119 Z" id="Shape"></path>
                            <path d="M15.7904928,10.5243982 C15.5401648,10.5243982 15.3185997,10.3455084 15.2744705,10.0921576 C15.2242998,9.80700704 15.4150009,9.53625141 15.7001331,9.48613086 C20.1594116,8.70134522 31.5516975,5.64896482 30.7292664,1.00136398 C30.6779137,0.716213415 30.8687461,0.445326923 31.154929,0.395337242 C31.4390105,0.335009381 31.7138984,0.535229831 31.7630184,0.81933349 C32.2677457,3.66743668 29.693413,6.17202439 24.1142255,8.26387008 C20.1143631,9.7639531 15.9237997,10.5089564 15.8826912,10.5161538 C15.8518271,10.5223044 15.8212256,10.5243982 15.7904928,10.5243982 Z" id="Shape"></path>
                            <path d="M31.2460767,1.4336046 C30.9958801,1.4336046 30.7743149,1.25484568 30.7291351,1.00136398 C30.6777824,0.716213415 30.8686148,0.445326923 31.1547977,0.395337242 L33.2223016,0.0325848968 C33.5063832,-0.0247331144 33.7802204,0.172608349 33.8305224,0.456712008 C33.8818751,0.74186257 33.6910427,1.0126182 33.4049911,1.06273874 L31.3373558,1.42549109 C31.306623,1.43151079 31.2758902,1.4336046 31.2460767,1.4336046 Z" id="Shape"></path>
                            <path d="M38.0561528,27.8638818 C37.8059562,27.8638818 37.584391,27.6852538 37.5392111,27.4316412 L32.7969017,0.638480769 C32.745549,0.353330206 32.9363814,0.0825745779 33.222433,0.0324540338 C33.5065145,-0.0248639775 33.7803517,0.172477486 33.8306537,0.456581144 L38.5729631,27.2496107 C38.6243158,27.5348921 38.4334834,27.8055169 38.1474319,27.8556374 C38.116699,27.861788 38.0858349,27.8638818 38.0561528,27.8638818 Z" id="Shape"></path>
                            <path d="M35.9865474,28.2278119 C35.7362194,28.2278119 35.5146543,28.0489221 35.4705251,27.7955713 C35.4203544,27.5113368 35.6110555,27.2396651 35.8961877,27.1895446 L37.9647424,26.8256144 C38.2509253,26.7682964 38.5226611,26.9656379 38.5729631,27.2496107 C38.6243158,27.5338452 38.4334834,27.8055169 38.1474319,27.8556374 L36.0787458,28.2195675 C36.048013,28.2257181 36.0171489,28.2278119 35.9865474,28.2278119 Z" id="Shape"></path>
                            <path d="M8.00195755,26.7684273 C7.75176094,26.7684273 7.53019575,26.5897992 7.48606658,26.3361867 L4.93235373,11.90906 C4.90766241,11.7720464 4.93905191,11.632023 5.01903602,11.5177795 C5.09902014,11.4043213 5.22103203,11.3265886 5.35801632,11.3030333 L15.7001331,9.48613086 C15.9821132,9.42999062 16.2580518,9.62615432 16.3083538,9.91025797 C16.3586558,10.1954085 16.1678234,10.4661642 15.8826912,10.5161538 L6.05738481,12.2419756 L8.42867083,25.6390793 L18.2539773,23.9131266 C18.5401602,23.8551543 18.811896,24.0531501 18.8620667,24.3373846 C18.9123687,24.6224043 18.7216676,24.8932908 18.4365354,24.9434114 L8.09428733,26.7601829 C8.06355451,26.7663335 8.03269036,26.7684273 8.00195755,26.7684273 Z" id="Shape"></path>
                            <path d="M8.00300825,26.7684273 C7.96728464,26.7684273 7.93129835,26.7643705 7.8954434,26.7571731 L2.35972839,25.6044006 C2.14945816,25.5606923 1.98699453,25.3941037 1.94995755,25.1834142 L0.125426649,14.878735 C0.0879956597,14.6681764 0.183346181,14.4555239 0.365378993,14.3432434 L5.17243741,11.3735685 C5.32111068,11.2826187 5.50616424,11.2692706 5.66363707,11.3408527 C5.8225546,11.4113879 5.93589826,11.556515 5.96610573,11.7270295 L8.51994991,26.1541562 C8.54963203,26.3249325 8.49433924,26.4997655 8.36917526,26.6213372 C8.26962196,26.7162129 8.1373658,26.7684273 8.00300825,26.7684273 Z M2.92224392,24.6531571 L7.35184036,25.5748255 L5.06684262,12.6705521 L1.22130095,15.0451928 L2.92224392,24.6531571 Z" id="Shape"></path>
                            <path d="M17.9790893,22.891348 C17.7287614,22.891348 17.5071962,22.71272 17.4631984,22.4591074 L15.6395868,12.1533813 C15.5892848,11.8680999 15.7801172,11.5974751 16.0651181,11.5473546 C16.3482802,11.4910835 16.6230368,11.6871163 16.6733388,11.9713508 L18.4969503,22.2770769 C18.5472523,22.5623583 18.35642,22.8329831 18.0712878,22.8831037 C18.0405549,22.8892542 18.0098221,22.891348 17.9790893,22.891348 Z" id="Shape"></path>
                            <path d="M3.07551398,17.009447 C2.82531736,17.009447 2.60375217,16.8305572 2.55909766,16.5772064 C2.50827031,16.291925 2.69897135,16.0213002 2.98462891,15.9711796 L4.0194316,15.7891492 C4.3056145,15.7309151 4.57735035,15.9291726 4.62752101,16.2131454 C4.67834835,16.4984268 4.48764731,16.7690516 4.20198976,16.8191721 L3.16718707,17.0012026 C3.13658559,17.0073532 3.10572144,17.009447 3.07551398,17.009447 Z" id="Shape"></path>
                            <path d="M4.16981224,23.1919404 C3.91961563,23.1919404 3.69805043,23.0130507 3.65339592,22.7596998 C3.60256858,22.4754653 3.79326962,22.2037936 4.07892717,22.1536731 L5.1128105,21.9716426 C5.39886207,21.9123616 5.67086059,22.111666 5.72103125,22.3956388 C5.77172726,22.6798734 5.58102622,22.951545 5.29536866,23.0016656 L4.26161667,23.1836961 C4.23088385,23.1898466 4.2000197,23.1919404 4.16981224,23.1919404 Z" id="Shape"></path>
                            <path d="M3.62213776,20.0995159 C3.37194115,20.0995159 3.15037595,19.9208879 3.10519609,19.6662284 C3.05541944,19.3822556 3.24612049,19.1113691 3.53177804,19.0612486 L4.56658073,18.880265 C4.85223828,18.8242556 5.12410547,19.0202885 5.17467014,19.3055699 C5.22444679,19.5895427 5.03374575,19.8604292 4.74808819,19.9105497 L3.7132855,20.0912716 C3.68268403,20.0974221 3.65247656,20.0995159 3.62213776,20.0995159 Z" id="Shape"></path>
                            <path d="M6.39176832,11.6441932 C6.1415717,11.6441932 5.91948116,11.4655652 5.87482665,11.2119526 C5.82399931,10.9279798 6.01470035,10.6560464 6.3003579,10.6060568 L8.36904392,10.2422575 C8.65102405,10.1840235 8.92696267,10.382281 8.97726467,10.6663846 C9.02756667,10.9504883 8.83673429,11.2222908 8.55160208,11.2722805 L6.4830474,11.6359489 C6.45231458,11.6422303 6.42158177,11.6441932 6.39176832,11.6441932 Z" id="Shape"></path>
                            <path d="M21.0640595,40.2278218 C20.8486672,40.2278218 20.6454891,40.0948649 20.5695765,39.8805113 L16.6938273,29.0738415 C16.5963754,28.8021698 16.7379565,28.5026243 17.0107431,28.4055239 C17.285631,28.3097322 17.5850789,28.4494939 17.6825308,28.7224742 L21.5582799,39.529144 C21.6566512,39.8008157 21.5131001,40.1000994 21.2403135,40.1971998 C21.1829194,40.2176144 21.1223731,40.2278218 21.0640595,40.2278218 Z" id="Shape"></path>
                            <path d="M15.8929355,41.1365347 C15.6775431,41.1365347 15.4743651,41.0035779 15.3985838,40.7889625 L11.5228346,29.9825544 C11.4253827,29.710621 11.5668325,29.4113372 11.8397503,29.3142369 C12.1155576,29.2201463 12.4140862,29.3582068 12.5114068,29.6309254 L16.3871559,40.4375952 C16.4856585,40.7092669 16.3421074,41.0088124 16.0691895,41.1059128 C16.0119266,41.1263274 15.9513804,41.1365347 15.8929355,41.1365347 Z" id="Shape"></path>
                            <path d="M14.8591835,41.3181726 C14.6089869,41.3181726 14.3872904,41.1395446 14.3422418,40.885932 C14.2908891,40.6009123 14.4817215,40.3300258 14.7677731,40.2799053 L22.0074518,39.0075239 C22.2904826,38.9515145 22.5653706,39.1475474 22.6156726,39.4317819 C22.6659746,39.7168016 22.4752735,39.9876881 22.1901413,40.0378086 L14.9503312,41.3099282 C14.9195984,41.3162097 14.8888656,41.3181726 14.8591835,41.3181726 Z" id="Shape"></path>
                            <path d="M9.58351536,29.6788213 C9.33318741,29.6788213 9.11162222,29.4999315 9.0665737,29.2465807 L8.86142561,28.0867416 C8.81007292,27.8017219 9.0009053,27.5308354 9.28708819,27.4807148 C9.57327109,27.4214339 9.84500694,27.6207383 9.8951776,27.9047111 L10.1003257,29.0645502 C10.1516784,29.3498316 9.96084601,29.6204564 9.67466311,29.6705769 C9.64406163,29.6767275 9.61319748,29.6788213 9.58351536,29.6788213 Z" id="Shape"></path>
                            <path d="M9.58351536,29.6788213 C9.33213672,29.6788213 9.10965217,29.4988846 9.0665737,29.2446177 C9.0173224,28.9603832 9.20802344,28.6897584 9.49420634,28.6396379 L18.8087439,27.0363039 C19.0928254,26.9861834 19.365612,27.1784212 19.4147319,27.4634409 C19.4639832,27.7476754 19.2732822,28.0183002 18.9870993,28.0684207 L9.67256172,29.6717547 C9.64301094,29.6767275 9.61227812,29.6788213 9.58351536,29.6788213 Z" id="Shape"></path>
                            <path d="M18.8979216,28.0754873 C18.647725,28.0754873 18.4261598,27.8965976 18.3809799,27.6432467 L18.1984218,26.6121768 C18.1470691,26.3268954 18.3379015,26.0562706 18.6240844,26.0061501 C18.9059332,25.9488321 19.1820031,26.1459118 19.2321738,26.4301463 L19.4147319,27.4612162 C19.4660846,27.7464977 19.2752523,28.0171224 18.9892007,28.067243 C18.9584679,28.0733935 18.9276037,28.0754873 18.8979216,28.0754873 Z" id="Shape"></path>
                        </g>
                        <path d="M2.67217865,2.12730957 C2.38244965,2.12730957 2.14197196,1.89332645 2.14197196,1.60411914 C2.14197196,1.31491182 2.37168003,1.08079784 2.66193438,1.08079784 L2.67217865,1.08079784 C2.96243299,1.08079784 3.19726319,1.31491182 3.19726319,1.60411914 C3.19726319,1.89332645 2.96243299,2.12730957 2.67217865,2.12730957 Z" id="Shape"></path>
                        <path d="M4.77264818,2.12730957 C4.48291918,2.12730957 4.24244149,1.89332645 4.24244149,1.60411914 C4.24244149,1.31491182 4.47214957,1.08079784 4.76240391,1.08079784 L4.77264818,1.08079784 C5.06290252,1.08079784 5.29773273,1.31491182 5.29773273,1.60411914 C5.29773273,1.89332645 5.06290252,2.12730957 4.77264818,2.12730957 Z" id="Shape"></path>
                        <path d="M6.87311771,2.12730957 C6.58338872,2.12730957 6.34291102,1.89332645 6.34291102,1.60411914 C6.34291102,1.31491182 6.5726191,1.08079784 6.86287344,1.08079784 L6.87311771,1.08079784 C7.16337205,1.08079784 7.39820226,1.31491182 7.39820226,1.60411914 C7.39820226,1.89332645 7.16337205,2.12730957 6.87311771,2.12730957 Z" id="Shape"></path>
                        <path d="M66.7039935,3.17369043 L0.540450955,3.17369043 C0.250196615,3.17369043 0.0153664063,2.93970732 0.0153664063,2.6505 L0.0153664063,1.60411914 C0.0153664063,0.738590994 0.72195842,0.0344169794 1.59062005,0.0344169794 L65.6536931,0.0344169794 C66.5222234,0.0344169794 67.2289467,0.738590994 67.2289467,1.60411914 L67.2289467,2.6505 C67.229078,2.93970732 66.9942478,3.17369043 66.7039935,3.17369043 Z M1.0655355,2.12730957 L66.1787776,2.12730957 L66.1787776,1.60411914 C66.1787776,1.31595872 65.9428967,1.08079784 65.6536931,1.08079784 L1.59062005,1.08079784 C1.30089106,1.08079784 1.0655355,1.31582786 1.0655355,1.60411914 L1.0655355,2.12730957 Z" id="Shape"></path>
                        <path d="M66.7039935,36.6582706 C66.4137391,36.6582706 66.1789089,36.4244184 66.1789089,36.1350802 L66.1789089,2.6505 C66.1789089,2.36129268 66.4137391,2.12730957 66.7039935,2.12730957 C66.9942478,2.12730957 67.229078,2.36129268 67.229078,2.6505 L67.229078,36.1350802 C67.229078,36.4244184 66.9942478,36.6582706 66.7039935,36.6582706 Z" id="Shape"></path>
                        <path d="M0.540450955,45.0297101 C0.250196615,45.0297101 0.0153664063,44.7958579 0.0153664063,44.5065197 L0.0153664063,2.6505 C0.0153664063,2.36129268 0.250196615,2.12730957 0.540450955,2.12730957 C0.830705295,2.12730957 1.0655355,2.36129268 1.0655355,2.6505 L1.0655355,44.5065197 C1.0655355,44.7958579 0.830705295,45.0297101 0.540450955,45.0297101 Z" id="Shape"></path>
                        <path d="M28.8963299,45.0297101 L0.540450955,45.0297101 C0.250196615,45.0297101 0.0153664063,44.7958579 0.0153664063,44.5065197 C0.0153664063,44.2174432 0.250196615,43.9833293 0.540450955,43.9833293 L28.8961986,43.9833293 C29.186453,43.9833293 29.4212832,44.2174432 29.4212832,44.5065197 C29.4214145,44.7958579 29.1865843,45.0297101 28.8963299,45.0297101 Z" id="Shape"></path>
                        <path d="M12.518893,31.4262355 C12.4272199,31.4262355 12.3343648,31.4026801 12.2496525,31.3516435 C12.0009006,31.2033757 11.9199971,30.8815835 12.0691957,30.6342523 L15.8434215,24.3555746 C15.9382467,24.1982772 16.1336759,24.0642735 16.2936441,24.1011768 C16.4771216,24.1011768 16.6474655,24.1963143 16.7422906,24.3525647 L20.5657677,30.6312425 C20.716411,30.8785736 20.6374776,31.2003659 20.389251,31.3507275 C20.1415498,31.5000422 19.8184613,31.4212627 19.6683433,31.1748476 L16.2966648,25.6382941 L12.9696409,31.1718377 C12.871795,31.3352856 12.697511,31.4262355 12.518893,31.4262355 Z" id="Shape"></path>
                        <path d="M9.30271727,31.4262355 C9.20263863,31.4262355 9.10216597,31.3975765 9.01298828,31.3393424 C8.77093455,31.1787735 8.70526615,30.8539714 8.86575972,30.6138377 L11.6553535,26.4281834 C11.7528054,26.2820094 11.9168451,26.1942003 12.0928364,26.1942003 C12.2686964,26.1942003 12.4328674,26.2820094 12.5301879,26.4281834 L14.0773355,28.7499554 C14.2378291,28.9900891 14.1721607,29.315022 13.9301069,29.4754601 C13.6875279,29.6327575 13.3624693,29.5694198 13.202501,29.3282392 L12.0928364,27.6635305 L9.74059418,31.1921215 C9.63959618,31.3444461 9.47292977,31.4262355 9.30271727,31.4262355 Z" id="Shape"></path>
                        <path d="M62.5030544,16.7762491 L4.74139002,16.7762491 C4.45113568,16.7762491 4.21630547,16.5422659 4.21630547,16.2530586 L4.21630547,6.83628518 C4.21630547,6.54707786 4.45113568,6.31309475 4.74139002,6.31309475 L62.5031858,6.31309475 C62.7934401,6.31309475 63.0282703,6.54707786 63.0282703,6.83628518 L63.0282703,16.2530586 C63.028139,16.5422659 62.7933088,16.7762491 62.5030544,16.7762491 Z M5.26647457,15.7298682 L61.9781012,15.7298682 L61.9781012,7.35947561 L5.26647457,7.35947561 L5.26647457,15.7298682 Z" id="Shape"></path>
                        <path d="M21.5447523,31.4262355 L4.74139002,31.4262355 C4.45113568,31.4262355 4.21630547,31.1921215 4.21630547,30.903045 L4.21630547,20.4387129 C4.21630547,20.1495056 4.45113568,19.9155225 4.74139002,19.9155225 L21.5447523,19.9155225 C21.8350066,19.9155225 22.0698368,20.1495056 22.0698368,20.4387129 L22.0698368,30.903045 C22.0698368,31.1921215 21.8350066,31.4262355 21.5447523,31.4262355 Z M5.26647457,30.3798546 L21.0196677,30.3798546 L21.0196677,20.9620342 L5.26647457,20.9620342 L5.26647457,30.3798546 Z" id="Shape"></path>
                        <path d="M7.83397778,25.1476886 C6.96531615,25.1476886 6.25872413,24.4436454 6.25872413,23.5779864 C6.25872413,22.7123274 6.96531615,22.0084151 7.83397778,22.0084151 C8.70263941,22.0084151 9.40936276,22.7124583 9.40936276,23.5779864 C9.40936276,24.4435145 8.70277075,25.1476886 7.83397778,25.1476886 Z M7.83397778,23.054796 C7.54424878,23.054796 7.30889323,23.289826 7.30889323,23.5779864 C7.30889323,23.8661468 7.54424878,24.1011768 7.83397778,24.1011768 C8.12370677,24.1011768 8.35906233,23.8661468 8.35906233,23.5779864 C8.35906233,23.289826 8.12370677,23.054796 7.83397778,23.054796 Z" id="Shape"></path>
                        <path d="M56.7269931,11.544083 L10.5175827,11.544083 C10.2273284,11.544083 9.99236684,11.3100999 9.99236684,11.0208926 C9.99236684,10.7316853 10.2273284,10.4977022 10.5175827,10.4977022 L56.7269931,10.4977022 C57.0171161,10.4977022 57.2520776,10.7316853 57.2520776,11.0208926 C57.2520776,11.3100999 57.0171161,11.544083 56.7269931,11.544083 Z" id="Shape"></path>
                        <path d="M50.4255845,13.6369756 L16.81886,13.6369756 C16.5286056,13.6369756 16.2937754,13.4029925 16.2937754,13.1137852 C16.2937754,12.8245779 16.5286056,12.5904639 16.81886,12.5904639 L50.4257158,12.5904639 C50.7159701,12.5904639 50.9508003,12.8245779 50.9508003,13.1137852 C50.9508003,13.4029925 50.7158388,13.6369756 50.4255845,13.6369756 Z" id="Shape"></path>
                        <path d="M21.5447523,34.5655089 L4.74139002,34.5655089 C4.45113568,34.5655089 4.21630547,34.3313949 4.21630547,34.0423185 C4.21630547,33.7529803 4.45113568,33.519128 4.74139002,33.519128 L21.5447523,33.519128 C21.8350066,33.519128 22.0698368,33.7529803 22.0698368,34.0423185 C22.0698368,34.3313949 21.8350066,34.5655089 21.5447523,34.5655089 Z" id="Shape"></path>
                        <path d="M21.5447523,37.7046515 L4.74139002,37.7046515 C4.45113568,37.7046515 4.21630547,37.4707992 4.21630547,37.1814611 C4.21630547,36.8923846 4.45113568,36.6582706 4.74139002,36.6582706 L21.5447523,36.6582706 C21.8350066,36.6582706 22.0698368,36.8923846 22.0698368,37.1814611 C22.0698368,37.4707992 21.8350066,37.7046515 21.5447523,37.7046515 Z" id="Shape"></path>
                        <path d="M13.1430055,40.8440558 L4.74139002,40.8440558 C4.45113568,40.8440558 4.21630547,40.6099418 4.21630547,40.3208654 C4.21630547,40.0315272 4.45113568,39.797675 4.74139002,39.797675 L13.1431368,39.797675 C13.4333911,39.797675 13.6682214,40.0315272 13.6682214,40.3208654 C13.66809,40.6099418 13.4332598,40.8440558 13.1430055,40.8440558 Z" id="Shape"></path>
                        <path d="M33.5233256,31.4262355 C33.4315212,31.4262355 33.3386661,31.4026801 33.2540852,31.3516435 C33.0053332,31.2033757 32.9244298,30.8815835 33.0736284,30.6342523 L36.8477228,24.3555746 C36.942154,24.1982772 37.1124978,24.1020929 37.2959753,24.1011768 C37.297026,24.1011768 37.2980767,24.1011768 37.2980767,24.1011768 C37.4815543,24.1011768 37.6518981,24.1963143 37.7472486,24.3525647 L41.3327434,30.2417941 C41.4845688,30.4891252 41.4045846,30.8110483 41.1563581,30.9611482 C40.9091822,31.1104629 40.5860937,31.0327303 40.436501,30.78553 L37.3012288,25.6382941 L33.9742049,31.1718377 C33.8760963,31.3352856 33.701681,31.4262355 33.5233256,31.4262355 Z" id="Shape"></path>
                        <path d="M30.3070186,31.4262355 C30.2069399,31.4262355 30.1064673,31.3975765 30.0172896,31.3393424 C29.7752359,31.1787735 29.7095674,30.8539714 29.870061,30.6138377 L32.6596548,26.4281834 C32.7571067,26.2820094 32.9211464,26.1942003 33.0971377,26.1942003 C33.2729977,26.1942003 33.4371687,26.2820094 33.5344892,26.4281834 L35.0816368,28.7499554 C35.2426557,28.9900891 35.1769873,29.315022 34.9349336,29.4754601 C34.6918292,29.6327575 34.3663766,29.5694198 34.2068023,29.3282392 L33.0971377,27.6635305 L30.7448955,31.1921215 C30.6438975,31.3444461 30.4772311,31.4262355 30.3070186,31.4262355 Z" id="Shape"></path>
                        <path d="M35.6446777,31.4262355 L25.74556,31.4262355 C25.4553056,31.4262355 25.2204754,31.1921215 25.2204754,30.903045 L25.2204754,20.4387129 C25.2204754,20.1495056 25.4553056,19.9155225 25.74556,19.9155225 L42.5489222,19.9155225 C42.8391766,19.9155225 43.0740068,20.1495056 43.0740068,20.4387129 L43.0740068,29.1749986 C43.0740068,29.4642059 42.8391766,29.698189 42.5489222,29.698189 C42.2586679,29.698189 42.0238377,29.4642059 42.0238377,29.1749986 L42.0238377,20.9620342 L26.2706445,20.9620342 L26.2706445,30.3798546 L35.6446777,30.3798546 C35.934932,30.3798546 36.1697622,30.6138377 36.1697622,30.9031759 C36.1697622,31.1921215 35.934932,31.4262355 35.6446777,31.4262355 Z" id="Shape"></path>
                        <path d="M28.8382791,25.1476886 C27.9696174,25.1476886 27.2630254,24.4436454 27.2630254,23.5779864 C27.2630254,22.7123274 27.9696174,22.0084151 28.8382791,22.0084151 C29.7069407,22.0084151 30.4136641,22.7124583 30.4136641,23.5779864 C30.4136641,24.4435145 29.7069407,25.1476886 28.8382791,25.1476886 Z M28.8382791,23.054796 C28.5485501,23.054796 28.3131945,23.289826 28.3131945,23.5779864 C28.3131945,23.8661468 28.5485501,24.1011768 28.8382791,24.1011768 C29.1280081,24.1011768 29.3633636,23.8661468 29.3633636,23.5779864 C29.3633636,23.289826 29.1280081,23.054796 28.8382791,23.054796 Z" id="Shape"></path>
                        <path d="M26.7958604,34.5655089 L25.74556,34.5655089 C25.4553056,34.5655089 25.2204754,34.3313949 25.2204754,34.0423185 C25.2204754,33.7529803 25.4553056,33.519128 25.74556,33.519128 L26.7958604,33.519128 C27.0859834,33.519128 27.320945,33.7529803 27.320945,34.0423185 C27.320945,34.3313949 27.0859834,34.5655089 26.7958604,34.5655089 Z" id="Shape"></path>
                        <path d="M26.7958604,37.7046515 L25.74556,37.7046515 C25.4553056,37.7046515 25.2204754,37.4707992 25.2204754,37.1814611 C25.2204754,36.8923846 25.4553056,36.6582706 25.74556,36.6582706 L26.7958604,36.6582706 C27.0859834,36.6582706 27.320945,36.8923846 27.320945,37.1814611 C27.320945,37.4707992 27.0859834,37.7046515 26.7958604,37.7046515 Z" id="Shape"></path>
                        <path d="M27.8461609,40.8440558 L25.7456913,40.8440558 C25.455437,40.8440558 25.2206068,40.6099418 25.2206068,40.3208654 C25.2206068,40.0315272 25.455437,39.797675 25.7456913,39.797675 L27.8461609,39.797675 C28.1362839,39.797675 28.3712454,40.0315272 28.3712454,40.3208654 C28.3712454,40.6099418 28.1362839,40.8440558 27.8461609,40.8440558 Z" id="Shape"></path>
                        <path d="M46.7498613,28.875584 C46.4596069,28.875584 46.2247767,28.6416008 46.2247767,28.3523935 L46.2247767,20.4387129 C46.2247767,20.1495056 46.4596069,19.9155225 46.7498613,19.9155225 L58.794497,19.9155225 C59.0847514,19.9155225 59.3195816,20.1495056 59.3195816,20.4387129 C59.3195816,20.7279203 59.0847514,20.9620342 58.794497,20.9620342 L47.2749458,20.9620342 L47.2749458,28.3523935 C47.2749458,28.6416008 47.0401156,28.875584 46.7498613,28.875584 Z" id="Shape"></path>
                        <path d="M49.8431057,25.1476886 C48.9744441,25.1476886 48.2678521,24.4436454 48.2678521,23.5779864 C48.2678521,22.7123274 48.9744441,22.0084151 49.8431057,22.0084151 C50.7117674,22.0084151 51.4183594,22.7124583 51.4183594,23.5779864 C51.4183594,24.4435145 50.7117674,25.1476886 49.8431057,25.1476886 Z M49.8431057,23.054796 C49.5539021,23.054796 49.3180212,23.289826 49.3180212,23.5779864 C49.3180212,23.8661468 49.5539021,24.1011768 49.8431057,24.1011768 C50.1323094,24.1011768 50.3681903,23.8661468 50.3681903,23.5779864 C50.3681903,23.289826 50.1323094,23.054796 49.8431057,23.054796 Z" id="Shape"></path>
                    </g>
                </g>
                <text id="03" font-family="GothamPro-Medium, Gotham Pro" font-size="18" font-weight="400" line-spacing="27" fill="#96A2B4">
                    <tspan x="3" y="53">03</tspan>
                </text>
            </g>
        </g>
    </g>
	<g class="hover" transform="translate(-353.000000, -63.000000)">
            <g id="Group-18" transform="translate(64.000000, 50.000000)">
                <g id="Group-2" transform="translate(289.000000, 13.000000)">
                    <rect id="Rectangle-path" fill="#CACBFF" fill-rule="nonzero" x="1" y="3" width="66" height="42"></rect>
                    <rect id="Rectangle-path" fill="#ADB0FF" fill-rule="nonzero" x="26" y="20" width="17" height="11"></rect>
                    <rect id="Rectangle-path" fill="#C6CCD2" fill-rule="nonzero" x="42" y="20" width="1" height="11"></rect>
                    <rect id="Rectangle-path" fill="#ADB0FF" fill-rule="nonzero" x="47" y="20" width="15" height="11"></rect>
                    <path d="M51,24 C51,24.5527764 50.5517759,25 50,25 C49.4472236,25 49,24.5527764 49,24 C49,23.4472236 49.4472236,23 50,23 C50.5517759,23 51,23.4472236 51,24 Z" id="Shape" fill="#FFFFFF" fill-rule="nonzero"></path>
                    <rect id="Rectangle-path" fill="#EFF3F7" fill-rule="nonzero" x="47" y="20" width="1" height="9"></rect>
                    <rect id="Rectangle-path" fill="#ADB0FF" fill-rule="nonzero" x="5" y="20" width="17" height="11"></rect>
                    <polygon id="Shape" fill="#D8DFE5" fill-rule="nonzero" points="21 31 13 31 16.9742087 25"></polygon>
                    <polygon id="Shape" fill="#9597F8" fill-rule="nonzero" points="14 28.7733312 12.708168 31 9 31 12.21633 26"></polygon>
                    <path d="M9,24 C9,24.5527764 8.55227614,25 8,25 C7.44772386,25 7,24.5527764 7,24 C7,23.4472236 7.44772386,23 8,23 C8.55227614,23 9,23.4472236 9,24 Z" id="Shape" fill="#FFFFFF" fill-rule="nonzero"></path>
                    <polygon id="Shape" fill="#D8DFE5" fill-rule="nonzero" points="41 31 33 31 36.9740704 25"></polygon>
                    <rect id="Rectangle-path" fill="#9597F8" fill-rule="nonzero" x="20" y="20" width="1" height="11"></rect>
                    <polygon id="Shape" fill="#9597F8" fill-rule="nonzero" points="35 28.7733312 33.708168 31 30 31 33.21633 26"></polygon>
                    <path d="M30,24 C30,24.5527764 29.5522761,25 29,25 C28.4477239,25 28,24.5527764 28,24 C28,23.4472236 28.4477239,23 29,23 C29.5522761,23 30,23.4472236 30,24 Z" id="Shape" fill="#FFFFFF" fill-rule="nonzero"></path>
                    <rect id="Rectangle-path" fill="#ADB0FF" fill-rule="nonzero" x="5" y="7" width="57" height="9"></rect>
                    <polygon id="Shape" fill="#ADB0FF" fill-rule="nonzero" points="48 48.4701886 38.5905454 50 38 46.697726 47.4385108 45"></polygon>
                    <polygon id="Shape" fill="#D1D5DA" fill-rule="nonzero" points="47.4646502 45 46.4817418 45.1849695 46.9885025 48.4701886 39 49.8331947 39.0285891 50 48 48.4701886"></polygon>
                    <polygon id="Shape" fill="#EFF3F7" fill-rule="nonzero" points="39.0083793 46.697726 47 45.1849695 46.9713729 45 38 46.697726 38.5613177 50 39.5411961 49.8331947"></polygon>
                    <polygon id="Shape" fill="#ADB0FF" fill-rule="nonzero" points="33.8393634 45.4106106 30.9861557 44.8818245 29 34.8752904 34.2271462 32 37 46"></polygon>
                    <polygon id="Shape" fill="#EFF3F7" fill-rule="nonzero" points="34.9805895 45.4106106 32.1273817 44.8818245 30.1413687 34.8752904 34.3397559 32.5665203 34.2271462 32 29 34.8752904 30.9861557 44.8818245 33.8393634 45.4106106 37 46 36.9567544 45.7789313"></polygon>
                    <rect id="Rectangle-path" fill="#9597F8" fill-rule="nonzero" x="61" y="7" width="1" height="9"></rect>
                    <path d="M63.1456143,30.3388315 L61.3421458,20 L59.3110687,20.3636696 C60.3939489,26.5106752 44.1511322,29.4022131 44.1511322,29.4022131 L35.0206294,31.0353447 L34,31.2121069 L36.50408,45.5444109 L46.6561143,43.7447925 C46.6561143,43.7447925 63.2483346,42.9016928 63.9700829,47 L66,46.6362003 L63.1456143,30.3388315 Z" id="Shape" fill="#CACBFF" fill-rule="nonzero"></path>
                    <polygon id="Shape" fill="#D8DFE5" fill-rule="nonzero" points="67 46.636202 64.8756816 47 60 20.3636679 62.1255323 20"></polygon>
                    <polygon id="Shape" fill="#C6CCD2" fill-rule="nonzero" points="62.0600296 20 61 20.1787123 65.9070281 46.636202 64.8140563 46.8211576 64.8471352 47 67 46.636202"></polygon>
                    <polygon id="Shape" fill="#ADB0FF" fill-rule="nonzero" points="50 60.0542553 44.4432399 61 40 48.9027014 45.4211141 48"></polygon>
                    <polygon id="Shape" fill="#C6CCD2" fill-rule="nonzero" points="45.9291751 48 45 48.1739162 49.0118865 60.0542553 45.0009885 60.821927 45.0598033 61 50 60.0542553"></polygon>
                    <polygon id="Shape" fill="#D7E9FF" fill-rule="nonzero" points="41.0125348 48.9027014 44.9989871 48.1739162 44.9387187 48 40 48.9027014 44.0478602 61 45 60.821927"></polygon>
                    <path d="M67,3 L67,2.00006253 C67,1.45032202 66.5283562,1 65.9524267,1 L2.0475733,1 C1.47164381,1 1,1.45019696 1,2.00006253 L1,3 L67,3 Z" id="Shape" fill="#CACBFF" fill-rule="nonzero"></path>
                    <rect id="Rectangle-path" fill="#D8DFE5" fill-rule="nonzero" x="5" y="20" width="1" height="11"></rect>
                    <rect id="Rectangle-path" fill="#D8DFE5" fill-rule="nonzero" x="5" y="7" width="1" height="9"></rect>
                    <rect id="Rectangle-path" fill="#EFF3F7" fill-rule="nonzero" x="26" y="20" width="1" height="11"></rect>
                    <path d="M64.0722666,45.0265694 C63.82207,45.0265694 63.6005048,44.8479414 63.5553249,44.5943288 L59.9073138,23.9847087 C59.8570118,23.6995582 60.0478442,23.4288025 60.3329764,23.3788129 C60.6160072,23.3195319 60.8908951,23.5187054 60.9410658,23.8028091 L64.5892082,44.4124292 C64.6404296,44.6977106 64.4497286,44.9683354 64.1635457,45.0184559 C64.1328128,45.0246065 64.1019487,45.0265694 64.0722666,45.0265694 Z" id="Shape" fill="#5559F4" fill-rule="nonzero"></path>
                    <path d="M64.617971,48.1189939 C64.3676431,48.1189939 64.1460779,47.9401041 64.1019487,47.6867533 C63.6291362,45.0153152 53.3629321,44.5248405 47.0021593,44.8417908 C46.7108543,44.8714967 46.4668305,44.634242 46.4523834,44.3459508 C46.4380677,44.0568743 46.6606836,43.8115061 46.9508066,43.797242 C48.7262175,43.7065539 64.3491246,43.0565572 65.135832,47.5048537 C65.186134,47.7898734 64.9953016,48.0607598 64.7101694,48.1108804 C64.6794366,48.1169001 64.6485725,48.1189939 64.617971,48.1189939 Z" id="Shape" fill="#5559F4" fill-rule="nonzero"></path>
                    <path d="M44.4219164,30.4155802 C44.1715885,30.4155802 43.9500233,30.2366904 43.9058941,29.9833396 C43.8557234,29.698189 44.0464245,29.4274334 44.3315567,29.3773129 C48.7908352,28.5925272 60.1831211,25.5401468 59.36069,20.892546 C59.3093373,20.6073954 59.5001697,20.3365089 59.7863526,20.2865192 C60.0704341,20.2261914 60.345322,20.4264118 60.394442,20.7105155 C60.8991694,23.5586187 58.3248366,26.0632064 52.7456491,28.1550521 C48.7457867,29.6551351 44.5552233,30.4001384 44.5141148,30.4073358 C44.4832507,30.4134864 44.4526492,30.4155802 44.4219164,30.4155802 Z" id="Shape" fill="#5559F4" fill-rule="nonzero"></path>
                    <path d="M59.8775003,21.3247866 C59.6273037,21.3247866 59.4057385,21.1460277 59.3605587,20.892546 C59.309206,20.6073954 59.5000384,20.3365089 59.7862213,20.2865192 L61.8537253,19.9237669 C62.1378068,19.8664489 62.411644,20.0637903 62.461946,20.347894 C62.5132987,20.6330446 62.3224663,20.9038002 62.0364148,20.9539207 L59.9687794,21.3166731 C59.9380466,21.3226928 59.9073138,21.3247866 59.8775003,21.3247866 Z" id="Shape" fill="#5559F4" fill-rule="nonzero"></path>
                    <path d="M66.6875764,47.7550638 C66.4373798,47.7550638 66.2158146,47.5764357 66.1706347,47.3228232 L61.4283253,20.5296628 C61.3769727,20.2445122 61.567805,19.9737566 61.8538566,19.923636 C62.1379381,19.866318 62.4117753,20.0636595 62.4620773,20.3477631 L67.2043867,47.1407927 C67.2557394,47.4260741 67.064907,47.6966989 66.7788555,47.7468194 C66.7481227,47.75297 66.7172585,47.7550638 66.6875764,47.7550638 Z" id="Shape" fill="#5559F4" fill-rule="nonzero"></path>
                    <path d="M64.617971,48.1189939 C64.3676431,48.1189939 64.1460779,47.9401041 64.1019487,47.6867533 C64.051778,47.4025188 64.2424791,47.1308471 64.5276113,47.0807265 L66.596166,46.7167964 C66.8823489,46.6594784 67.1540847,46.8568199 67.2043867,47.1407927 C67.2557394,47.4250272 67.064907,47.6966989 66.7788555,47.7468194 L64.7101694,48.1107495 C64.6794366,48.1169001 64.6485725,48.1189939 64.617971,48.1189939 Z" id="Shape" fill="#5559F4" fill-rule="nonzero"></path>
                    <path d="M36.6333812,46.6596093 C36.3831845,46.6596093 36.1616194,46.4809812 36.1174902,46.2273687 L33.5637773,31.800242 C33.539086,31.6632284 33.5704755,31.523205 33.6504596,31.4089615 C33.7304438,31.2955033 33.8524556,31.2177706 33.9894399,31.1942153 L44.3315567,29.3773129 C44.6135368,29.3211726 44.8894754,29.5173363 44.9397774,29.80144 C44.9900794,30.0865905 44.799247,30.3573462 44.5141148,30.4073358 L34.6888084,32.1331576 L37.0600944,45.5302613 L46.8854009,43.8043086 C47.1715838,43.7463363 47.4433196,43.9443321 47.4934903,44.2285666 C47.5437923,44.5135863 47.3530912,44.7844728 47.067959,44.8345933 L36.7257109,46.6513649 C36.6949781,46.6575155 36.664114,46.6596093 36.6333812,46.6596093 Z" id="Shape" fill="#5559F4" fill-rule="nonzero"></path>
                    <path d="M36.6344319,46.6596093 C36.5987082,46.6596093 36.562722,46.6555525 36.526867,46.6483551 L30.991152,45.4955826 C30.7808818,45.4518743 30.6184181,45.2852856 30.5813812,45.0745962 L28.7568503,34.769917 C28.7194193,34.5593583 28.8147698,34.3467059 28.9968026,34.2344254 L33.803861,31.2647505 C33.9525343,31.1738007 34.1375878,31.1604526 34.2950607,31.2320347 C34.4539782,31.3025699 34.5673219,31.447697 34.5975293,31.6182115 L37.1513735,46.0453382 C37.1810556,46.2161144 37.1257628,46.3909475 37.0005989,46.5125192 C36.9010456,46.6073949 36.7687894,46.6596093 36.6344319,46.6596093 Z M31.5536675,44.5443391 L35.983264,45.4660075 L33.6982662,32.5617341 L29.8527246,34.9363748 L31.5536675,44.5443391 Z" id="Shape" fill="#5559F4" fill-rule="nonzero"></path>
                    <path d="M46.6105129,42.78253 C46.360185,42.78253 46.1386198,42.603902 46.094622,42.3502894 L44.2710104,32.0445633 C44.2207084,31.7592819 44.4115408,31.4886571 44.6965417,31.4385366 C44.9797038,31.3822655 45.2544604,31.5782983 45.3047624,31.8625328 L47.128374,42.1682589 C47.178676,42.4535403 46.9878436,42.7241651 46.7027114,42.7742856 C46.6719786,42.7804362 46.6412457,42.78253 46.6105129,42.78253 Z" id="Shape" fill="#5559F4" fill-rule="nonzero"></path>
                    <path d="M31.7069376,36.900629 C31.456741,36.900629 31.2351758,36.7217392 31.1905213,36.4683884 C31.1396939,36.1831069 31.330395,35.9124822 31.6160525,35.8623616 L32.6508552,35.6803311 C32.9370381,35.6220971 33.208774,35.8203546 33.2589446,36.1043274 C33.309772,36.3896088 33.1190709,36.6602336 32.8334134,36.7103541 L31.7986107,36.8923846 C31.7680092,36.8985352 31.7371451,36.900629 31.7069376,36.900629 Z" id="Shape" fill="#5559F4" fill-rule="nonzero"></path>
                    <path d="M32.8012359,43.0831224 C32.5510392,43.0831224 32.329474,42.9042326 32.2848195,42.6508818 C32.2339922,42.3666473 32.4246932,42.0949756 32.7103508,42.0448551 L33.7442341,41.8628246 C34.0302857,41.8035436 34.3022842,42.002848 34.3524549,42.2868208 C34.4031509,42.5710553 34.2124498,42.842727 33.9267923,42.8928476 L32.8930403,43.074878 C32.8623075,43.0810286 32.8314433,43.0831224 32.8012359,43.0831224 Z" id="Shape" fill="#5559F4" fill-rule="nonzero"></path>
                    <path d="M32.2535614,39.9906979 C32.0033648,39.9906979 31.7817996,39.8120699 31.7366197,39.5574104 C31.6868431,39.2734376 31.8775441,39.0025511 32.1632016,38.9524306 L33.1980043,38.771447 C33.4836619,38.7154376 33.7555291,38.9114705 33.8060938,39.1967519 C33.8558704,39.4807247 33.6651694,39.7516112 33.3795118,39.8017317 L32.3447091,39.9824536 C32.3141076,39.9886041 32.2839002,39.9906979 32.2535614,39.9906979 Z" id="Shape" fill="#5559F4" fill-rule="nonzero"></path>
                    <path d="M35.0231919,31.5353752 C34.7729953,31.5353752 34.5509048,31.3567472 34.5062503,31.1031346 C34.4554229,30.8191618 34.646124,30.5472284 34.9317815,30.4972387 L37.0004675,30.1334395 C37.2824477,30.0752054 37.5583863,30.2734629 37.6086883,30.5575666 C37.6589903,30.8416703 37.4681579,31.1134728 37.1830257,31.1634625 L35.114471,31.5271309 C35.0837382,31.5334123 35.0530054,31.5353752 35.0231919,31.5353752 Z" id="Shape" fill="#5559F4" fill-rule="nonzero"></path>
                    <path d="M49.6954832,60.1190038 C49.4800908,60.1190038 49.2769128,59.9860469 49.2010001,59.7716932 L45.325251,48.9650235 C45.227799,48.6933518 45.3693801,48.3938063 45.6421667,48.2967059 C45.9170546,48.2009142 46.2165025,48.3406759 46.3139544,48.6136562 L50.1897036,59.420326 C50.2880748,59.6919977 50.1445237,59.9912814 49.8717372,60.0883818 C49.814343,60.1087964 49.7537967,60.1190038 49.6954832,60.1190038 Z" id="Shape" fill="#5559F4" fill-rule="nonzero"></path>
                    <path d="M44.5243591,61.0277167 C44.3089668,61.0277167 44.1057887,60.8947598 44.0300074,60.6801445 L40.1542582,49.8737364 C40.0568063,49.601803 40.1982561,49.3025192 40.471174,49.2054189 C40.7469813,49.1113283 41.0455098,49.2493888 41.1428304,49.5221074 L45.0185795,60.3287772 C45.1170821,60.6004489 44.973531,60.8999944 44.7006131,60.9970947 C44.6433503,61.0175094 44.582804,61.0277167 44.5243591,61.0277167 Z" id="Shape" fill="#5559F4" fill-rule="nonzero"></path>
                    <path d="M43.4906071,61.2093546 C43.2404105,61.2093546 43.018714,61.0307265 42.9736655,60.777114 C42.9223128,60.4920943 43.1131451,60.2212078 43.3991967,60.1710872 L50.6388754,58.8987059 C50.9219063,58.8426965 51.1967942,59.0387294 51.2470962,59.3229639 C51.2973982,59.6079836 51.1066971,59.8788701 50.8215649,59.9289906 L43.5817549,61.2011102 C43.551022,61.2073917 43.5202892,61.2093546 43.4906071,61.2093546 Z" id="Shape" fill="#5559F4" fill-rule="nonzero"></path>
                    <path d="M38.214939,49.5700033 C37.964611,49.5700033 37.7430458,49.3911135 37.6979973,49.1377627 L37.4928492,47.9779235 C37.4414965,47.6929038 37.6323289,47.4220174 37.9185118,47.3718968 C38.2046947,47.3126159 38.4764306,47.5119203 38.5266012,47.7958931 L38.7317493,48.9557322 C38.783102,49.2410136 38.5922696,49.5116384 38.3060867,49.5617589 C38.2754852,49.5679095 38.2446211,49.5700033 38.214939,49.5700033 Z" id="Shape" fill="#5559F4" fill-rule="nonzero"></path>
                    <path d="M38.214939,49.5700033 C37.9635603,49.5700033 37.7410758,49.3900666 37.6979973,49.1357997 C37.648746,48.8515652 37.839447,48.5809404 38.1256299,48.5308199 L47.4401675,46.9274859 C47.724249,46.8773654 47.9970356,47.0696032 48.0461556,47.3546229 C48.0954069,47.6388574 47.9047058,47.9094822 47.6185229,47.9596027 L38.3039853,49.5629367 C38.2744345,49.5679095 38.2437017,49.5700033 38.214939,49.5700033 Z" id="Shape" fill="#5559F4" fill-rule="nonzero"></path>
                    <path d="M47.5293452,47.9666693 C47.2791486,47.9666693 47.0575834,47.7877795 47.0124036,47.5344287 L46.8298454,46.5033588 C46.7784927,46.2180774 46.9693251,45.9474526 47.255508,45.8973321 C47.5373568,45.8400141 47.8134267,46.0370938 47.8635974,46.3213283 L48.0461556,47.3523982 C48.0975082,47.6376796 47.9066759,47.9083044 47.6206243,47.958425 C47.5898915,47.9645755 47.5590273,47.9666693 47.5293452,47.9666693 Z" id="Shape" fill="#5559F4" fill-rule="nonzero"></path>
                    <path d="M2.67217865,2.12730957 C2.38244965,2.12730957 2.14197196,1.89332645 2.14197196,1.60411914 C2.14197196,1.31491182 2.37168003,1.08079784 2.66193438,1.08079784 L2.67217865,1.08079784 C2.96243299,1.08079784 3.19726319,1.31491182 3.19726319,1.60411914 C3.19726319,1.89332645 2.96243299,2.12730957 2.67217865,2.12730957 Z" id="Shape" fill="#5559F4" fill-rule="nonzero"></path>
                    <path d="M4.77264818,2.12730957 C4.48291918,2.12730957 4.24244149,1.89332645 4.24244149,1.60411914 C4.24244149,1.31491182 4.47214957,1.08079784 4.76240391,1.08079784 L4.77264818,1.08079784 C5.06290252,1.08079784 5.29773273,1.31491182 5.29773273,1.60411914 C5.29773273,1.89332645 5.06290252,2.12730957 4.77264818,2.12730957 Z" id="Shape" fill="#5559F4" fill-rule="nonzero"></path>
                    <path d="M6.87311771,2.12730957 C6.58338872,2.12730957 6.34291102,1.89332645 6.34291102,1.60411914 C6.34291102,1.31491182 6.5726191,1.08079784 6.86287344,1.08079784 L6.87311771,1.08079784 C7.16337205,1.08079784 7.39820226,1.31491182 7.39820226,1.60411914 C7.39820226,1.89332645 7.16337205,2.12730957 6.87311771,2.12730957 Z" id="Shape" fill="#5559F4" fill-rule="nonzero"></path>
                    <path d="M66.7039935,3.17369043 L0.540450955,3.17369043 C0.250196615,3.17369043 0.0153664062,2.93970732 0.0153664062,2.6505 L0.0153664062,1.60411914 C0.0153664062,0.738590994 0.72195842,0.0344169794 1.59062005,0.0344169794 L65.6536931,0.0344169794 C66.5222234,0.0344169794 67.2289467,0.738590994 67.2289467,1.60411914 L67.2289467,2.6505 C67.229078,2.93970732 66.9942478,3.17369043 66.7039935,3.17369043 Z M1.0655355,2.12730957 L66.1787776,2.12730957 L66.1787776,1.60411914 C66.1787776,1.31595872 65.9428967,1.08079784 65.6536931,1.08079784 L1.59062005,1.08079784 C1.30089106,1.08079784 1.0655355,1.31582786 1.0655355,1.60411914 L1.0655355,2.12730957 Z" id="Shape" fill="#5559F4" fill-rule="nonzero"></path>
                    <path d="M66.7039935,36.6582706 C66.4137391,36.6582706 66.1789089,36.4244184 66.1789089,36.1350802 L66.1789089,2.6505 C66.1789089,2.36129268 66.4137391,2.12730957 66.7039935,2.12730957 C66.9942478,2.12730957 67.229078,2.36129268 67.229078,2.6505 L67.229078,36.1350802 C67.229078,36.4244184 66.9942478,36.6582706 66.7039935,36.6582706 Z" id="Shape" fill="#5559F4" fill-rule="nonzero"></path>
                    <path d="M0.540450955,45.0297101 C0.250196615,45.0297101 0.0153664062,44.7958579 0.0153664062,44.5065197 L0.0153664062,2.6505 C0.0153664062,2.36129268 0.250196615,2.12730957 0.540450955,2.12730957 C0.830705295,2.12730957 1.0655355,2.36129268 1.0655355,2.6505 L1.0655355,44.5065197 C1.0655355,44.7958579 0.830705295,45.0297101 0.540450955,45.0297101 Z" id="Shape" fill="#5559F4" fill-rule="nonzero"></path>
                    <path d="M28.8963299,45.0297101 L0.540450955,45.0297101 C0.250196615,45.0297101 0.0153664062,44.7958579 0.0153664062,44.5065197 C0.0153664062,44.2174432 0.250196615,43.9833293 0.540450955,43.9833293 L28.8961986,43.9833293 C29.186453,43.9833293 29.4212832,44.2174432 29.4212832,44.5065197 C29.4214145,44.7958579 29.1865843,45.0297101 28.8963299,45.0297101 Z" id="Shape" fill="#5559F4" fill-rule="nonzero"></path>
                    <path d="M12.518893,31.4262355 C12.4272199,31.4262355 12.3343648,31.4026801 12.2496525,31.3516435 C12.0009006,31.2033757 11.9199971,30.8815835 12.0691957,30.6342523 L15.8434215,24.3555746 C15.9382467,24.1982772 16.1336759,24.0642735 16.2936441,24.1011768 C16.4771216,24.1011768 16.6474655,24.1963143 16.7422906,24.3525647 L20.5657677,30.6312425 C20.716411,30.8785736 20.6374776,31.2003659 20.389251,31.3507275 C20.1415498,31.5000422 19.8184613,31.4212627 19.6683433,31.1748476 L16.2966648,25.6382941 L12.9696409,31.1718377 C12.871795,31.3352856 12.697511,31.4262355 12.518893,31.4262355 Z" id="Shape" fill="#5559F4" fill-rule="nonzero"></path>
                    <path d="M9.30271727,31.4262355 C9.20263863,31.4262355 9.10216597,31.3975765 9.01298828,31.3393424 C8.77093455,31.1787735 8.70526615,30.8539714 8.86575972,30.6138377 L11.6553535,26.4281834 C11.7528054,26.2820094 11.9168451,26.1942003 12.0928364,26.1942003 C12.2686964,26.1942003 12.4328674,26.2820094 12.5301879,26.4281834 L14.0773355,28.7499554 C14.2378291,28.9900891 14.1721607,29.315022 13.9301069,29.4754601 C13.6875279,29.6327575 13.3624693,29.5694198 13.202501,29.3282392 L12.0928364,27.6635305 L9.74059418,31.1921215 C9.63959618,31.3444461 9.47292977,31.4262355 9.30271727,31.4262355 Z" id="Shape" fill="#5559F4" fill-rule="nonzero"></path>
                    <path d="M62.5030544,16.7762491 L4.74139002,16.7762491 C4.45113568,16.7762491 4.21630547,16.5422659 4.21630547,16.2530586 L4.21630547,6.83628518 C4.21630547,6.54707786 4.45113568,6.31309475 4.74139002,6.31309475 L62.5031858,6.31309475 C62.7934401,6.31309475 63.0282703,6.54707786 63.0282703,6.83628518 L63.0282703,16.2530586 C63.028139,16.5422659 62.7933088,16.7762491 62.5030544,16.7762491 Z M5.26647457,15.7298682 L61.9781012,15.7298682 L61.9781012,7.35947561 L5.26647457,7.35947561 L5.26647457,15.7298682 Z" id="Shape" fill="#5559F4" fill-rule="nonzero"></path>
                    <path d="M21.5447523,31.4262355 L4.74139002,31.4262355 C4.45113568,31.4262355 4.21630547,31.1921215 4.21630547,30.903045 L4.21630547,20.4387129 C4.21630547,20.1495056 4.45113568,19.9155225 4.74139002,19.9155225 L21.5447523,19.9155225 C21.8350066,19.9155225 22.0698368,20.1495056 22.0698368,20.4387129 L22.0698368,30.903045 C22.0698368,31.1921215 21.8350066,31.4262355 21.5447523,31.4262355 Z M5.26647457,30.3798546 L21.0196677,30.3798546 L21.0196677,20.9620342 L5.26647457,20.9620342 L5.26647457,30.3798546 Z" id="Shape" fill="#5559F4" fill-rule="nonzero"></path>
                    <path d="M7.83397778,25.1476886 C6.96531615,25.1476886 6.25872413,24.4436454 6.25872413,23.5779864 C6.25872413,22.7123274 6.96531615,22.0084151 7.83397778,22.0084151 C8.70263941,22.0084151 9.40936276,22.7124583 9.40936276,23.5779864 C9.40936276,24.4435145 8.70277075,25.1476886 7.83397778,25.1476886 Z M7.83397778,23.054796 C7.54424878,23.054796 7.30889323,23.289826 7.30889323,23.5779864 C7.30889323,23.8661468 7.54424878,24.1011768 7.83397778,24.1011768 C8.12370677,24.1011768 8.35906233,23.8661468 8.35906233,23.5779864 C8.35906233,23.289826 8.12370677,23.054796 7.83397778,23.054796 Z" id="Shape" fill="#5559F4" fill-rule="nonzero"></path>
                    <path d="M56.7269931,11.544083 L10.5175827,11.544083 C10.2273284,11.544083 9.99236684,11.3100999 9.99236684,11.0208926 C9.99236684,10.7316853 10.2273284,10.4977022 10.5175827,10.4977022 L56.7269931,10.4977022 C57.0171161,10.4977022 57.2520776,10.7316853 57.2520776,11.0208926 C57.2520776,11.3100999 57.0171161,11.544083 56.7269931,11.544083 Z" id="Shape" fill="#5559F4" fill-rule="nonzero"></path>
                    <path d="M50.4255845,13.6369756 L16.81886,13.6369756 C16.5286056,13.6369756 16.2937754,13.4029925 16.2937754,13.1137852 C16.2937754,12.8245779 16.5286056,12.5904639 16.81886,12.5904639 L50.4257158,12.5904639 C50.7159701,12.5904639 50.9508003,12.8245779 50.9508003,13.1137852 C50.9508003,13.4029925 50.7158388,13.6369756 50.4255845,13.6369756 Z" id="Shape" fill="#5559F4" fill-rule="nonzero"></path>
                    <path d="M21.5447523,34.5655089 L4.74139002,34.5655089 C4.45113568,34.5655089 4.21630547,34.3313949 4.21630547,34.0423185 C4.21630547,33.7529803 4.45113568,33.519128 4.74139002,33.519128 L21.5447523,33.519128 C21.8350066,33.519128 22.0698368,33.7529803 22.0698368,34.0423185 C22.0698368,34.3313949 21.8350066,34.5655089 21.5447523,34.5655089 Z" id="Shape" fill="#5559F4" fill-rule="nonzero"></path>
                    <path d="M21.5447523,37.7046515 L4.74139002,37.7046515 C4.45113568,37.7046515 4.21630547,37.4707992 4.21630547,37.1814611 C4.21630547,36.8923846 4.45113568,36.6582706 4.74139002,36.6582706 L21.5447523,36.6582706 C21.8350066,36.6582706 22.0698368,36.8923846 22.0698368,37.1814611 C22.0698368,37.4707992 21.8350066,37.7046515 21.5447523,37.7046515 Z" id="Shape" fill="#5559F4" fill-rule="nonzero"></path>
                    <path d="M13.1430055,40.8440558 L4.74139002,40.8440558 C4.45113568,40.8440558 4.21630547,40.6099418 4.21630547,40.3208654 C4.21630547,40.0315272 4.45113568,39.797675 4.74139002,39.797675 L13.1431368,39.797675 C13.4333911,39.797675 13.6682214,40.0315272 13.6682214,40.3208654 C13.66809,40.6099418 13.4332598,40.8440558 13.1430055,40.8440558 Z" id="Shape" fill="#5559F4" fill-rule="nonzero"></path>
                    <path d="M33.5233256,31.4262355 C33.4315212,31.4262355 33.3386661,31.4026801 33.2540852,31.3516435 C33.0053332,31.2033757 32.9244298,30.8815835 33.0736284,30.6342523 L36.8477228,24.3555746 C36.942154,24.1982772 37.1124978,24.1020929 37.2959753,24.1011768 C37.297026,24.1011768 37.2980767,24.1011768 37.2980767,24.1011768 C37.4815543,24.1011768 37.6518981,24.1963143 37.7472486,24.3525647 L41.3327434,30.2417941 C41.4845688,30.4891252 41.4045846,30.8110483 41.1563581,30.9611482 C40.9091822,31.1104629 40.5860937,31.0327303 40.436501,30.78553 L37.3012288,25.6382941 L33.9742049,31.1718377 C33.8760963,31.3352856 33.701681,31.4262355 33.5233256,31.4262355 Z" id="Shape" fill="#5559F4" fill-rule="nonzero"></path>
                    <path d="M30.3070186,31.4262355 C30.2069399,31.4262355 30.1064673,31.3975765 30.0172896,31.3393424 C29.7752359,31.1787735 29.7095674,30.8539714 29.870061,30.6138377 L32.6596548,26.4281834 C32.7571067,26.2820094 32.9211464,26.1942003 33.0971377,26.1942003 C33.2729977,26.1942003 33.4371687,26.2820094 33.5344892,26.4281834 L35.0816368,28.7499554 C35.2426557,28.9900891 35.1769873,29.315022 34.9349336,29.4754601 C34.6918292,29.6327575 34.3663766,29.5694198 34.2068023,29.3282392 L33.0971377,27.6635305 L30.7448955,31.1921215 C30.6438975,31.3444461 30.4772311,31.4262355 30.3070186,31.4262355 Z" id="Shape" fill="#5559F4" fill-rule="nonzero"></path>
                    <path d="M35.6446777,31.4262355 L25.74556,31.4262355 C25.4553056,31.4262355 25.2204754,31.1921215 25.2204754,30.903045 L25.2204754,20.4387129 C25.2204754,20.1495056 25.4553056,19.9155225 25.74556,19.9155225 L42.5489222,19.9155225 C42.8391766,19.9155225 43.0740068,20.1495056 43.0740068,20.4387129 L43.0740068,29.1749986 C43.0740068,29.4642059 42.8391766,29.698189 42.5489222,29.698189 C42.2586679,29.698189 42.0238377,29.4642059 42.0238377,29.1749986 L42.0238377,20.9620342 L26.2706445,20.9620342 L26.2706445,30.3798546 L35.6446777,30.3798546 C35.934932,30.3798546 36.1697622,30.6138377 36.1697622,30.9031759 C36.1697622,31.1921215 35.934932,31.4262355 35.6446777,31.4262355 Z" id="Shape" fill="#5559F4" fill-rule="nonzero"></path>
                    <path d="M28.8382791,25.1476886 C27.9696174,25.1476886 27.2630254,24.4436454 27.2630254,23.5779864 C27.2630254,22.7123274 27.9696174,22.0084151 28.8382791,22.0084151 C29.7069407,22.0084151 30.4136641,22.7124583 30.4136641,23.5779864 C30.4136641,24.4435145 29.7069407,25.1476886 28.8382791,25.1476886 Z M28.8382791,23.054796 C28.5485501,23.054796 28.3131945,23.289826 28.3131945,23.5779864 C28.3131945,23.8661468 28.5485501,24.1011768 28.8382791,24.1011768 C29.1280081,24.1011768 29.3633636,23.8661468 29.3633636,23.5779864 C29.3633636,23.289826 29.1280081,23.054796 28.8382791,23.054796 Z" id="Shape" fill="#5559F4" fill-rule="nonzero"></path>
                    <path d="M26.7958604,34.5655089 L25.74556,34.5655089 C25.4553056,34.5655089 25.2204754,34.3313949 25.2204754,34.0423185 C25.2204754,33.7529803 25.4553056,33.519128 25.74556,33.519128 L26.7958604,33.519128 C27.0859834,33.519128 27.320945,33.7529803 27.320945,34.0423185 C27.320945,34.3313949 27.0859834,34.5655089 26.7958604,34.5655089 Z" id="Shape" fill="#5559F4" fill-rule="nonzero"></path>
                    <path d="M26.7958604,37.7046515 L25.74556,37.7046515 C25.4553056,37.7046515 25.2204754,37.4707992 25.2204754,37.1814611 C25.2204754,36.8923846 25.4553056,36.6582706 25.74556,36.6582706 L26.7958604,36.6582706 C27.0859834,36.6582706 27.320945,36.8923846 27.320945,37.1814611 C27.320945,37.4707992 27.0859834,37.7046515 26.7958604,37.7046515 Z" id="Shape" fill="#5559F4" fill-rule="nonzero"></path>
                    <path d="M27.8461609,40.8440558 L25.7456913,40.8440558 C25.455437,40.8440558 25.2206068,40.6099418 25.2206068,40.3208654 C25.2206068,40.0315272 25.455437,39.797675 25.7456913,39.797675 L27.8461609,39.797675 C28.1362839,39.797675 28.3712454,40.0315272 28.3712454,40.3208654 C28.3712454,40.6099418 28.1362839,40.8440558 27.8461609,40.8440558 Z" id="Shape" fill="#5559F4" fill-rule="nonzero"></path>
                    <path d="M46.7498613,28.875584 C46.4596069,28.875584 46.2247767,28.6416008 46.2247767,28.3523935 L46.2247767,20.4387129 C46.2247767,20.1495056 46.4596069,19.9155225 46.7498613,19.9155225 L58.794497,19.9155225 C59.0847514,19.9155225 59.3195816,20.1495056 59.3195816,20.4387129 C59.3195816,20.7279203 59.0847514,20.9620342 58.794497,20.9620342 L47.2749458,20.9620342 L47.2749458,28.3523935 C47.2749458,28.6416008 47.0401156,28.875584 46.7498613,28.875584 Z" id="Shape" fill="#5559F4" fill-rule="nonzero"></path>
                    <path d="M49.8431057,25.1476886 C48.9744441,25.1476886 48.2678521,24.4436454 48.2678521,23.5779864 C48.2678521,22.7123274 48.9744441,22.0084151 49.8431057,22.0084151 C50.7117674,22.0084151 51.4183594,22.7124583 51.4183594,23.5779864 C51.4183594,24.4435145 50.7117674,25.1476886 49.8431057,25.1476886 Z M49.8431057,23.054796 C49.5539021,23.054796 49.3180212,23.289826 49.3180212,23.5779864 C49.3180212,23.8661468 49.5539021,24.1011768 49.8431057,24.1011768 C50.1323094,24.1011768 50.3681903,23.8661468 50.3681903,23.5779864 C50.3681903,23.289826 50.1323094,23.054796 49.8431057,23.054796 Z" id="Shape" fill="#5559F4" fill-rule="nonzero"></path>
                    <text id="03" font-family="GothamPro-Medium, Gotham Pro" font-size="18" font-weight="400" line-spacing="27" fill="#5559F4">
                        <tspan x="3" y="57">03</tspan>
                    </text>
                </g>
            </g>
        </g>
    </g>
</svg>