<?xml version="1.0" encoding="UTF-8"?>
<svg width="70px" height="59px" viewBox="0 0 70 59" version="1.1" xmlns="http://www.w3.org/2000/svg" xmlns:xlink="http://www.w3.org/1999/xlink">
    <!-- Generator: sketchtool 50.2 (55047) - http://www.bohemiancoding.com/sketch -->
    <title>1EEA258E-3A59-4584-9531-E340BBBFDA53</title>
    <desc>Created with sketchtool.</desc>
    <defs></defs>
	<g class="default" stroke="none" stroke-width="1" fill="none" fill-rule="evenodd">
        <g id="Рабочий-стол-Icons" transform="translate(-211.000000, -180.000000)">
            <g id="Group-18" transform="translate(64.000000, 50.000000)">
                <g id="Group-14" transform="translate(147.000000, 130.000000)">
                    <path d="M49.8887556,28.2214267 L47.7434007,19.4736737 L46.9840258,18.1672292 C47.3735992,17.9464233 47.7506427,17.7126288 48.1204443,17.4720527 L46.795619,15.7953761 C46.2425834,14.5275525 44.9355757,13.3386948 43.650179,13.0132906 L42.6035383,12.7601857 L31.7741115,10.1077562 C30.3060556,9.74476549 28.225189,10.3294816 27.1533737,11.4016719 L1.80455118,36.7483738 C0.731816272,37.8210239 0.731816272,39.5749423 1.80455118,40.6485119 L19.3536299,58.1962021 C20.4263648,59.2679326 22.1813417,59.2679326 23.253042,58.1962021 L48.6014047,32.8484657 C49.6751742,31.7767352 50.2585572,29.6966079 49.8887556,28.2214267 Z M37.7147317,22.2888628 C37.1744559,21.7494344 37.1744559,20.8756361 37.7147317,20.3371271 C38.2533982,19.7976986 39.1277255,19.7972389 39.666277,20.3371271 C40.2049435,20.8756361 40.2049435,21.7500091 39.666277,22.2893226 C39.1277255,22.8278316 38.2532833,22.8278316 37.7147317,22.2888628 Z" id="Shape" fill="#D8DFE5" fill-rule="nonzero"></path>
                    <path d="M3.0894822,38.0945714 L28.2596044,12.7061773 C29.3238638,11.6317872 31.3894903,11.0461226 32.8476535,11.4102777 L43.6006225,14.0664343 L44.6398847,14.3199498 C45.1034151,14.4386485 45.5668314,14.6728222 46,14.980679 C45.3440263,14.0506615 44.3422026,13.2715791 43.3491678,13.0180635 L42.3099055,12.764548 L31.5571648,10.1079309 C30.0994582,9.74435146 28.033261,10.3300161 26.9690016,11.4039456 L1.79887938,36.7917641 C0.733706873,37.8661542 0.733706873,39.6229178 1.79887938,40.6982289 L3.0894822,42 C2.02442384,40.9257251 2.02442384,39.1680405 3.0894822,38.0945714 Z" id="Shape" fill="#EFF3F7" fill-rule="nonzero"></path>
                    <path d="M21.9054496,55.9104143 L47.2930595,30.7404197 C48.3683764,29.6757092 48.9545046,27.6096366 48.5895416,26.1518232 L45.9338313,15.3998219 L45.6803144,14.3605649 C45.5616151,13.8970369 45.3277855,13.4322533 45.0185455,13 C45.9500647,13.6560845 46.7286908,14.65699 46.9820926,15.6512753 L47.2357246,16.6905324 L49.8914349,27.4425336 C50.2563979,28.9006894 49.6702696,30.965963 48.5967948,32.031016 L23.2081488,57.2011247 C22.1338681,58.2662918 20.376174,58.2662918 19.3017782,57.2011247 L18,55.9104143 C19.0742807,56.9755814 20.8319748,56.9746682 21.9054496,55.9104143 Z" id="Shape" fill="#C6CCD2" fill-rule="nonzero"></path>
                    <path d="M40.1210551,18.8786311 C38.9508437,17.707123 37.050657,17.707123 35.8789449,18.8786311 C34.7070184,20.0505681 34.7070184,21.9501286 35.8789449,23.1212081 C37.0507642,24.2927163 38.9508437,24.293145 40.1210551,23.1212081 C41.2929816,21.949807 41.2929816,20.0501393 40.1210551,18.8786311 Z M37.0909611,21.9100386 C36.5871602,21.4069836 36.5871602,20.5921053 37.0909611,20.0899078 C37.5932612,19.5868528 38.408561,19.5864241 38.910754,20.0899078 C39.4130542,20.5921053 39.4130542,21.4075196 38.910754,21.9104674 C38.408561,22.4126648 37.593154,22.4126648 37.0909611,21.9100386 Z" id="Shape" fill="#D8DFE5" fill-rule="nonzero"></path>
                    <path d="M20.8273457,58.9880156 C20.0013457,58.9880156 19.1756914,58.6730801 18.5470879,58.0449375 L0.954947266,40.4527969 C0.348007812,39.8453965 0.0137128906,39.0355293 0.0132519531,38.1716172 C0.0132519531,37.3087422 0.347546875,36.4987598 0.954486328,35.8923965 L26.3660859,10.479875 C27.5641777,9.28086133 29.7940781,8.65536914 31.4403164,9.06260742 L43.3364219,11.9794199 C44.7527676,12.3273125 46.1799453,13.5825605 46.8045156,15.0312871 C46.9052305,15.2652129 46.7973711,15.5360137 46.5650586,15.6368437 C46.331248,15.7372129 46.0594102,15.6309668 45.9585801,15.3965801 C45.4565039,14.2330586 44.2344434,13.1487031 43.1169004,12.8743301 L31.2207949,9.95751758 C29.9037812,9.63221094 27.9776387,10.1708164 27.0175059,11.1314102 L1.60602148,36.5438164 C1.17320117,36.9757148 0.934666016,37.5544219 0.934666016,38.1716172 C0.934666016,38.7898496 1.17354687,39.3676348 1.60648242,39.801377 L19.1987383,57.3935176 C20.0967598,58.2916543 21.558623,58.2916543 22.4566445,57.3935176 L47.8662852,31.9816875 C48.8274551,31.0206328 49.3654844,29.0962187 49.0414453,27.7783984 L46.8908262,19.0069883 C46.829752,18.7599258 46.9808242,18.5102129 47.2274258,18.4495996 C47.4775996,18.3896777 47.7242012,18.5408652 47.7853906,18.7874668 L49.9360098,27.558416 C50.3409434,29.2041934 49.7182168,31.4336328 48.5178203,32.6331074 L23.1080645,58.0450527 C22.4795762,58.6730801 21.653,58.9880156 20.8273457,58.9880156 Z" id="Shape" fill="#96A2B4" fill-rule="nonzero"></path>
                    <path d="M38.252166,24.4291113 C37.3090879,24.4291113 36.3642813,24.070041 35.6462559,23.3515547 C34.2082461,21.9140059 34.2082461,19.575209 35.6444121,18.1386973 C36.9114141,16.8743457 38.8928691,16.6975762 40.3561152,17.7193594 C40.5306953,17.8398945 40.6980156,17.9789824 40.8581914,18.1354707 C41.0381875,18.313623 41.0417598,18.605166 40.8636074,18.7868906 C40.6853398,18.9682695 40.3956406,18.9727637 40.2120723,18.7932285 C40.0915371,18.6745371 39.9638574,18.568752 39.8305313,18.4761035 C38.7308496,17.7085273 37.2460547,17.8421992 36.295832,18.7905781 C35.2196582,19.8677891 35.2196582,21.621541 36.2976758,22.7000195 C37.3756934,23.7780371 39.1304824,23.7780371 40.2085,22.7000195 C40.5342676,22.3729844 40.7754531,21.9688574 40.9050918,21.5324648 C40.976998,21.2890898 41.2361602,21.1491953 41.4773457,21.2215625 C41.7202598,21.2939297 41.8607305,21.5499805 41.788709,21.7942773 C41.6159727,22.3765566 41.2956211,22.9145859 40.8618789,23.3506328 C40.1420098,24.0695801 39.1969727,24.4291113 38.252166,24.4291113 Z" id="Shape" fill="#96A2B4" fill-rule="nonzero"></path>
                    <path d="M38.2485937,22.5883574 C37.7590781,22.5883574 37.2965273,22.3971836 36.9493262,22.049291 C36.600166,21.7001309 36.4093379,21.2367734 36.4093379,20.7444922 C36.4093379,19.7290469 37.2371816,18.9024707 38.252166,18.9024707 C38.5078711,18.9024707 38.712873,19.1085098 38.712873,19.3631777 C38.712873,19.6178457 38.5078711,19.8238848 38.252166,19.8238848 C37.7446738,19.8238848 37.330752,20.2373457 37.330752,20.7454141 C37.330752,20.9920156 37.426166,21.2231758 37.6007461,21.3974102 C37.7734824,21.5715293 38.0039512,21.6669434 38.2485937,21.6669434 C38.5275762,21.6884922 38.761502,21.5557422 38.9361973,21.3605352 C39.1089336,21.1710898 39.4004766,21.1558789 39.5876172,21.324582 C39.7766016,21.494207 39.7927344,21.7852891 39.6235703,21.9751953 C39.2744102,22.3648027 38.7759062,22.5884727 38.252166,22.5884727 C38.2504375,22.5883574 38.2504375,22.5883574 38.2485937,22.5883574 Z" id="Shape" fill="#96A2B4" fill-rule="nonzero"></path>
                    <path d="M21.4793418,55.574082 C21.361457,55.574082 21.2435723,55.5290254 21.1535742,55.4390273 C20.9735781,55.2590312 20.9735781,54.9674883 21.1535742,54.7876074 L42.6542344,33.2845273 C42.8342305,33.1045312 43.1257734,33.1045312 43.3057695,33.2845273 C43.4857656,33.4645234 43.4857656,33.7560664 43.3057695,33.9360625 L21.8051094,55.4390273 C21.7151113,55.5290254 21.5972266,55.574082 21.4793418,55.574082 Z" id="Shape" fill="#96A2B4" fill-rule="nonzero"></path>
                    <path d="M3.88674023,37.9799824 C3.7689707,37.9799824 3.6509707,37.935041 3.56097266,37.845043 C3.38097656,37.6650469 3.38097656,37.3735039 3.56097266,37.1935078 L25.0630156,15.6928477 C25.2430117,15.5128516 25.5345547,15.5128516 25.7145508,15.6928477 C25.8945469,15.8728438 25.8945469,16.1643867 25.7145508,16.3442676 L4.21250781,37.845043 C4.12239453,37.935041 4.004625,37.9799824 3.88674023,37.9799824 Z" id="Shape" fill="#96A2B4" fill-rule="nonzero"></path>
                    <path d="M38.252166,21.2062363 C38.0397891,21.2062363 37.8490762,21.0586211 37.802291,20.8426719 C37.7482461,20.5938809 37.9066934,20.3486621 38.1551387,20.2950781 C54.392123,16.798752 58.0634902,2.8869668 58.0634902,0.472691406 C58.0634902,0.218023437 58.2704512,0.011984375 58.5241973,0.011984375 C58.7797871,0.011984375 58.9849043,0.218023437 58.9849043,0.472691406 C58.9849043,3.00266211 55.1803262,17.5717441 38.3494238,21.1958652 C38.317043,21.203125 38.2845469,21.2062363 38.252166,21.2062363 Z" id="Shape" fill="#96A2B4" fill-rule="nonzero"></path>
                    <path d="M42.5661953,11.0694141 C42.4743535,11.0694141 42.382627,11.0424492 42.3016172,10.9860996 C42.0946563,10.8403281 42.0424551,10.5528184 42.1899551,10.3445898 C48.1632441,1.80802734 57.0286855,0.011984375 58.526041,0.011984375 C58.7816309,0.011984375 58.986748,0.218023437 58.986748,0.472691406 C58.986748,0.727359375 58.7816309,0.933398437 58.526041,0.933398437 C57.1852891,0.933398437 48.6168066,2.76643164 42.9440488,10.872709 C42.854166,11.0009648 42.7118516,11.0694141 42.5661953,11.0694141 Z" id="Shape" fill="#96A2B4" fill-rule="nonzero"></path>
                    <text id="02" font-family="GothamPro-Medium, Gotham Pro" font-size="18" font-weight="400" line-spacing="27" fill="#96A2B4">
                        <tspan x="47" y="55">02</tspan>
                    </text>
                </g>
            </g>
        </g>
    </g>
    <g class="hover" stroke="none" stroke-width="1" fill="none" fill-rule="evenodd">
        <g id="Рабочий-стол" transform="translate(-693.000000, -217.000000)">
            <g id="Group-14" transform="translate(663.000000, 187.000000)">
                <g id="Group-17" transform="translate(30.000000, 30.000000)">
                    <g id="8-tag,-seo,-promotion,-marketing,-site,-optimization" fill-rule="nonzero">
                        <path d="M49.8887556,28.2214267 L47.7434007,19.4736737 L46.9840258,18.1672292 C47.3735992,17.9464233 47.7506427,17.7126288 48.1204443,17.4720527 L46.795619,15.7953761 C46.2425834,14.5275525 44.9355757,13.3386948 43.650179,13.0132906 L42.6035383,12.7601857 L31.7741115,10.1077562 C30.3060556,9.74476549 28.225189,10.3294816 27.1533737,11.4016719 L1.80455118,36.7483738 C0.731816272,37.8210239 0.731816272,39.5749423 1.80455118,40.6485119 L19.3536299,58.1962021 C20.4263648,59.2679326 22.1813417,59.2679326 23.253042,58.1962021 L48.6014047,32.8484657 C49.6751742,31.7767352 50.2585572,29.6966079 49.8887556,28.2214267 Z M37.7147317,22.2888628 C37.1744559,21.7494344 37.1744559,20.8756361 37.7147317,20.3371271 C38.2533982,19.7976986 39.1277255,19.7972389 39.666277,20.3371271 C40.2049435,20.8756361 40.2049435,21.7500091 39.666277,22.2893226 C39.1277255,22.8278316 38.2532833,22.8278316 37.7147317,22.2888628 Z" id="Shape" fill="#CACBFF"></path>
                        <path d="M3.0894822,38.0945714 L28.2596044,12.7061773 C29.3238638,11.6317872 31.3894903,11.0461226 32.8476535,11.4102777 L43.6006225,14.0664343 L44.6398847,14.3199498 C45.1034151,14.4386485 45.5668314,14.6728222 46,14.980679 C45.3440263,14.0506615 44.3422026,13.2715791 43.3491678,13.0180635 L42.3099055,12.764548 L31.5571648,10.1079309 C30.0994582,9.74435146 28.033261,10.3300161 26.9690016,11.4039456 L1.79887938,36.7917641 C0.733706873,37.8661542 0.733706873,39.6229178 1.79887938,40.6982289 L3.0894822,42 C2.02442384,40.9257251 2.02442384,39.1680405 3.0894822,38.0945714 Z" id="Shape" fill="#D8DFE5"></path>
                        <path d="M21.9054496,55.9104143 L47.2930595,30.7404197 C48.3683764,29.6757092 48.9545046,27.6096366 48.5895416,26.1518232 L45.9338313,15.3998219 L45.6803144,14.3605649 C45.5616151,13.8970369 45.3277855,13.4322533 45.0185455,13 C45.9500647,13.6560845 46.7286908,14.65699 46.9820926,15.6512753 L47.2357246,16.6905324 L49.8914349,27.4425336 C50.2563979,28.9006894 49.6702696,30.965963 48.5967948,32.031016 L23.2081488,57.2011247 C22.1338681,58.2662918 20.376174,58.2662918 19.3017782,57.2011247 L18,55.9104143 C19.0742807,56.9755814 20.8319748,56.9746682 21.9054496,55.9104143 Z" id="Shape" fill="#9597F8"></path>
                        <path d="M40.1210551,18.8786311 C38.9508437,17.707123 37.050657,17.707123 35.8789449,18.8786311 C34.7070184,20.0505681 34.7070184,21.9501286 35.8789449,23.1212081 C37.0507642,24.2927163 38.9508437,24.293145 40.1210551,23.1212081 C41.2929816,21.949807 41.2929816,20.0501393 40.1210551,18.8786311 Z M37.0909611,21.9100386 C36.5871602,21.4069836 36.5871602,20.5921053 37.0909611,20.0899078 C37.5932612,19.5868528 38.408561,19.5864241 38.910754,20.0899078 C39.4130542,20.5921053 39.4130542,21.4075196 38.910754,21.9104674 C38.408561,22.4126648 37.593154,22.4126648 37.0909611,21.9100386 Z" id="Shape" fill="#D8DFE5"></path>
                        <g id="_x38__tag_x2C__seo_x2C__promotion_x2C__marketing_x2C__site_x2C__optimization" fill="#5559F4">
                            <path d="M20.8273457,58.9880156 C20.0013457,58.9880156 19.1756914,58.6730801 18.5470879,58.0449375 L0.954947266,40.4527969 C0.348007812,39.8453965 0.0137128906,39.0355293 0.0132519531,38.1716172 C0.0132519531,37.3087422 0.347546875,36.4987598 0.954486328,35.8923965 L26.3660859,10.479875 C27.5641777,9.28086133 29.7940781,8.65536914 31.4403164,9.06260742 L43.3364219,11.9794199 C44.7527676,12.3273125 46.1799453,13.5825605 46.8045156,15.0312871 C46.9052305,15.2652129 46.7973711,15.5360137 46.5650586,15.6368437 C46.331248,15.7372129 46.0594102,15.6309668 45.9585801,15.3965801 C45.4565039,14.2330586 44.2344434,13.1487031 43.1169004,12.8743301 L31.2207949,9.95751758 C29.9037812,9.63221094 27.9776387,10.1708164 27.0175059,11.1314102 L1.60602148,36.5438164 C1.17320117,36.9757148 0.934666016,37.5544219 0.934666016,38.1716172 C0.934666016,38.7898496 1.17354687,39.3676348 1.60648242,39.801377 L19.1987383,57.3935176 C20.0967598,58.2916543 21.558623,58.2916543 22.4566445,57.3935176 L47.8662852,31.9816875 C48.8274551,31.0206328 49.3654844,29.0962187 49.0414453,27.7783984 L46.8908262,19.0069883 C46.829752,18.7599258 46.9808242,18.5102129 47.2274258,18.4495996 C47.4775996,18.3896777 47.7242012,18.5408652 47.7853906,18.7874668 L49.9360098,27.558416 C50.3409434,29.2041934 49.7182168,31.4336328 48.5178203,32.6331074 L23.1080645,58.0450527 C22.4795762,58.6730801 21.653,58.9880156 20.8273457,58.9880156 Z" id="Shape"></path>
                            <path d="M38.252166,24.4291113 C37.3090879,24.4291113 36.3642812,24.070041 35.6462559,23.3515547 C34.2082461,21.9140059 34.2082461,19.575209 35.6444121,18.1386973 C36.9114141,16.8743457 38.8928691,16.6975762 40.3561152,17.7193594 C40.5306953,17.8398945 40.6980156,17.9789824 40.8581914,18.1354707 C41.0381875,18.313623 41.0417598,18.605166 40.8636074,18.7868906 C40.6853398,18.9682695 40.3956406,18.9727637 40.2120723,18.7932285 C40.0915371,18.6745371 39.9638574,18.568752 39.8305312,18.4761035 C38.7308496,17.7085273 37.2460547,17.8421992 36.295832,18.7905781 C35.2196582,19.8677891 35.2196582,21.621541 36.2976758,22.7000195 C37.3756934,23.7780371 39.1304824,23.7780371 40.2085,22.7000195 C40.5342676,22.3729844 40.7754531,21.9688574 40.9050918,21.5324648 C40.976998,21.2890898 41.2361602,21.1491953 41.4773457,21.2215625 C41.7202598,21.2939297 41.8607305,21.5499805 41.788709,21.7942773 C41.6159727,22.3765566 41.2956211,22.9145859 40.8618789,23.3506328 C40.1420098,24.0695801 39.1969727,24.4291113 38.252166,24.4291113 Z" id="Shape"></path>
                            <path d="M38.2485937,22.5883574 C37.7590781,22.5883574 37.2965273,22.3971836 36.9493262,22.049291 C36.600166,21.7001309 36.4093379,21.2367734 36.4093379,20.7444922 C36.4093379,19.7290469 37.2371816,18.9024707 38.252166,18.9024707 C38.5078711,18.9024707 38.712873,19.1085098 38.712873,19.3631777 C38.712873,19.6178457 38.5078711,19.8238848 38.252166,19.8238848 C37.7446738,19.8238848 37.330752,20.2373457 37.330752,20.7454141 C37.330752,20.9920156 37.426166,21.2231758 37.6007461,21.3974102 C37.7734824,21.5715293 38.0039512,21.6669434 38.2485937,21.6669434 C38.5275762,21.6884922 38.761502,21.5557422 38.9361973,21.3605352 C39.1089336,21.1710898 39.4004766,21.1558789 39.5876172,21.324582 C39.7766016,21.494207 39.7927344,21.7852891 39.6235703,21.9751953 C39.2744102,22.3648027 38.7759062,22.5884727 38.252166,22.5884727 C38.2504375,22.5883574 38.2504375,22.5883574 38.2485937,22.5883574 Z" id="Shape"></path>
                            <path d="M21.4793418,55.574082 C21.361457,55.574082 21.2435723,55.5290254 21.1535742,55.4390273 C20.9735781,55.2590312 20.9735781,54.9674883 21.1535742,54.7876074 L42.6542344,33.2845273 C42.8342305,33.1045312 43.1257734,33.1045312 43.3057695,33.2845273 C43.4857656,33.4645234 43.4857656,33.7560664 43.3057695,33.9360625 L21.8051094,55.4390273 C21.7151113,55.5290254 21.5972266,55.574082 21.4793418,55.574082 Z" id="Shape"></path>
                            <path d="M3.88674023,37.9799824 C3.7689707,37.9799824 3.6509707,37.935041 3.56097266,37.845043 C3.38097656,37.6650469 3.38097656,37.3735039 3.56097266,37.1935078 L25.0630156,15.6928477 C25.2430117,15.5128516 25.5345547,15.5128516 25.7145508,15.6928477 C25.8945469,15.8728437 25.8945469,16.1643867 25.7145508,16.3442676 L4.21250781,37.845043 C4.12239453,37.935041 4.004625,37.9799824 3.88674023,37.9799824 Z" id="Shape"></path>
                            <path d="M38.252166,21.2062363 C38.0397891,21.2062363 37.8490762,21.0586211 37.802291,20.8426719 C37.7482461,20.5938809 37.9066934,20.3486621 38.1551387,20.2950781 C54.392123,16.798752 58.0634902,2.8869668 58.0634902,0.472691406 C58.0634902,0.218023437 58.2704512,0.011984375 58.5241973,0.011984375 C58.7797871,0.011984375 58.9849043,0.218023437 58.9849043,0.472691406 C58.9849043,3.00266211 55.1803262,17.5717441 38.3494238,21.1958652 C38.317043,21.203125 38.2845469,21.2062363 38.252166,21.2062363 Z" id="Shape"></path>
                            <path d="M42.5661953,11.0694141 C42.4743535,11.0694141 42.382627,11.0424492 42.3016172,10.9860996 C42.0946562,10.8403281 42.0424551,10.5528184 42.1899551,10.3445898 C48.1632441,1.80802734 57.0286855,0.011984375 58.526041,0.011984375 C58.7816309,0.011984375 58.986748,0.218023438 58.986748,0.472691406 C58.986748,0.727359375 58.7816309,0.933398437 58.526041,0.933398437 C57.1852891,0.933398437 48.6168066,2.76643164 42.9440488,10.872709 C42.854166,11.0009648 42.7118516,11.0694141 42.5661953,11.0694141 Z" id="Shape"></path>
                        </g>
                    </g>
                    <text id="02" font-family="GothamPro-Medium, Gotham Pro" font-size="18" font-weight="400" line-spacing="27" fill="#5559F4">
                        <tspan x="47" y="51">02</tspan>
                    </text>
                </g>
            </g>
        </g>
    </g>
</svg>