<?xml version="1.0" encoding="UTF-8"?>
<svg width="27px" height="27px" viewBox="0 0 27 27" version="1.1" xmlns="http://www.w3.org/2000/svg" xmlns:xlink="http://www.w3.org/1999/xlink">
    <!-- Generator: sketchtool 50.2 (55047) - http://www.bohemiancoding.com/sketch -->
    <title>670711C1-E4C4-4CD2-8297-F2E25191BC86</title>
    <desc>Created with sketchtool.</desc>
    <defs></defs>
    <g id="Pages" stroke="none" stroke-width="1" fill="none" fill-rule="evenodd">
        <g id="Как-заработать-в-Instagram-[2.0]" transform="translate(-124.000000, -638.000000)">
            <g id="Group-42" transform="translate(105.000000, 619.000000)">
                <g id="Group-39" transform="translate(20.000000, 20.000000)">
                    <circle id="Check-Copy-2" stroke="#4D5865" stroke-width="1.31999995" cx="12.5" cy="12.5" r="12.5"></circle>
                    <path d="M8.10298572,12.8502406 C8.03375162,12.7802363 8,12.6743546 8,12.6043503 C8,12.5339084 8.03375162,12.4297769 8.10298572,12.3597725 L8.58805712,11.8693043 C8.72695803,11.7288581 8.93466032,11.7288581 9.07312852,11.8693043 L9.10731285,11.9051816 L11.012116,13.9698731 C11.0813501,14.0398775 11.1843358,14.0398775 11.2540026,13.9698731 L15.8918217,9.10369398 L15.9277369,9.10369398 C16.0662051,8.96543534 16.2739074,8.96543534 16.4128083,9.10369398 L16.8961489,9.59416214 C17.034617,9.73460841 17.034617,9.94462154 16.8961489,10.0846303 L11.3587192,15.8958685 C11.2894851,15.9658729 11.2198183,16 11.1151017,16 C11.012116,16 10.9428819,15.9658729 10.8736478,15.8958685 L8.17221982,12.9543721 L8.10298572,12.8502406 Z" id="Fill-1" fill="#37CCBE"></path>
                </g>
            </g>
        </g>
    </g>
</svg>